<svg id="Layer_1" data-name="Layer 1" xmlns="http://www.w3.org/2000/svg" viewBox="0 0 85.04 85.04"><defs><style>.cls-1{fill:#5a6176;}</style></defs><title>Artboard 1</title><circle class="cls-1" cx="20.89" cy="10.95" r="6.5"/><path class="cls-1" d="M35.75,33.82V28.45a8.41,8.41,0,0,0-8.27-8.53H14.25A8.42,8.42,0,0,0,6,28.38l0,5.48-3,11.32a2.53,2.53,0,0,0,1.49,3,2.46,2.46,0,0,0,3.1-1.28l5.07,2.6V76.75A3.8,3.8,0,0,0,16,80.58a3.71,3.71,0,0,0,4-3.7V50.16a.89.89,0,0,1,1.78,0v26.6a3.8,3.8,0,0,0,3.47,3.83,3.71,3.71,0,0,0,4-3.7V49.54l5.07-2.6a2.46,2.46,0,0,0,3,1.32,2.53,2.53,0,0,0,1.6-3.1ZM8.2,44.48l2.65-10,0-3.78a.85.85,0,0,1,1.69,0V44.51Zm21-13.77a.81.81,0,0,1,1.63,0v3.77l2.73,10-4.36,0Z"/><circle class="cls-1" cx="66.75" cy="10.95" r="6.5"/><path class="cls-1" d="M73,19.87H60.49a9.2,9.2,0,0,0-9.2,9.2v3.69l-5-2.66c0-2.84-1.93-5.44-4-5.6v7.3a3.07,3.07,0,0,0,1.63,2.71L53,39.36a2.27,2.27,0,0,0,3.33-2V31a1.06,1.06,0,0,1,2.11,0v45.8a3.8,3.8,0,0,0,3.47,3.83,3.71,3.71,0,0,0,4-3.7V49.27h1.78V76.75a3.8,3.8,0,0,0,3.47,3.83,3.71,3.71,0,0,0,4-3.7V31a1.06,1.06,0,0,1,1.06-1.06h0A1.06,1.06,0,0,1,77.18,31V45.8a2.59,2.59,0,0,0,2.27,2.61,2.52,2.52,0,0,0,2.76-2.5V29.08A9.2,9.2,0,0,0,73,19.87Z"/></svg>