<svg id="Layer_1" data-name="Layer 1" xmlns="http://www.w3.org/2000/svg" viewBox="0 0 85.04 85.04"><defs><style>.cls-1{fill:#5a6176;}</style></defs><title>Artboard 39</title><polygon class="cls-1" points="41.27 83.28 41.27 83.28 38.35 62.64 38.35 62.64 41.27 83.28"/><path class="cls-1" d="M20.36,53.22c-1.89,1.33-3.58,2.61-5.56,2.61a5.87,5.87,0,0,1-3.28-1.13c-4.13-2.75,3.7-6.94,3.7-11.89s-4.76-5-4.76-9.92,4.76-5,4.76-9.93-7.83-9.15-3.7-11.91a5.86,5.86,0,0,1,3.28-1.13c4.1,0,6.94,5.49,12.92,5.49,7.44,0,7.44-4.76,14.88-4.76S50,15.42,57.48,15.42c6,0,8.82-5.49,12.92-5.49a5.87,5.87,0,0,1,3.28,1.13C77.81,13.8,70,18,70,22.95s4.76,5,4.76,9.92-6,5.81-4.67,10.58c1.78,6.24,7.74,8.5,3.61,11.25a5.86,5.86,0,0,1-3.28,1.13c-4.1,0-6.94-5.49-12.92-5.49C50,50.34,50,55.1,42.61,55.1a14.2,14.2,0,0,1-2-.14,12.18,12.18,0,0,1-1.68,1.78l.24,1.71H78.08V7.31h-71V58.44h15.8l.24-1.71A12.16,12.16,0,0,1,20.36,53.22Z"/><polygon class="cls-1" points="37.66 57.7 37.76 58.44 37.76 58.44 37.66 57.7 37.66 57.7"/><polygon class="cls-1" points="38.35 62.64 38.35 62.64 38.06 60.54 38.06 60.54 38.35 62.64"/><polygon class="cls-1" points="82.28 3.11 2.91 3.11 2.91 62.64 22.32 62.64 22.62 60.54 5.01 60.54 5.01 5.21 80.18 5.21 80.18 60.54 39.47 60.54 39.77 62.64 82.28 62.64 82.28 3.11"/><polygon class="cls-1" points="37.76 58.44 38.06 60.54 38.06 60.54 37.76 58.44 37.76 58.44"/><polygon class="cls-1" points="7.11 58.44 7.11 7.31 78.08 7.31 78.08 58.44 39.17 58.44 39.47 60.54 80.18 60.54 80.18 5.21 5.01 5.21 5.01 60.54 22.62 60.54 22.92 58.44 7.11 58.44"/><rect class="cls-1" x="23.46" y="22.82" width="36.49" height="2.8"/><rect class="cls-1" x="23.46" y="29.89" width="36.49" height="2.8"/><rect class="cls-1" x="43.98" y="37.66" width="15.97" height="2.8"/><polygon class="cls-1" points="23.74 62.64 20.82 83.28 28.52 76.16 30.33 66.4 29.63 62.64 23.74 62.64"/><path class="cls-1" d="M24.43,57.7l-.1.74h1.41A12.07,12.07,0,0,1,24.43,57.7Z"/><polygon class="cls-1" points="29.24 60.54 24.03 60.54 23.74 62.64 29.63 62.64 29.24 60.54"/><path class="cls-1" d="M29.05,59.51a12,12,0,0,1-3.31-1.06H24.33l-.3,2.1h5.21Z"/><polygon class="cls-1" points="32.46 62.64 31.76 66.4 33.57 76.16 41.27 83.28 38.35 62.64 32.46 62.64"/><path class="cls-1" d="M36.35,58.44h1.41l-.1-.74A12.07,12.07,0,0,1,36.35,58.44Z"/><polygon class="cls-1" points="32.46 62.64 38.35 62.64 38.06 60.54 32.85 60.54 32.46 62.64"/><path class="cls-1" d="M33,59.51l-.19,1h5.21l-.3-2.1H36.35A12,12,0,0,1,33,59.51Z"/><polygon class="cls-1" points="31.06 62.64 31.76 66.4 32.46 62.64 31.06 62.64"/><polygon class="cls-1" points="32.85 60.54 31.42 60.54 31.05 62.57 31.06 62.64 32.46 62.64 32.85 60.54"/><path class="cls-1" d="M31.59,59.66l-.16.88h1.42l.19-1A12.08,12.08,0,0,1,31.59,59.66Z"/><polygon class="cls-1" points="31.05 62.57 31.42 60.54 30.67 60.54 31.05 62.57"/><path class="cls-1" d="M31,59.68l-.54,0,.16.88h.76l.16-.88Z"/><polygon class="cls-1" points="41.27 83.28 41.27 83.28 33.57 76.16 41.27 83.28"/><path class="cls-1" d="M38.93,56.74A12.18,12.18,0,0,0,40.61,55a11,11,0,0,1-2-.46Z"/><path class="cls-1" d="M22.08,52.08c-.6.36-1.17.76-1.72,1.15a12.16,12.16,0,0,0,2.8,3.51l.36-2.53A10.06,10.06,0,0,1,22.08,52.08Z"/><polygon class="cls-1" points="37.33 55.41 37.66 57.7 37.66 57.7 37.33 55.41 37.33 55.41"/><path class="cls-1" d="M31,37.56A10,10,0,0,1,40,52a9.84,9.84,0,0,0,2.14.27,12.1,12.1,0,1,0-22.86-1.76c.58-.39,1.19-.79,1.84-1.16A10,10,0,0,1,31,37.56Z"/><path class="cls-1" d="M39.32,53.26a10.1,10.1,0,0,1-.75.95l0,.29a11,11,0,0,0,2,.46,12.14,12.14,0,0,0,.88-1.3A10.12,10.12,0,0,1,39.32,53.26Z"/><path class="cls-1" d="M21.54,50.78c-.63.37-1.21.76-1.77,1.14a12,12,0,0,0,.58,1.3c.55-.39,1.12-.78,1.72-1.15A10,10,0,0,1,21.54,50.78Z"/><path class="cls-1" d="M19.33,50.53a12,12,0,0,0,.44,1.4c.55-.38,1.14-.77,1.77-1.14a9.94,9.94,0,0,1-.36-1.42C20.52,49.74,19.91,50.13,19.33,50.53Z"/><path class="cls-1" d="M40,52a10,10,0,0,1-.72,1.25,10.12,10.12,0,0,0,2.17.4,12,12,0,0,0,.7-1.37A9.84,9.84,0,0,1,40,52Z"/><path class="cls-1" d="M23.51,54.21l-.36,2.53a12.15,12.15,0,0,0,1.28,1l.32-2.3A10.12,10.12,0,0,1,23.51,54.21Z"/><path class="cls-1" d="M28.65,57.33a10,10,0,0,1-3.89-1.92l-.32,2.3a12.07,12.07,0,0,0,1.31.74h3.11Z"/><path class="cls-1" d="M25.74,58.44a12,12,0,0,0,3.31,1.06l-.2-1.06Z"/><path class="cls-1" d="M38.38,54.42a10.12,10.12,0,0,1-1,1l.32,2.3a12.15,12.15,0,0,0,1.28-1l-.32-2.24Z"/><path class="cls-1" d="M38.62,54.5l0-.29-.19.21Z"/><path class="cls-1" d="M28.65,57.33l.21,1.11h1.42l-.16-.86A10,10,0,0,1,28.65,57.33Z"/><path class="cls-1" d="M30.28,58.44H28.85l.2,1.06a12.08,12.08,0,0,0,1.45.15Z"/><path class="cls-1" d="M33.44,57.33l-.21,1.11h3.11a12.07,12.07,0,0,0,1.31-.74l-.32-2.3A10,10,0,0,1,33.44,57.33Z"/><path class="cls-1" d="M33,59.51a12,12,0,0,0,3.31-1.06H33.24Z"/><path class="cls-1" d="M31.81,58.44h1.42l.21-1.11a9.93,9.93,0,0,1-1.47.25Z"/><path class="cls-1" d="M31.81,58.44l-.23,1.22A12.08,12.08,0,0,0,33,59.51l.2-1.06Z"/><path class="cls-1" d="M32,57.58c-.31,0-.61,0-.93,0s-.62,0-.93,0l.16.86h1.54Z"/><path class="cls-1" d="M30.28,58.44l.23,1.22.54,0,.54,0,.23-1.22Z"/><path class="cls-1" d="M34.19,52.17h.09l0,0Z"/><path class="cls-1" d="M27.69,52.17h.21a5.57,5.57,0,0,1-1.59-1.71,10.15,10.15,0,0,0-2.74.83,8.34,8.34,0,0,0,.5.88h3.63Z"/><path class="cls-1" d="M25.49,47.59A5.56,5.56,0,1,1,36.05,50l.62.39a19.65,19.65,0,0,0,1.79,1.06,8.36,8.36,0,1,0-15.71-2.83,12.79,12.79,0,0,1,2.75-.83C25.5,47.7,25.49,47.65,25.49,47.59Z"/><path class="cls-1" d="M34.23,52.14l0,0h2.65l-1-.63-.63-.4A5.56,5.56,0,0,1,34.23,52.14Z"/><path class="cls-1" d="M25.73,49.14A11.75,11.75,0,0,0,23,50a8.29,8.29,0,0,0,.52,1.3,10.15,10.15,0,0,1,2.74-.83A5.51,5.51,0,0,1,25.73,49.14Z"/><path class="cls-1" d="M25.51,47.76a12.79,12.79,0,0,0-2.75.83A8.3,8.3,0,0,0,23,50a11.75,11.75,0,0,1,2.69-.85A5.5,5.5,0,0,1,25.51,47.76Z"/><path class="cls-1" d="M36.05,50a5.53,5.53,0,0,1-.76,1.17l.63.4,1,.63H38a8.33,8.33,0,0,0,.43-.75,19.65,19.65,0,0,1-1.79-1.06Z"/><path class="cls-1" d="M27.69,52.17H24.06a8.41,8.41,0,0,0,1.15,1.4h2.73Z"/><path class="cls-1" d="M27.95,53.57H25.21a8.37,8.37,0,0,0,3.09,1.91L28,53.82Z"/><path class="cls-1" d="M36.54,53.57c-.75-.43-1.43-.89-2.15-1.33l-.25,1.33Z"/><path class="cls-1" d="M34.4,52.17v.07c.72.44,1.4.91,2.15,1.33h.34a8.42,8.42,0,0,0,.84-1q-.4-.21-.79-.44Z"/><path class="cls-1" d="M36.93,52.17q.39.23.79.44c.11-.14.22-.29.32-.44h-1.1Z"/><path class="cls-1" d="M34.39,52.23l-.11-.07h-.09a5.53,5.53,0,0,1-6.3,0h-.21l.26,1.4h6.2Z"/><path class="cls-1" d="M34.39,52.23v-.07h-.12Z"/><path class="cls-1" d="M27.95,53.57l0,.26.31,1.66a8.28,8.28,0,0,0,1.49.37l-.42-2.28Z"/><path class="cls-1" d="M34.14,53.57l0,.26-.31,1.66a8.36,8.36,0,0,0,3-1.8l-.21-.11Z"/><path class="cls-1" d="M36.75,53.68l.13-.11h-.34Z"/><path class="cls-1" d="M34.14,53.57H32.72l-.42,2.28a8.27,8.27,0,0,0,1.49-.37l.31-1.66Z"/><path class="cls-1" d="M32.3,55.85l.42-2.28H29.37l.42,2.28a7.57,7.57,0,0,0,2.5,0Z"/></svg>