<svg id="Layer_1" data-name="Layer 1" xmlns="http://www.w3.org/2000/svg" viewBox="0 0 85.04 85.04"><defs><style>.cls-1{fill:#5a6176;}.cls-2{fill:none;stroke:#5a6176;stroke-linecap:round;stroke-miterlimit:10;stroke-width:3px;}</style></defs><title>Artboard 33 copy 21</title><polygon class="cls-1" points="83.62 39.54 73.77 31.58 73.77 12.95 63.47 12.95 63.47 23.26 42.52 6.33 1.42 39.54 5.12 44.12 8.85 41.11 8.85 69.85 14.73 69.85 14.73 36.35 42.52 13.9 69.85 35.98 69.85 69.85 75.73 69.85 75.73 40.73 79.92 44.12 83.62 39.54"/><path class="cls-1" d="M37.12,38.6H48.18a1.26,1.26,0,0,1,0,2.53H37.12a1.26,1.26,0,0,1,0-2.53Z"/><path class="cls-1" d="M37.12,35.24H48.18a1.26,1.26,0,0,1,0,2.53H37.12a1.26,1.26,0,0,1,0-2.53Z"/><path class="cls-1" d="M38.64,31.88h8a1.26,1.26,0,1,1,0,2.53h-8a1.26,1.26,0,1,1,0-2.53Z"/><polygon class="cls-1" points="36.5 57.14 42.99 51.59 45.57 49.38 44.96 52.84 43.11 63.33 41.14 62.08 48.21 58.06 48.65 57.82 49.16 58.55 48.78 58.87 42.59 64.15 40.01 66.35 40.62 62.89 42.47 52.4 44.44 53.66 37 57.86 36.62 58.08 36.16 57.42 36.5 57.14"/><path class="cls-1" d="M49.36,43.45l0-.65-3,.18,0,.65A20.92,20.92,0,0,0,50,54.1a8.84,8.84,0,0,1,1.53,5.34A9,9,0,0,1,43.14,68a8.91,8.91,0,0,1-7.75-14.08A20,20,0,0,0,39,43.37L39,43l-3-.18,0,.39a17,17,0,0,1-3,9A11.95,11.95,0,0,0,42.63,71l.68,0A12,12,0,0,0,54.59,59.56a11.85,11.85,0,0,0-2-7.16A17.91,17.91,0,0,1,49.36,43.45Z"/><polygon class="cls-1" points="22.21 62.2 23.02 65.76 29.86 63.08 29.53 61.64 22.21 62.2"/><polygon class="cls-1" points="32.09 77.13 35.38 78.71 37.55 71.7 36.22 71.06 32.09 77.13"/><polygon class="cls-1" points="47.75 71.7 49.92 78.71 53.21 77.13 49.08 71.06 47.75 71.7"/><polygon class="cls-1" points="55.76 61.64 55.44 63.08 62.28 65.76 63.09 62.2 55.76 61.64"/><polygon class="cls-1" points="32.72 50.55 27.72 45.17 25.44 48.02 31.8 51.7 32.72 50.55"/><polygon class="cls-1" points="59.85 48.02 57.58 45.17 52.58 50.55 53.49 51.7 59.85 48.02"/><line class="cls-2" x1="42.52" y1="28.98" x2="42.52" y2="10.98"/></svg>