<svg id="Layer_1" data-name="Layer 1" xmlns="http://www.w3.org/2000/svg" viewBox="0 0 85.04 85.04"><defs><style>.cls-1{fill:#5a6176;}</style></defs><title>Artboard 33 copy 50</title><path class="cls-1" d="M84.2,74.42l-.11,0-.26.13c-2.66,1.33-10.9,4.5-18.38-2.58l-.22-.21a.54.54,0,0,0-.22,0l-.15,0a.57.57,0,0,0-.26.2c-2.23,1.7-12.47,8.63-21.58.13L42.89,72a.57.57,0,0,0-.37-.15.54.54,0,0,0-.36.15l-.14.13c-9.11,8.5-19.36,1.57-21.58-.13a.55.55,0,0,0-.25-.2l-.16,0a.58.58,0,0,0-.21,0,2.45,2.45,0,0,1-.22.21C12.1,79.07,3.86,75.91,1.21,74.58l-.26-.13-.1,0a.52.52,0,0,0-.51.52V78.5a.5.5,0,0,0,.15.37c8.64,7.51,16.82.47,18.72-1.39a.48.48,0,0,1,.14-.14.52.52,0,0,1,.28-.09.5.5,0,0,1,.35.14l0,0c9.76,9.32,20,1.77,22.13,0l.21-.19a.45.45,0,0,1,.19,0,.48.48,0,0,1,.2,0l.21.19c2.13,1.77,12.36,9.32,22.12,0l0,0a.5.5,0,0,1,.35-.14.51.51,0,0,1,.28.09.54.54,0,0,1,.14.14c1.89,1.86,10.07,8.89,18.71,1.39a.52.52,0,0,0,.15-.37V74.94A.51.51,0,0,0,84.2,74.42Z"/><path class="cls-1" d="M84.2,62.79l-.11,0-.26.13c-2.66,1.33-10.9,4.5-18.38-2.58l-.22-.21a.54.54,0,0,0-.22,0l-.15,0a.57.57,0,0,0-.26.2C62.37,62,52.14,69,43,60.46l-.13-.13a.57.57,0,0,0-.37-.15.54.54,0,0,0-.36.15l-.14.13C36,66.1,29.44,65,25.07,63c-1.25,2-2.27,3.57-2.91,4.53,9.06,6.43,18-.15,20-1.79l.21-.19a.45.45,0,0,1,.19,0,.48.48,0,0,1,.2,0l.21.19c2.13,1.77,12.36,9.32,22.12,0l0,0a.5.5,0,0,1,.35-.14.51.51,0,0,1,.28.09.54.54,0,0,1,.14.14c1.89,1.86,10.07,8.89,18.71,1.39a.52.52,0,0,0,.15-.37V63.31A.51.51,0,0,0,84.2,62.79Z"/><path class="cls-1" d="M17.33,67.45c-.58-.87-1.44-2.21-2.49-3.87C8.9,66.19,3.31,64,1.21,62.95l-.26-.13-.1,0a.52.52,0,0,0-.51.52v3.56a.5.5,0,0,0,.15.37C7.38,73.24,14,70,17.33,67.45Z"/><path class="cls-1" d="M84.2,51.16l-.11,0-.26.13c-2.66,1.33-10.9,4.5-18.38-2.58l-.22-.21a.54.54,0,0,0-.22,0l-.15,0a.57.57,0,0,0-.26.2c-2.23,1.7-12.47,8.63-21.58.13l-.13-.13a.57.57,0,0,0-.37-.15.54.54,0,0,0-.36.15l-.14.13a14.18,14.18,0,0,1-11,4.11c-1.06,1.92-2.13,3.78-3.16,5.51,6.84,1.33,12.69-3,14.24-4.31l.21-.19a.45.45,0,0,1,.19,0,.48.48,0,0,1,.2,0l.21.19c2.13,1.77,12.36,9.32,22.12,0l0,0a.5.5,0,0,1,.35-.14.51.51,0,0,1,.28.09.54.54,0,0,1,.14.14c1.89,1.86,10.07,8.89,18.71,1.39a.52.52,0,0,0,.15-.37V51.68A.51.51,0,0,0,84.2,51.16Z"/><path class="cls-1" d="M11.79,58.6c-1-1.7-2.07-3.53-3.12-5.42a17.8,17.8,0,0,1-7.46-1.86l-.26-.13-.1,0a.52.52,0,0,0-.51.52v3.56a.5.5,0,0,0,.15.37C4.56,59.15,8.53,59.46,11.79,58.6Z"/><path class="cls-1" d="M56.28,35.41c-.72-.06-1.44-.11-2.18-.11-9.06,0-16.52,4.92-17.68,11.28A15.37,15.37,0,0,0,42,43.15l.14-.13a.54.54,0,0,1,.36-.15.57.57,0,0,1,.37.15l.13.13c9.11,8.5,19.35,1.57,21.58-.13a.57.57,0,0,1,.26-.2l.15,0a.54.54,0,0,1,.22,0l.22.21a16,16,0,0,0,6.39,3.82C71.1,42,66.66,37.92,60.61,36.19c0-.5.08-1,.1-1.51A41.3,41.3,0,0,0,60,25.35a40.64,40.64,0,0,0-5.27-13.59,18.53,18.53,0,0,1,5.3,2.8,19,19,0,0,1,5.78,7.25.39.39,0,0,0,.74-.14,13.8,13.8,0,0,0-1.15-6,10.19,10.19,0,0,0-4.73-5.21A10.2,10.2,0,0,0,54,9.89l-.36.11v0l.08-.07A10.64,10.64,0,0,1,55.5,8.63a8.84,8.84,0,0,1,4.2-1.07,8.66,8.66,0,0,1,4.2,1.06,10.3,10.3,0,0,1,3.33,2.91.32.32,0,0,0,.38.13.28.28,0,0,0,.19-.34,9.22,9.22,0,0,0-3.14-4.94,8.41,8.41,0,0,0-3.41-1.67,7.49,7.49,0,0,0-3.57,0,8,8,0,0,0-3.38,2,7.57,7.57,0,0,0-1.4,1.9,5.37,5.37,0,0,1,.19-2.09,5.55,5.55,0,0,1,3.14-3.36.21.21,0,0,0-.08-.4A5.48,5.48,0,0,0,53,3.64a4.69,4.69,0,0,0-1.48,1.51A3.82,3.82,0,0,0,51,7.06a4.69,4.69,0,0,0,.11,1,8.4,8.4,0,0,0-4-2,8.07,8.07,0,0,0-3.39.06,8.49,8.49,0,0,0-3.12,1.41,7.07,7.07,0,0,0-2.73,3.88c-.08.3.4.46.63.24a10.07,10.07,0,0,1,6.87-2.95,11.82,11.82,0,0,1,4.6.86,10.29,10.29,0,0,0-5,1.18,10.19,10.19,0,0,0-4.39,5.5,13.8,13.8,0,0,0-.77,6,.39.39,0,0,0,.75.09,19,19,0,0,1,5.32-7.6,18.6,18.6,0,0,1,6-3.45,37.78,37.78,0,0,1,4.73,14.55,37.36,37.36,0,0,1,0,8.47C56.39,34.7,56.33,35.06,56.28,35.41Z"/><path class="cls-1" d="M14.59,57.52c1,1.74,2,3.31,2.84,4.6,1.18,1.86,2,3.13,2.27,3.51l.09.13.06-.09c.24-.35,1.21-1.83,2.58-4,.75-1.19,1.62-2.6,2.55-4.14s2-3.32,3-5.11c4-7,7.85-15.05,7.85-19.42a16,16,0,1,0-32,0c0,4.46,4.07,12.75,8.11,19.88C12.81,54.51,13.73,56.08,14.59,57.52ZM9.24,33A10.55,10.55,0,1,1,19.79,43.55,10.55,10.55,0,0,1,9.24,33Z"/><polygon class="cls-1" points="18.59 36.29 15.17 36.29 15.17 33.95 18.23 33.95 18.23 32.29 15.17 32.29 15.17 30.27 18.4 30.27 18.4 28.58 13.13 28.58 13.13 37.97 18.59 37.97 18.59 36.29"/><path class="cls-1" d="M23.4,38.11c2.27,0,3.57-1.35,3.57-4.1V28.58h-2V34.2c0,1.59-.54,2.26-1.48,2.26S22,35.74,22,34.2V28.58H20V34C20,36.79,21.16,38.11,23.4,38.11Z"/></svg>