<svg id="Layer_1" data-name="Layer 1" xmlns="http://www.w3.org/2000/svg" viewBox="0 0 85.04 85.04"><defs><style>.cls-1{fill:#5a6176;}</style></defs><title>Artboard 35</title><path class="cls-1" d="M36.17,21.68,45.8,9.51,57.46,11.7,48.32,22.45A87.87,87.87,0,0,0,36.16,41.13L30,53.91l-6.5-9.45-2.79.8a5.13,5.13,0,0,0,.56,1l7,9.85.54,6,10.35,6.73a6.75,6.75,0,0,0,4.57,1l3.1-.41,1.28-2,6.54,4.26A2.62,2.62,0,0,0,58.28,71L60,68.36a2.62,2.62,0,0,0-.77-3.62L52.7,60.48l20-30.76L79.26,34a2.62,2.62,0,0,0,3.62-.77l1.74-2.67a2.62,2.62,0,0,0-.77-3.62l-6.54-4.26,1.28-2-.88-3a6.75,6.75,0,0,0-2.8-3.76L64.56,7.21,58.85,9.15,47,6.73a5.16,5.16,0,0,0-5.11,1.89l-6.15,7.91C34.08,18.68,32.5,20.9,31,23.17l.07,0ZM39,62.76a1.35,1.35,0,0,1-1.87.4l-4.27-2.78a1.35,1.35,0,0,1-.4-1.87L37,51.41a1.35,1.35,0,0,1,1.42-.58L43.79,52A1.35,1.35,0,0,1,44.64,54ZM58.08,19.08,62.7,12a1.35,1.35,0,0,1,1.87-.4l4.27,2.78a1.35,1.35,0,0,1,.4,1.87L63.56,25a1.35,1.35,0,0,1-2.22.06l-3.21-4.4A1.35,1.35,0,0,1,58.08,19.08Z"/><path class="cls-1" d="M2.27,43.28a3.83,3.83,0,0,0,.26.4l.16.2A3.85,3.85,0,0,0,3,44.2l.19.16a3.89,3.89,0,0,0,.4.27l.17.11a3.87,3.87,0,0,0,.63.27l.1,0a3.84,3.84,0,0,0,.57.13l.23,0,.3,0H6a3.86,3.86,0,0,0,.69-.12A3.93,3.93,0,0,0,9.3,40.3,3.86,3.86,0,0,0,9,39.63l-.11-.2a3.82,3.82,0,0,0-.26-.4l-.16-.2a3.86,3.86,0,0,0-.31-.32L8,38.35a3.87,3.87,0,0,0-.4-.27l0,0L7.43,38a3.88,3.88,0,0,0-.62-.27l-.1,0a3.84,3.84,0,0,0-.57-.13l-.23,0-.3,0H5.22a3.83,3.83,0,0,0-3.06,5.56Z"/><path class="cls-1" d="M15,44.3l5.39-1.54,4.3-1.23,4.29-1.23,0-.05a2.2,2.2,0,0,0,1.67-1.58l2.36-8.89,7.6-2.17A2.28,2.28,0,0,0,42.2,25a2.22,2.22,0,0,0-.14-.41L42,24.44a2.2,2.2,0,0,0-.15-.24l-.09-.12-.18-.19-.11-.1-.22-.16-.11-.07a2.22,2.22,0,0,0-.37-.17h0a2.2,2.2,0,0,0-.38-.09H40a2.19,2.19,0,0,0-.55.08L33.78,25l-2,.58a4.43,4.43,0,0,0-3.06,3.12L28,31.44l-1-1.71-3.09-5.32,3.84-6.91a2.43,2.43,0,0,0,.3-1.21,2.32,2.32,0,0,0-.15-.8,2.16,2.16,0,0,0-.18-.37,2,2,0,0,0-.57-.6h0a2.24,2.24,0,0,0-.38-.21l-.11,0-.32-.09-.09,0a2.21,2.21,0,0,0-.91,0l-.12,0a2.2,2.2,0,0,0-.37.15l-.15.09a2.18,2.18,0,0,0-.3.23l-.12.11a2.19,2.19,0,0,0-.33.44l-3.89,7a4.42,4.42,0,0,0,0,4.37l3,5.16L12.35,34.86l-1.75-6.13-8.23-5.3a1.64,1.64,0,0,0-.47-.2l-.16,0a1.64,1.64,0,0,0-.26,0H1.29a1.49,1.49,0,0,0-.44.12l-.06,0a1.37,1.37,0,0,0-.4.3h0a1.51,1.51,0,0,0-.33.58,1.49,1.49,0,0,0,.62,1.68L8,30.63l1.7,5.94,1.92,6.71.08.27-.35.44-2,2.48L1.45,56.25a1.67,1.67,0,0,0-.34.75,1.62,1.62,0,0,0,0,.27,1.55,1.55,0,0,0,0,.27,1.4,1.4,0,0,0,.35.73,1.49,1.49,0,0,0,2.26-.07Z"/><rect class="cls-1" x="2.58" y="73.46" width="82.46" height="4.96"/></svg>