<svg id="Layer_1" data-name="Layer 1" xmlns="http://www.w3.org/2000/svg" viewBox="0 0 85.04 85.04"><defs><style>.cls-1{fill:#5a6176;}</style></defs><title>Artboard 33 copy 59</title><path class="cls-1" d="M56.55,40.28A22.37,22.37,0,0,0,34.25,61h1.29A2.54,2.54,0,0,1,38,63.61v.15H35.7v-.15a.17.17,0,0,0-.17-.18H34.2A22.37,22.37,0,1,0,56.55,40.28Zm2.28,34.35a11.12,11.12,0,0,1-8.88-4,10.27,10.27,0,0,1-2.24-4.87H45.29V63.48h2.13v-.57c0-.43,0-.85.07-1.28H45.32V59.39h2.52A11.22,11.22,0,0,1,59,50.69a13.7,13.7,0,0,1,5.72,1.21l-1,3.34a10.41,10.41,0,0,0-4.48-1,6.72,6.72,0,0,0-5.08,2.1,7,7,0,0,0-1.63,3.09H63.09v2.24H52A7.09,7.09,0,0,0,52,62.87v.6H63.09v2.24H52.43a6.36,6.36,0,0,0,1.63,3.23,7.38,7.38,0,0,0,5.33,2A10.53,10.53,0,0,0,64,69.84l.82,3.2A11.45,11.45,0,0,1,58.82,74.63Z"/><path class="cls-1" d="M41.93,24.4v-.15h2.33v.15A2.54,2.54,0,0,1,41.76,27h-.18v8.21h2.68v-10a1.95,1.95,0,1,1,3.89,0v10h3v-10a1.95,1.95,0,1,1,3.89,0v10h3v-10a1.95,1.95,0,1,1,3.89,0v10h3v-10a1.95,1.95,0,1,1,3.89,0v10h2.6V19.49H41.58v5.09h.18A.17.17,0,0,0,41.93,24.4Z"/><path class="cls-1" d="M56.55,8.54a9.6,9.6,0,0,0-9.6,9.6H66.15A9.6,9.6,0,0,0,56.55,8.54Z"/><path class="cls-1" d="M64.94,5.4c0-1.86,0-2.8,0-4.66-3.36-2.57-5,2.57-8.39,0V5.4C59.9,8,61.58,2.83,64.94,5.4Z"/><path class="cls-1" d="M34.25,61h-4v-.46a2.58,2.58,0,0,0-.73-1.8A2,2,0,0,0,28.19,58a14,14,0,0,1-5.29-1.53,2.6,2.6,0,0,0-3.06,1.11l-.27.38-1.06-.79.29-.36A3.25,3.25,0,0,0,19.54,55a2,2,0,0,0-.44-1.48,14,14,0,0,1-2.87-4.7,1.59,1.59,0,0,0-.44-.62,2.06,2.06,0,0,0-.67-.45,3.23,3.23,0,0,0-1.91-.17l-.45.1c-.11-.42-.14-.87-.22-1.3l.46-.06a3.08,3.08,0,0,0,1.7-.82,1.76,1.76,0,0,0,.68-1.4,14.1,14.1,0,0,1,1.05-5.41,1.82,1.82,0,0,0-.1-1.54A3.18,3.18,0,0,0,15,35.73l-.4-.23c.23-.37.45-.76.69-1.12l.38.26a3.23,3.23,0,0,0,1.83.56A2,2,0,0,0,19,34.62a14.07,14.07,0,0,1,4.43-3.29,2,2,0,0,0,1-1.21,3.26,3.26,0,0,0,0-1.92l-.14-.44c.42-.13.85-.22,1.27-.34l.1.45a3.19,3.19,0,0,0,1,1.63,1.79,1.79,0,0,0,1.45.54l1.4-.07H35a2.52,2.52,0,0,0,2.49-2.55V27h4.13V24.58H37.45V23.29A2.52,2.52,0,0,0,35,20.74H29.43l-2.28.11a3.13,3.13,0,0,0-2,1,2.24,2.24,0,0,0-.45,1.95L25,25.1c-.48.13-1,.24-1.45.39l-.39-1.23a2.2,2.2,0,0,0-1.37-1.42,2.84,2.84,0,0,0-2.28.14,23.32,23.32,0,0,0-7.34,5.45,2.83,2.83,0,0,0-.79,2.14,2.21,2.21,0,0,0,1,1.73l1.07.73c-.28.41-.53.85-.79,1.28l-1.12-.65a2.24,2.24,0,0,0-2-.14,3.1,3.1,0,0,0-1.59,1.64,23.36,23.36,0,0,0-1.75,9A3.19,3.19,0,0,0,7,46.25a2.3,2.3,0,0,0,1.91.62l1.28-.18c.09.49.13,1,.25,1.48l-1.26.28A2.21,2.21,0,0,0,7.6,49.7a3,3,0,0,0-.28,1.08A3.23,3.23,0,0,0,7.53,52a23.26,23.26,0,0,0,4.77,7.81,2.85,2.85,0,0,0,2.06,1,2.2,2.2,0,0,0,1.8-.8L17,59l1.2.9-.75,1.06a2.55,2.55,0,0,0,1.17,3.7,23.23,23.23,0,0,0,8.8,2.55,2.94,2.94,0,0,0,2.14-.65,2.58,2.58,0,0,0,.73-1.8V63.44H34.2c0-.26,0-.52,0-.78C34.17,62.12,34.21,61.58,34.25,61ZM27.38,23.23l2.06-.1H35a.16.16,0,0,1,.16.16v1.29H34.6a.17.17,0,0,1-.17-.18v-.15H32.1v.15A2.54,2.54,0,0,0,34.6,27h.53v.46a.16.16,0,0,1-.16.16H29.43l-1.63.08a.16.16,0,0,1-.15-.15l0-.46L28.73,27a2.72,2.72,0,0,0,1.71-.79,2.59,2.59,0,0,0,.73-1.81v-.15c-.79,0-1.52,0-2.36,0v.15a.18.18,0,0,1-.17.19l-1.29.07-.13-1.29A.16.16,0,0,1,27.38,23.23ZM13.9,30a20.93,20.93,0,0,1,6.59-4.89.16.16,0,0,1,.22.07l.41.88L20,26.62,19,27.25l.08.13a2.8,2.8,0,0,0,3.21,1.15l.2.44a.15.15,0,0,1-.06.21A16.46,16.46,0,0,0,17.21,33,.15.15,0,0,1,17,33l-.34-.31.33-.36a2.62,2.62,0,0,0,.66-1.69A2.92,2.92,0,0,0,17,28.8l-.09-.11a23.66,23.66,0,0,0-1.81,1.68l.11.1a.18.18,0,0,1,0,.25l-.37.41-1-.86A.17.17,0,0,1,13.9,30Zm-4,11.82-.15,0c-.06.82-.12,1.64-.11,2.45h-1a.17.17,0,0,1-.17-.17,21,21,0,0,1,1.57-8.06.16.16,0,0,1,.21-.1l1.19.5-.19.52a.18.18,0,0,1-.23.11L10.92,37c-.14.39-.29.77-.42,1.16l-.31,1.2.14,0a2.78,2.78,0,0,0,3.17-1.58l.16-.45.43.18a.16.16,0,0,1,.1.19A16.49,16.49,0,0,0,13,44.1a.14.14,0,0,1-.15.14h-.48A2.77,2.77,0,0,0,9.9,41.85Zm7.41,13.5-.46.44a2.92,2.92,0,0,0-2.85.36l-.12.09A15.48,15.48,0,0,0,15,57.52l-.71.67a.16.16,0,0,1-.23,0,20.87,20.87,0,0,1-4.28-7,.17.17,0,0,1,.09-.22l1.22-.43c.15.4.28.81.46,1.2a.17.17,0,0,1-.08.23l-.13.06a18.36,18.36,0,0,0,1.15,2.18l.13-.08a2.76,2.76,0,0,0,1.19-1.53,2.37,2.37,0,0,0-.05-1.81c-.15-.34-.26-.71-.4-1.06l.43-.15a.15.15,0,0,1,.2.08,16.4,16.4,0,0,0,3.36,5.51A.15.15,0,0,1,17.31,55.35ZM28.07,61a2.81,2.81,0,0,0-2.36,2.24l0,.15a20.36,20.36,0,0,0,2.19.28l-.07,1a.17.17,0,0,1-.19.15,20.84,20.84,0,0,1-7.89-2.29.16.16,0,0,1-.08-.22l.61-1.14c.61.28,1.21.61,1.84.85a.17.17,0,0,1,.1.23l-.05.14a16.89,16.89,0,0,0,2.35.75l0-.14a2.77,2.77,0,0,0-.23-1.93A2.45,2.45,0,0,0,23,59.79c-.55-.21-1.07-.5-1.61-.75l.22-.41a.16.16,0,0,1,.2-.08A16.36,16.36,0,0,0,28,60.35a.15.15,0,0,1,.13.17Z"/><path class="cls-1" d="M35.7,63.61v.15H38v-.15A2.54,2.54,0,0,0,35.53,61H34.25c0,.53-.08,1.07-.08,1.61,0,.26,0,.52,0,.78h1.33A.17.17,0,0,1,35.7,63.61Z"/><path class="cls-1" d="M41.76,27a2.54,2.54,0,0,0,2.5-2.57v-.15H41.93v.15a.17.17,0,0,1-.17.18h-.18V27Z"/></svg>