<svg id="Calque_1" data-name="Calque 1" xmlns="http://www.w3.org/2000/svg" viewBox="0 0 85.04 85.04"><defs><style>.cls-1{fill:#5a6176;}</style></defs><title>People_killed_in_accidents_at_work</title><path class="cls-1" d="M30.77,51.33a6.58,6.58,0,0,0-8.62-2.24l7.15,11A6.61,6.61,0,0,0,30.77,51.33Z"/><path class="cls-1" d="M76.37,8.93a3.83,3.83,0,0,0-4.81-.44L60.08,15.94a7.45,7.45,0,0,0-3.4,6.54l.19,5L46.66,18,49.48,4.76A3.91,3.91,0,0,0,46.82.13,3.76,3.76,0,0,0,42.15,3L39.28,16.48a7.44,7.44,0,0,0,2.22,7l7.55,7L33,40.89l-6-9.16L10.81,27.14A2.56,2.56,0,0,0,7.63,29,2.66,2.66,0,0,0,9.57,32.1l14.27,4L36.37,55.43,25.85,81.53a2.55,2.55,0,0,0,1.42,3.32,2.52,2.52,0,0,0,3.32-1.41L42,55.05,62.92,41.49l-.06-.08a3.74,3.74,0,0,0,2-3.43l-.59-15.74,11.53-7.48A3.77,3.77,0,0,0,76.37,8.93Z"/><path class="cls-1" d="M28.32,61.5l-.25-.4h0l-3.72-5.85-3.68-5.79L20.38,49A1,1,0,0,0,19,48.7a1.06,1.06,0,0,0-.31,1.45l.05.07a7.54,7.54,0,0,0-2.45,6.68l2.08-.37,2.09-.37-1.89,1.08L16.6,58.35a8.13,8.13,0,0,0,.74,1.55,7.76,7.76,0,0,0,1.08,1.32l1.78-1.34,1.73-1.33-1.19,1.82-1.16,1.77a7.2,7.2,0,0,0,7,.44l.05.07A1,1,0,0,0,28,63,1.06,1.06,0,0,0,28.32,61.5Z"/></svg>