<svg id="Layer_1" data-name="Layer 1" xmlns="http://www.w3.org/2000/svg" viewBox="0 0 85.04 85.04"><defs><style>.cls-1{fill:#5a6176;}</style></defs><title>Artboard 33 copy 48</title><polygon class="cls-1" points="58.42 68.89 58.42 79.24 67.43 79.24 67.43 68.67 67.31 68.89 58.42 68.89"/><polygon class="cls-1" points="83.62 68.19 72.64 52.19 79.23 52.19 69.52 38.04 74.84 38.04 62.92 20.68 59.62 25.49 59.73 25.65 56.85 30.98 64.98 43.4 62.05 48.82 60.64 48.82 70.24 63.47 67.69 68.19 83.62 68.19"/><polygon class="cls-1" points="24.43 48.82 23.01 48.82 20.09 43.4 28.22 30.98 25.34 25.65 25.43 25.51 22.11 20.68 10.2 38.04 15.52 38.04 5.81 52.19 12.4 52.19 1.42 68.19 17.38 68.19 14.83 63.47 24.43 48.82"/><polygon class="cls-1" points="17.61 68.62 17.61 79.24 26.62 79.24 26.62 68.89 17.76 68.89 17.61 68.62"/><polygon class="cls-1" points="54.16 45.32 62.05 45.32 54.22 33.36 53.38 32.07 52.53 30.78 50.43 27.57 54.73 27.57 56.46 27.57 56.8 27.57 56.63 27.32 55.79 26.03 42.53 5.8 29.27 26.05 28.42 27.34 28.27 27.57 28.58 27.57 30.31 27.57 34.64 27.57 32.53 30.8 31.68 32.09 30.83 33.38 23.01 45.32 30.91 45.32 17.76 65.39 37.14 65.39 37.14 68.19 37.14 69.62 37.14 70.55 37.14 71.05 37.14 79.24 47.93 79.24 47.93 71.05 47.93 70.59 47.93 69.62 47.93 68.19 47.93 65.39 67.31 65.39 54.16 45.32"/></svg>