<svg id="Layer_1" data-name="Layer 1" xmlns="http://www.w3.org/2000/svg" viewBox="0 0 85.04 85.04"><defs><style>.cls-1{fill:#5a6176;}</style></defs><title>Artboard 10</title><path class="cls-1" d="M28.72,63.21l1.49,18.2H54.83l1.49-18.2a20,20,0,0,1-27.59,0Z"/><path class="cls-1" d="M42.52,65.81a17.11,17.11,0,0,0,14.2-7.58l.78-9.53h1.24V45.34H26.3V48.7h1.24l.78,9.53A17.1,17.1,0,0,0,42.52,65.81Z"/><path class="cls-1" d="M25.41,48.7H22.47a20,20,0,0,0,6.26,14.51l-.41-5A17,17,0,0,1,25.41,48.7Z"/><path class="cls-1" d="M56.72,58.22l-.41,5A20,20,0,0,0,62.57,48.7H59.63A17,17,0,0,1,56.72,58.22Z"/><path class="cls-1" d="M41.39,14.8l-1.12,1.86c-.67,1.1-4,6.73-4,9.08a5.12,5.12,0,0,0,10.23,0c0-2.35-3.33-8-4-9.08Zm0,13.44a2.49,2.49,0,0,1-2.49-2.49c0-.84,1.15-3.34,2.49-5.78,1.34,2.43,2.49,4.93,2.49,5.78A2.5,2.5,0,0,1,41.39,28.23Z"/><path class="cls-1" d="M49.53,43.09A5.12,5.12,0,0,0,54.64,38c0-2.35-3.33-8-4-9.08L49.53,27,48.4,28.89c-.67,1.1-4,6.73-4,9.08A5.12,5.12,0,0,0,49.53,43.09Zm0-10.89C50.86,34.63,52,37.13,52,38a2.49,2.49,0,0,1-5,0C47,37.14,48.19,34.63,49.53,32.2Z"/><polygon class="cls-1" points="83.62 36.84 73.77 28.89 73.77 10.26 63.47 10.26 63.47 20.56 42.52 3.63 1.42 36.84 5.12 41.42 8.85 38.41 8.85 67.16 14.73 67.16 14.73 33.65 42.52 11.2 69.85 33.28 69.85 67.16 75.73 67.16 75.73 38.04 79.92 41.42 83.62 36.84"/></svg>