<svg id="Calque_1" data-name="Calque 1" xmlns="http://www.w3.org/2000/svg" viewBox="0 0 85.04 85.04"><defs><style>.cls-1{fill:#5a6176;}</style></defs><title>In work at-risk-of-poverty rate</title><path class="cls-1" d="M49.81,33.86a.6.6,0,1,0-1.19,0V44l3.2,0-2-7.34Z"/><path class="cls-1" d="M35.8,33.26a.62.62,0,0,0-.62.62l0,2.77L33.22,44l3.21,0V33.88A.62.62,0,0,0,35.8,33.26Z"/><path class="cls-1" d="M74.38,40.57l7.82-3.13-2.38-9.11-.22-.83-8.35,1.11a31.66,31.66,0,0,0-2.11-3.71l5.21-6.62L67.13,11l-6.69,5.14A32.09,32.09,0,0,0,56.76,14L58,5.61,48.06,2.9l-3.22,7.79a31.78,31.78,0,0,0-3.89,0h-.38L37.45,2.83,27.5,5.44l1.11,8.35A31.7,31.7,0,0,0,24.9,15.9l-6.62-5.21L11,17.91l5.14,6.69A32.15,32.15,0,0,0,14,28.28L5.61,27.07,2.9,37l7.79,3.22a31.66,31.66,0,0,0,0,4.27L2.83,47.59l2.6,9.94,8.35-1.11a31.66,31.66,0,0,0,2.11,3.71l-5.21,6.62,7.22,7.31,6.69-5.14a32.1,32.1,0,0,0,3.68,2.15l-1.21,8.35L37,82.14l3.22-7.79a31.67,31.67,0,0,0,4.27,0l3.13,7.82,9.94-2.6-1.11-8.35a31.69,31.69,0,0,0,3.71-2.11l6.62,5.21,7.31-7.22-5.14-6.69a32.1,32.1,0,0,0,2.15-3.68L79.43,58l2.72-9.91-7.79-3.22A31.7,31.7,0,0,0,74.38,40.57Zm-31.86-26a4.77,4.77,0,1,1-4.77,4.77A4.77,4.77,0,0,1,42.52,14.6Zm12,32.13a1.8,1.8,0,0,1-2.19-1l-3.71,1.9V67.72a2.72,2.72,0,0,1-2.9,2.72,2.78,2.78,0,0,1-2.54-2.81V48.12a.65.65,0,0,0-1.31,0v19.6A2.72,2.72,0,0,1,39,70.43a2.78,2.78,0,0,1-2.54-2.81v-20l-3.72-1.9a1.8,1.8,0,0,1-2.27.94,1.86,1.86,0,0,1-1.09-2.23l2.21-8.3,0-4A6.18,6.18,0,0,1,37.65,26h9.7a6.17,6.17,0,0,1,6.07,6.25v3.94l2.27,8.31A1.86,1.86,0,0,1,54.52,46.73Z"/></svg>