<svg id="Layer_1" data-name="Layer 1" xmlns="http://www.w3.org/2000/svg" viewBox="0 0 85.04 85.04"><defs><style>.cls-1{fill:#5a6176;}</style></defs><title>Artboard 7</title><path class="cls-1" d="M83.53,37.14v-3a.56.56,0,1,0-1.12,0v3h-3.2v-3a.56.56,0,1,0-1.12,0v3H76.7v3.05a4.16,4.16,0,0,0,3.05,4V55.7A5.81,5.81,0,0,1,74,61.5H71.16V18.7a3.2,3.2,0,0,0-6.4,0v2.62H59.85V18.7a3.2,3.2,0,0,0-6.4,0v2.62H48.54V18.7a3.2,3.2,0,0,0-3.2-3.2h0a3.2,3.2,0,0,0-3.2,3.2v2.62H37.23V18.7A3.2,3.2,0,0,0,34,15.5h0a3.2,3.2,0,0,0-3.2,3.2V66.34a3.2,3.2,0,0,0,3.2,3.2h0a3.2,3.2,0,0,0,3.2-3.2V64.7h4.91v1.64a3.2,3.2,0,0,0,3.2,3.2h0a3.2,3.2,0,0,0,3.2-3.2V64.7h4.91v1.64a3.2,3.2,0,0,0,6.4,0V64.7h4.91v1.64a3.2,3.2,0,0,0,6.4,0V63.73H74a8,8,0,0,0,8-8V44.19a4.16,4.16,0,0,0,3.05-4V37.14ZM37.23,60.53V26h4.91V60.53Zm11.31,0V26h4.91V60.53Zm11.31,0V26h4.91V60.53Z"/><path class="cls-1" d="M23.94,15.5a2,2,0,0,0-2,2v7.71l-4-4A2,2,0,1,0,15.1,24L22,30.81v8.36l-7.33-4-2.72-9.31A2,2,0,1,0,8.1,27l1.6,5.49-6.76-3.7A2,2,0,1,0,1,32.23l6.76,3.7L2.3,37.54a2,2,0,1,0,1.11,3.81l9.31-2.72,7.09,3.89-7.09,3.89L3.41,43.69A2,2,0,0,0,2.3,47.5l5.49,1.6L1,52.81a2,2,0,1,0,1.91,3.48l6.76-3.7L8.1,58.08a2,2,0,1,0,3.81,1.11l2.72-9.31,7.33-4v8.36L15.1,61.09a2,2,0,1,0,2.81,2.81l4-4v7.71a2,2,0,0,0,4,0V17.49A2,2,0,0,0,23.94,15.5Z"/></svg>