<svg id="Layer_1" data-name="Layer 1" xmlns="http://www.w3.org/2000/svg" viewBox="0 0 86 86"><defs><style>.cls-1{fill:#5a6176;}</style></defs><polygon class="cls-1" points="53.21 47.11 69.14 23.01 65.37 23.01 49.44 47.11 53.21 47.11"/><path class="cls-1" d="M59.79,41.17A6.58,6.58,0,0,0,66.69,48h0a6.61,6.61,0,0,0,6.92-6.84,6.93,6.93,0,0,0-13.85,0Z"/><path class="cls-1" d="M51.93,35.5h0a6.62,6.62,0,0,0,6.92-6.85A6.58,6.58,0,0,0,52,21.84,6.61,6.61,0,0,0,45,28.65,6.58,6.58,0,0,0,51.93,35.5Zm-3.81-4.14-.54.4.21-.64-.54-.4h.66l.21-.63.19.63H49l-.54.4.21.64Zm8.19.39-.53-.39-.54.39.21-.64-.54-.4h.67l.2-.62.19.62h.67l-.54.4Zm.94-3.3-.54.4.21.64-.53-.39-.54.39.21-.64-.54-.4h.67l.2-.62.19.62Zm-1.47-2.81.19.62h.67l-.54.4.21.64-.53-.39-.54.39.21-.64-.54-.4h.67Zm-1.83-1,.2-.62.2.62H55l-.53.4.21.64-.54-.39-.53.39.21-.64-.55-.4Zm0,7.69.2-.63.2.63H55l-.53.4.21.64-.54-.4-.53.4.21-.64-.55-.4Zm-1.46,1.62L52,33.55l-.54.39.21-.63-.54-.41h.67l.2-.62.19.62h.67l-.54.41ZM51.73,24l.2-.65.2.65h.67l-.54.42.21.66-.54-.41-.53.41.21-.66L51.07,24Zm-1.48,9.32L49.72,33l-.53.39.21-.64-.55-.4h.67l.2-.62.2.62h.66l-.53.4Zm-.75-8.72.2-.63.19.63h.67L50,25l.21.64-.53-.4-.54.4.21-.64-.54-.4Zm-1.59,1.62.21-.62.19.62H49l-.54.41.21.64-.53-.4-.54.4.21-.64-.54-.41Zm-.58,2.2.2-.63.19.63h.67l-.54.4.21.64-.53-.4-.54.4.21-.64-.54-.4Z"/><path class="cls-1" d="M5.79,16.88V52.52h7.58l-7.58,6.3V74.19l17.29,1.37a33.89,33.89,0,0,0,17.6-3.38l3.45-1.69A44.8,44.8,0,0,0,61.74,54.94l1.6-2.42H80.21V16.88Zm72,33.22H38.6L48.46,43a4.58,4.58,0,0,0-4.4-8L30.19,40.68a36.19,36.19,0,0,0-3.44,1.65,9.12,9.12,0,0,1-1.85.2,6.89,6.89,0,0,1-5-1.89,6,6,0,0,1-1.53-3h10V35.53H18V35A6.29,6.29,0,0,1,18,33.8H28.35V31.71H18.49A6.54,6.54,0,0,1,20,28.82a6.3,6.3,0,0,1,4.75-2,9.84,9.84,0,0,1,4.18,1l.9-3.12a13,13,0,0,0-5.35-1.12,10.5,10.5,0,0,0-10.39,8.13H11.75V33.8h2c0,.4-.07.8-.07,1.2v.53h-2v2.09H14a9.61,9.61,0,0,0,2.09,4.55,10,10,0,0,0,5.63,3.47c-.27.21-.54.4-.8.61L16.27,50.1H8.21V19.3H77.79Z"/></svg>