<?xml version="1.0" encoding="UTF-8" standalone="no"?>
<svg
   xmlns:dc="http://purl.org/dc/elements/1.1/"
   xmlns:cc="http://creativecommons.org/ns#"
   xmlns:rdf="http://www.w3.org/1999/02/22-rdf-syntax-ns#"
   xmlns:svg="http://www.w3.org/2000/svg"
   xmlns="http://www.w3.org/2000/svg"
   xmlns:sodipodi="http://sodipodi.sourceforge.net/DTD/sodipodi-0.dtd"
   xmlns:inkscape="http://www.inkscape.org/namespaces/inkscape"
   id="Layer_1"
   data-name="Layer 1"
   viewBox="0 0 85.04 85.04"
   version="1.1"
   sodipodi:docname="SDG5_6.svg"
   inkscape:version="0.92.3 (2405546, 2018-03-11)">
  <metadata
     id="metadata29">
    <rdf:RDF>
      <cc:Work
         rdf:about="">
        <dc:format>image/svg+xml</dc:format>
        <dc:type
           rdf:resource="http://purl.org/dc/dcmitype/StillImage" />
        <dc:title>Artboard 33 copy 15</dc:title>
      </cc:Work>
    </rdf:RDF>
  </metadata>
  <sodipodi:namedview
     pagecolor="#ffffff"
     bordercolor="#666666"
     borderopacity="1"
     objecttolerance="10"
     gridtolerance="10"
     guidetolerance="10"
     inkscape:pageopacity="0"
     inkscape:pageshadow="2"
     inkscape:window-width="640"
     inkscape:window-height="480"
     id="namedview27"
     showgrid="false"
     inkscape:zoom="2.7751646"
     inkscape:cx="42.52"
     inkscape:cy="42.52"
     inkscape:window-x="0"
     inkscape:window-y="0"
     inkscape:window-maximized="0"
     inkscape:current-layer="Layer_1" />
  <defs
     id="defs4">
    <style
       id="style2">.cls-1{fill:#5a6176;}</style>
  </defs>
  <title
     id="title6">Artboard 33 copy 15</title>
  <path
     class="cls-1"
     d="M48,12.44a5.84,5.84,0,1,0-5.84,5.84A5.85,5.85,0,0,0,48,12.44"
     id="path8" />
  <path
     class="cls-1"
     d="M13.29,75.78c0-4.25-4.9-7.36-9.36-4-3.39,4.46-.29,9.36,4,9.36a5.4,5.4,0,0,0,5.4-5.4"
     id="path10" />
  <path
     class="cls-1"
     d="M47.58,75.78c0-4.25-4.9-7.36-9.36-4-3.39,4.46-.29,9.36,4,9.36a5.4,5.4,0,0,0,5.4-5.4"
     id="path12" />
  <path
     class="cls-1"
     d="M81.86,75.78c0-4.25-4.9-7.36-9.36-4-3.39,4.46-.29,9.36,4,9.36a5.4,5.4,0,0,0,5.4-5.4"
     id="path14" />
  <path
     class="cls-1"
     d="M58.8,41.49,53.95,25.67s-1.73-4.57-5.58-4.57H46.81L42.18,32.59,37.54,21.1H36c-3.84,0-5.58,4.57-5.58,4.57L25.55,41.49s-.87,2.9,1.59,3.62S30.33,43,30.33,43l3.92-13.2s.21-1,1-.8.48,1.3.48,1.3L28.88,55H55.47L48.66,30.32s-.29-1.09.47-1.3,1,.8,1,.8L54,43s.75,2.83,3.19,2.11S58.8,41.49,58.8,41.49Z"
     id="path16" />
  <polygon
     class="cls-1"
     points="44.81 32.71 42.64 24.39 43.88 21.1 40.47 21.1 41.71 24.39 39.54 32.71 44.81 32.71"
     id="polygon18" />
  <rect
     class="cls-1"
     x="40.67"
     y="59.67"
     width="3.01"
     height="13.39"
     id="rect20" />
  <polygon
     class="cls-1"
     points="77.82 71.77 74.81 71.77 74.81 61.5 9.4 61.5 9.4 71.77 6.39 71.77 6.39 58.49 77.82 58.49 77.82 71.77"
     id="polygon22" />
  <circle
     class="cls-1"
     cx="42.18"
     cy="6.27"
     r="2.42"
     id="circle24" />
</svg>
