<svg id="Layer_1" data-name="Layer 1" xmlns="http://www.w3.org/2000/svg" viewBox="0 0 85.04 85.04"><defs><style>.cls-1{fill:#5a6176;}</style></defs><title>Artboard 33 copy 9</title><path class="cls-1" d="M55.16,65l.3-.42.25-.35.55-2A49.85,49.85,0,0,0,40.91,64.1c0-14.48,0-21.84,0-36.32A48.86,48.86,0,0,1,64.44,27a7.18,7.18,0,0,1,2.21-2.18,47.8,47.8,0,0,0-27.26.76,48.12,48.12,0,0,0-31.06.39V28.5H6.44V67.87H35.55v1.61h7.79V67.87H53.1ZM11,27.78a49.11,49.11,0,0,1,26.86,0c0,14.48,0,21.84,0,36.32A49.11,49.11,0,0,0,11,64.1C11,49.62,11,42.26,11,27.78Z"/><path class="cls-1" d="M34.81,35V32.22a51.4,51.4,0,0,0-20.72,0V35A51.4,51.4,0,0,1,34.81,35Z"/><path class="cls-1" d="M34.81,39.76V37A51.4,51.4,0,0,0,14.1,37v2.76A51.4,51.4,0,0,1,34.81,39.76Z"/><path class="cls-1" d="M34.81,44.53V41.78a51.4,51.4,0,0,0-20.72,0v2.76A51.4,51.4,0,0,1,34.81,44.53Z"/><path class="cls-1" d="M34.81,49.31c0-1.1,0-1.65,0-2.76a51.4,51.4,0,0,0-20.72,0v2.76A51.4,51.4,0,0,1,34.81,49.31Z"/><path class="cls-1" d="M34.81,54.09V51.33a51.4,51.4,0,0,0-20.72,0v2.76A51.4,51.4,0,0,1,34.81,54.09Z"/><path class="cls-1" d="M34.81,58.86c0-1.1,0-1.65,0-2.76a51.4,51.4,0,0,0-20.72,0v2.76A51.4,51.4,0,0,1,34.81,58.86Z"/><path class="cls-1" d="M63.39,32A51.24,51.24,0,0,0,44,32.22V35a51.39,51.39,0,0,1,20.64,0A7.08,7.08,0,0,1,63.39,32Z"/><path class="cls-1" d="M55.65,38.72a10.53,10.53,0,0,1,5.07-2.37A51.19,51.19,0,0,0,44,37v2.76A52.16,52.16,0,0,1,55.65,38.72Z"/><path class="cls-1" d="M44,44.53a53.54,53.54,0,0,1,8.44-1l.23-.59a10.65,10.65,0,0,1,1.18-2.21,52.86,52.86,0,0,0-9.85,1Z"/><path class="cls-1" d="M44,49.31a54.68,54.68,0,0,1,6.54-.91l1.1-2.83a54,54,0,0,0-7.64,1Z"/><path class="cls-1" d="M44,54.09a55,55,0,0,1,5.92-.85,4.42,4.42,0,0,1,0-2.76,55.06,55.06,0,0,0-5.91.85Z"/><path class="cls-1" d="M44,58.86a51.64,51.64,0,0,1,13.51-1l.31-1.09.07-.36,0-.17-3.84,0a4.43,4.43,0,0,1-2.89-1.11,54.24,54.24,0,0,0-7.19,1Z"/><polygon class="cls-1" points="76.16 24.91 76.16 16.59 39.57 0.83 2.97 16.59 2.97 24.91 39.57 9.16 76.16 24.91"/><path class="cls-1" d="M82.06,58.22A1.79,1.79,0,0,0,81.41,57l-8.1-6.65-.95-2.77L70.46,42l-.67-2,.67-.23.77-.26,1.13,3.29,1.47,4.28.71-3.42a5.43,5.43,0,0,0-5.32-6.54H68.16l-.39,0-.42.06A4.57,4.57,0,0,0,64.7,38.8l-.08.1,0,.05a4.54,4.54,0,0,0-.45.7,4.49,4.49,0,0,0-.41,1.15l-.16.76-.46,2.19-.1.47-.41,2L62,48.84l-.41,2-.56,2.68-.41,2-.18.87-.09.41h0l0,.27L60,58.14l-1.21,4.31-.61,2.15-.16.56-.07.23-1.79,2.47L48.32,78.75a2.76,2.76,0,0,0,2.23,4.38A2.77,2.77,0,0,0,52.79,82L63,67.87l0-.06.52-1.87L64,64.6l.37-1.32,1.84-6.59L67.77,60l1.41,2.94,1.12,2.34.15,1.63.09,1L71.86,81.7a2.76,2.76,0,0,0,5.5-.52L75.7,63.74l-3.35-7L72,56v-.07l-1.53-1.26-1.28-1-.26-.22-1.15-3.35-2.85-8.32,1.45-.49,1.4,4.1,1.41,4.12,1,3,.24.19,1.9,1.56,6.76,5.55a1.81,1.81,0,0,0,2.94-1.57Z"/><path class="cls-1" d="M58.84,53.79l.12-.54.62-2.7.46-2,.62-2.69.13-.54.2-.87-.71.46c-.35.21-.69.42-1,.62l-.3.15a27.48,27.48,0,0,1-5.36,2.21l-.13.34-.14.37-.65,1.67-.32.83a1.89,1.89,0,0,0,.2,1.77l.12.16a1.88,1.88,0,0,0,1.45.68l4.34,0Z"/><path class="cls-1" d="M61.64,41.25l.08-.34.37-1.59v0L62,38.72l-.26,0h-.07a8.14,8.14,0,0,0-1.47.29,8,8,0,0,0-5.07,4.44c-.05.12-.11.24-.15.36l-.42,1.08-.22.57-.06.17.44-.16a25.73,25.73,0,0,0,3.76-1.71l.21-.12a24.85,24.85,0,0,0,2.13-1.37l.69-.51Z"/><path class="cls-1" d="M70.43,26.22a4.61,4.61,0,0,0-2.65,8.38l.11.08a4.67,4.67,0,0,0,2.54.77h0A4.58,4.58,0,0,0,72,35.17l.36-.15a4.61,4.61,0,0,0-1.9-8.79Z"/></svg>