<svg id="Layer_1" data-name="Layer 1" xmlns="http://www.w3.org/2000/svg" viewBox="0 0 85.04 85.04"><defs><style>.cls-1{fill:#5a6176;}</style></defs><title>Artboard 27</title><circle class="cls-1" cx="42.52" cy="25.38" r="9.82"/><path class="cls-1" d="M75,3.33a3.8,3.8,0,0,0-5.27,1.61L55.39,33.74a9.24,9.24,0,0,1-8.27,5.12H38a9.24,9.24,0,0,1-8.27-5.12L15.35,4.94A3.8,3.8,0,0,0,9.62,3.63a3.89,3.89,0,0,0-1,4.82l9.45,19A105.32,105.32,0,0,1,28.79,66.52L30,82.21H55.15l1.18-15.8A105.32,105.32,0,0,1,67.06,27.33L76.42,8.52A3.94,3.94,0,0,0,75,3.33ZM51.45,51.69l-8.93,8.93-8.93-8.93a4.86,4.86,0,0,1,6.87-6.87l2.06,2.06,2.06-2.06a4.86,4.86,0,0,1,6.87,6.87Z"/><path class="cls-1" d="M44.08,54.51a2.33,2.33,0,0,1-3.3,0l-2.13-2.13a1.46,1.46,0,1,1,2.06-2.06L42.44,52l4.46-4.46A1.46,1.46,0,0,1,49,49.63Z"/></svg>