<svg id="Layer_1" data-name="Layer 1" xmlns="http://www.w3.org/2000/svg" viewBox="0 0 85.04 85.04"><defs><style>.cls-1{fill:#5a6176;}</style></defs><title>Artboard 33 copy 25</title><path class="cls-1" d="M69.09,61.19A8.82,8.82,0,0,1,60.28,70H38.45a8.82,8.82,0,0,1-8.81-8.81V59.75a24.39,24.39,0,1,0-3.34,0v1.44A12.17,12.17,0,0,0,38.45,73.35H60.28A12.17,12.17,0,0,0,72.44,61.19V50.55H69.09ZM18.3,37.09h8v6.53a39.45,39.45,0,0,0-7.06.9A40.22,40.22,0,0,1,18.3,37.09Zm.93-10.77a39.45,39.45,0,0,0,7.06.9v6.53h-8A40.21,40.21,0,0,1,19.23,26.32Zm18.4,7.43h-8V27.22a39.46,39.46,0,0,0,7.06-.9A40.21,40.21,0,0,1,37.63,33.74ZM36.7,44.51a39.46,39.46,0,0,0-7.06-.9V38.55h0V37.09h8A40.22,40.22,0,0,1,36.7,44.51ZM29.64,56.14V47a35.81,35.81,0,0,1,6.15.8C34.26,52.19,32,55.16,29.64,56.14Zm0-32.27V14.69c2.35,1,4.63,4,6.15,8.38A35.81,35.81,0,0,1,29.64,23.87Zm-3.34-9.18v9.18a35.8,35.8,0,0,1-6.15-.8C21.67,18.64,23.94,15.67,26.29,14.69Zm0,32.27v9.18c-2.35-1-4.63-4-6.15-8.38A35.81,35.81,0,0,1,26.29,47Zm9.58,8A24.44,24.44,0,0,0,39,48.65a24.93,24.93,0,0,1,3.89,1.66A21.15,21.15,0,0,1,35.87,54.95Zm9.21-7.27a27.06,27.06,0,0,0-5.17-2.3A43.31,43.31,0,0,0,41,37.09h8A20.93,20.93,0,0,1,45.08,47.68ZM49,33.74H41a43.31,43.31,0,0,0-1.06-8.3,27.06,27.06,0,0,0,5.17-2.3A20.93,20.93,0,0,1,49,33.74ZM42.87,20.52A24.94,24.94,0,0,1,39,22.18a24.44,24.44,0,0,0-3.11-6.3A21.15,21.15,0,0,1,42.87,20.52ZM20.06,15.88a24.44,24.44,0,0,0-3.11,6.3,24.93,24.93,0,0,1-3.89-1.66A21.15,21.15,0,0,1,20.06,15.88Zm-9.21,7.26A27.06,27.06,0,0,0,16,25.44,43.31,43.31,0,0,0,15,33.74H7A20.93,20.93,0,0,1,10.85,23.15ZM7,37.09h8A43.31,43.31,0,0,0,16,45.38a27.06,27.06,0,0,0-5.17,2.3A20.93,20.93,0,0,1,7,37.09Zm6.09,13.22a24.93,24.93,0,0,1,3.89-1.66,24.44,24.44,0,0,0,3.11,6.3A21.15,21.15,0,0,1,13.06,50.31Z"/><path class="cls-1" d="M59.61,27.37v4.81l2.87,1.18v4.91A6.79,6.79,0,0,0,65,43.51l1.42,1.17V47l2,2h5.07l2-2V44.68l1.42-1.17a6.79,6.79,0,0,0,2.47-5.24V33.37l2.87-1.18V27.37Z"/><path class="cls-1" d="M68.15,18a2.67,2.67,0,0,0-3.79,0v7.86h3.79Z"/><path class="cls-1" d="M77.49,18a2.67,2.67,0,0,0-3.79,0v7.86h3.79Z"/></svg>