<svg id="Layer_1" data-name="Layer 1" xmlns="http://www.w3.org/2000/svg" viewBox="0 0 85.04 85.04"><defs><style>.cls-1{fill:#5a6176;}</style></defs><title>Artboard 33 copy 28</title><circle class="cls-1" cx="20.09" cy="13.12" r="4.7"/><path class="cls-1" d="M26.07,61.21V27.66c0-.36.13-.92.66-.92.77,0,.89.57.89,1V38.92a1.82,1.82,0,0,0,3.64,0v-13a6.27,6.27,0,0,0-5.69-6.24,2.8,2.8,0,0,0-.36,0H14.94a2.6,2.6,0,0,0-.34,0,6.27,6.27,0,0,0-5.7,6.24v13H8A1.49,1.49,0,0,0,6.6,40a1.47,1.47,0,0,0-.06.4v.69H2.74A1.32,1.32,0,0,0,1.42,42.4v3.35a35.87,35.87,0,0,0,9.17,1.11c1.21,0,2.38-.05,3.51-.15a33.28,33.28,0,0,0,5.24-.85l.43-.11V42.4a1.33,1.33,0,0,0-1.32-1.32h-3.8v-.69a1.51,1.51,0,0,0-1.49-1.49h-.6V27.72a.88.88,0,0,1,.55-.93,1.1,1.1,0,0,1,.34-.05c.53,0,.64.56.66.92V38a2.57,2.57,0,0,1,1.59,2h2.76a2.42,2.42,0,0,1,2.4,2.33s0,0,0,.07V52.61s0,0,0,.07v8.53a2.62,2.62,0,0,0,5.24,0ZM13.15,39.91a.47.47,0,0,1,.26.09.48.48,0,0,1,.22.4v.69H7.54v-.69a.48.48,0,0,1,.22-.4A.47.47,0,0,1,8,39.91H9.2l.07.09a1.81,1.81,0,0,0,2.92,0l.07-.09Z"/><path class="cls-1" d="M14.09,55v6.2a2.62,2.62,0,1,0,5.24,0V54.84a2.38,2.38,0,0,1-.89.18Z"/><path class="cls-1" d="M14.09,48l-1.46.1v1a.66.66,0,0,1,0,.1.69.69,0,0,1-.68.6H9.65A.69.69,0,0,1,9,49.19a.66.66,0,0,1,0-.11v-1A34.56,34.56,0,0,1,1.42,47v5.57a1.32,1.32,0,0,0,1.32,1.32h15.7a1.33,1.33,0,0,0,1.32-1.32V47l-.43.11A33.28,33.28,0,0,1,14.09,48Z"/><polygon class="cls-1" points="49.22 10.81 24.11 75.75 34.26 75.75 59.37 10.81 49.22 10.81"/><path class="cls-1" d="M65,39.79c-11.82,0-18.67,8.58-18.67,18.38,0,10.09,6.92,18.45,18.6,18.45H65c11.82,0,18.67-8.58,18.67-18.45S76.7,39.79,65,39.79ZM65,69.92H65c-6,0-9.73-4.76-9.73-11.75S59,46.49,65,46.49s9.73,4.76,9.73,11.68S70.94,69.92,65,69.92Z"/></svg>