<svg id="Layer_1" data-name="Layer 1" xmlns="http://www.w3.org/2000/svg" viewBox="0 0 85.04 85.04"><defs><style>.cls-1{fill:#5a6176;}</style></defs><title>Artboard 33 copy 31</title><path class="cls-1" d="M69.19,34.54V12.72a1.35,1.35,0,0,0-.5-2.61H57.19a1.35,1.35,0,0,0-.5,2.61V34.54a20.68,20.68,0,1,0,12.49,0ZM62.45,68.88a14.62,14.62,0,0,1-13.5-9l8.83-1.17a8.25,8.25,0,0,1-.78-.84,8.39,8.39,0,0,1-1.83-4h-2V52h1.74v-.46c0-.35,0-.7.06-1H53.22V48.71h2.06a9.21,9.21,0,0,1,9.09-7.11,11.2,11.2,0,0,1,4.67,1l-.28,1-.51,1.76a8.51,8.51,0,0,0-3.66-.84,5.49,5.49,0,0,0-4.15,1.71,5.71,5.71,0,0,0-1.34,2.53h8.62v1.83h-9a5.79,5.79,0,0,0-.06,1V52h9.09v1.83H59a5.2,5.2,0,0,0,1.34,2.64A5.59,5.59,0,0,0,63.12,58l5.31-.7.09,0v0l8.41-1.11A14.61,14.61,0,0,1,62.45,68.88Z"/><path class="cls-1" d="M30.42,41.31a19.28,19.28,0,0,1-1.64-7.79V12.72a1.35,1.35,0,0,0-.51-2.61H16.78a1.35,1.35,0,0,0-.49,2.62v20.8a19.28,19.28,0,0,1-1.64,7.79l-13,29.4a3,3,0,0,0,2.75,4.23H40.65a3,3,0,0,0,2.75-4.23Zm4.77,29H9.89a2.1,2.1,0,0,1-1.92-3l7.77-17.61H29.34l7.77,17.61A2.1,2.1,0,0,1,35.19,70.34Z"/><circle class="cls-1" cx="26.53" cy="66.72" r="2.15"/><circle class="cls-1" cx="21.17" cy="62.52" r="2.15"/><circle class="cls-1" cx="13.27" cy="67.49" r="2.15"/><circle class="cls-1" cx="26.06" cy="57.24" r="2.15"/><circle class="cls-1" cx="19.59" cy="52.93" r="2.15"/></svg>