<svg id="Layer_1" data-name="Layer 1" xmlns="http://www.w3.org/2000/svg" viewBox="0 0 85.04 85.04"><defs><style>.cls-1{fill:#5a6176;}</style></defs><title>Artboard 22</title><path class="cls-1" d="M19.12,47.25H12.53v-9L7.09,29.73l1.43-.91,4,6.31V35l1.92,3.13A4,4,0,0,0,17.86,40H29.6a2.36,2.36,0,1,0,0-4.72H18.26l-5.89-9.6a3.7,3.7,0,0,0-3.15-1.76H3.72A3.67,3.67,0,0,0,.05,27.6V49.66a4.56,4.56,0,0,0,4.56,4.56H15.83V68.9a3.48,3.48,0,1,0,7,0v-18A3.68,3.68,0,0,0,19.12,47.25Z"/><circle class="cls-1" cx="6.1" cy="15.91" r="6.1"/><path class="cls-1" d="M81.32,23.93H75.83a3.7,3.7,0,0,0-3.15,1.76l-5.89,9.6H55.44a2.36,2.36,0,1,0,0,4.72H67.18a4,4,0,0,0,3.41-1.91L72.51,35v.16l4-6.31,1.43.91L72.51,38.3v9H65.92a3.68,3.68,0,0,0-3.68,3.68v18a3.48,3.48,0,0,0,7,0V54.22H80.43A4.56,4.56,0,0,0,85,49.66V27.6A3.67,3.67,0,0,0,81.32,23.93Z"/><circle class="cls-1" cx="78.94" cy="15.91" r="6.1"/><rect class="cls-1" x="14.45" y="41.94" width="56.46" height="2.92"/><polygon class="cls-1" points="26.22 48.06 26.22 52.95 53.92 48.06 26.22 48.06"/><polygon class="cls-1" points="26.22 54.16 25.62 54.26 25.13 54.35 25.62 57.14 25.95 59.01 26.22 58.91 37.42 54.84 40.92 53.56 45.53 51.88 46.1 51.67 49.5 50.44 49.83 50.31 51.56 49.69 46.41 50.6 39.73 51.77 26.22 54.16"/><path class="cls-1" d="M59.42,61.34l-.05-.15-.59-1.63-2.53-7-.83-2.29-.25-.67-1.85.67L49.5,51.7l-4.18,1.52L43.17,54l-4,1.45-.81.29-.44.16-.55.2-7.66,2.79-1.61.59-1.91.7-.06,0-.54.2h0l-.57.21h0l-.46.17L25,62l.48,1.33.11.3.13.36.22.59.71,2L28,70.06l.21.57,1.67,4.59,26-9.48,3.08-1.12.14-.05.89-.32.46-.17L60,62.83Zm-10.65-7,4.63-1.69.14-.05,0,.05L54,53.93l.33.91L48,57.14l-.81-2.22ZM38.23,62.13a5.72,5.72,0,0,1,0-1.06A5.17,5.17,0,0,1,38.42,60l0-.12a4.83,4.83,0,0,1,.17-.47,5.31,5.31,0,0,1,.47-.83,5.17,5.17,0,0,1,1.5-1.45l.14-.09.12-.06a5.64,5.64,0,0,1,.84-.4,6.38,6.38,0,0,1,2.69-.38l.05.78v0l.06.81a4.85,4.85,0,0,0-2.12.26,3.54,3.54,0,0,0-.85.46l-.08.06a3,3,0,0,0-.86,1c0,.06-.07.12-.1.18a2.23,2.23,0,0,0-.1.27,3.55,3.55,0,0,0-.13,1.34l.91-.33.67-.24,2.05-.75,1-.36.06.17.29.81-1.07.39-2.26.82-1.5.55a3.3,3.3,0,0,0,.17.56l.1.26,2.37-.86,2.49-.91.2.56.15.42-2.67,1-1.4.51L41.6,64l-.36.13a3.6,3.6,0,0,0,.35.46,2.71,2.71,0,0,0,.88.69,3.43,3.43,0,0,0,2.65,0,4.8,4.8,0,0,0,1.29-.73,4.46,4.46,0,0,0,.57-.51l.35.51.52.76a4.35,4.35,0,0,1-.69.69,5.74,5.74,0,0,1-1.44.86l-.26.11a5.63,5.63,0,0,1-2.32.34A4.91,4.91,0,0,1,41.65,67a4.71,4.71,0,0,1-.73-.36,4.78,4.78,0,0,1-1.75-1.77l-1.06.38-.25-.67-.11-.31.8-.29.14,0-.09-.25c0-.1-.06-.2-.09-.3l-.08-.28-.76.28-.19.07,0-.07-.33-.91Zm-1,8.08-6.33,2.31-.81-2.22h0l3.22-1.17L36.41,68l.2.55.21.57Z"/></svg>