<svg id="Layer_1" data-name="Layer 1" xmlns="http://www.w3.org/2000/svg" viewBox="0 0 85.04 85.04"><defs><style>.cls-1{fill:#5a6176;}</style></defs><title>Artboard 18</title><path class="cls-1" d="M51.11,44.69V16.2a3,3,0,0,0,2.67-3v-2.7a3,3,0,0,0-2.67-3V6a1.22,1.22,0,0,0-1.22-1.22h-1.4A1.22,1.22,0,0,0,47.27,6V44.69H12.48V6a1.22,1.22,0,0,0-1.22-1.22H9.86A1.22,1.22,0,0,0,8.64,6V7.58a3,3,0,0,0-2.76,3v2.7a3,3,0,0,0,2.76,3V44.69a3,3,0,0,0-3,3V80.22H54.08V47.7A3,3,0,0,0,51.11,44.69Z"/><rect class="cls-1" x="33.22" y="6.74" width="11.57" height="10.29"/><path class="cls-1" d="M67.49,23.38a.31.31,0,0,1-.31-.31V14.42a3.92,3.92,0,0,0-3.92-3.92H55.88v3.6h7.38a.32.32,0,0,1,.31.31v8.65A3.92,3.92,0,0,0,67.49,27H79.37v-3.6Z"/><path class="cls-1" d="M29.87,25a1.29,1.29,0,0,0,1.29-1.29V6.43a1.29,1.29,0,0,0-2.57,0V23.72A1.29,1.29,0,0,0,29.87,25Z"/><path class="cls-1" d="M25.26,19.72a1.29,1.29,0,0,0,1.29-1.29v-12a1.29,1.29,0,0,0-2.57,0v12A1.29,1.29,0,0,0,25.26,19.72Z"/><path class="cls-1" d="M20.64,19.72a1.29,1.29,0,0,0,1.29-1.29v-12a1.29,1.29,0,0,0-2.57,0v12A1.29,1.29,0,0,0,20.64,19.72Z"/><path class="cls-1" d="M16,19.72a1.29,1.29,0,0,0,1.29-1.29v-12a1.29,1.29,0,0,0-2.57,0v12A1.29,1.29,0,0,0,16,19.72Z"/><path class="cls-1" d="M22.86,32.31l1,10.11H35.59l1-10.11a2,2,0,0,0,.76-1.57H22.1A2,2,0,0,0,22.86,32.31Z"/><path class="cls-1" d="M38.14,31.78h1a9.3,9.3,0,0,0-7-9v.93s0,.09,0,.13A8.27,8.27,0,0,1,38.14,31.78Z"/><path class="cls-1" d="M27.57,23.85s0-.09,0-.13v-.93a9.3,9.3,0,0,0-7,9h1A8.27,8.27,0,0,1,27.57,23.85Z"/></svg>