<svg id="Layer_1" data-name="Layer 1" xmlns="http://www.w3.org/2000/svg" viewBox="0 0 85.04 85.04"><defs><style>.cls-1{fill:#5a6176;}</style></defs><title>Artboard 8</title><path class="cls-1" d="M33,14.14l6.85,1.54-8.74,20H33l8.57-19.63.7-1.59.68-1.56,6.37,2.78L49.1,16l-1,1.52L42.41,26a5.79,5.79,0,0,1,1.85.3l5.61-8.35,1-1.52,0,0,1-1.44,1.21-1.8L63,19.8l2,1.31,6.18,4.15-7,10.42h.6a10.39,10.39,0,0,1,1.39.1l7.39-11-20.88-14-2.34,3.48-8.21-3.59-1.5,3.43-8.84-2-5.3,23.59h1.75Z"/><path class="cls-1" d="M53.69,35.41l.89-1.32a7.17,7.17,0,0,0,2.58.6,5.86,5.86,0,0,0,.91,0,6.66,6.66,0,0,0,1-.18,7.94,7.94,0,0,0,5.79-7.09l-2.05-.73a7,7,0,0,1-1.09,3,5.65,5.65,0,0,1-1,1.13,4.46,4.46,0,0,1-2.05,1l-.28,0a4.32,4.32,0,0,1-2.09-.33l3.92-5.83L59,24.84l-4.09,6.09-.33-.22a4.66,4.66,0,0,1-.65-.5l4.06-6-1.23-.82-2.69,4L52.9,29.11a5.7,5.7,0,0,1-.72-1,3.61,3.61,0,0,1-.37-1,4.43,4.43,0,0,1,.72-3.55,7.32,7.32,0,0,1,2.21-2.07l-.85-1-.62-.74a9,9,0,0,0-2.77,2.69,7.4,7.4,0,0,0,.67,9.29l-.93,1.38.7.47.52.35.8-1.19.53.4.15.11.31.21-.78,1.17Z"/><path class="cls-1" d="M74.55,64.74,72,57.92A4.6,4.6,0,0,1,71,58a4.83,4.83,0,0,1-4.82-4.82V46.09a1.5,1.5,0,0,0-1.5-1.5H20.3a1.5,1.5,0,0,0-1.5,1.5V53.2A4.82,4.82,0,0,1,13,57.92l-2.53,6.82a7.15,7.15,0,0,0,6.7,9.64H67.85a7.15,7.15,0,0,0,6.7-9.64Z"/><path class="cls-1" d="M13.17,55.38A2.31,2.31,0,0,0,16.3,53.2V46.09a4,4,0,0,1,4-4H64.72a4,4,0,0,1,4,4V53.2a2.33,2.33,0,0,0,4.66,0V46.09A8.66,8.66,0,0,0,65,37.45H40l.2-.24,1.19-1.44a4.09,4.09,0,0,0,2.25-.07l.11,0a4.08,4.08,0,1,0-5-2.11L37.53,35l-.6.72L35.5,37.43H20.3a8.66,8.66,0,0,0-8.65,8.65V53.2A2.32,2.32,0,0,0,13.17,55.38Z"/></svg>