<?xml version="1.0" encoding="UTF-8" standalone="no"?>
<svg
   xmlns:dc="http://purl.org/dc/elements/1.1/"
   xmlns:cc="http://creativecommons.org/ns#"
   xmlns:rdf="http://www.w3.org/1999/02/22-rdf-syntax-ns#"
   xmlns:svg="http://www.w3.org/2000/svg"
   xmlns="http://www.w3.org/2000/svg"
   xmlns:sodipodi="http://sodipodi.sourceforge.net/DTD/sodipodi-0.dtd"
   xmlns:inkscape="http://www.inkscape.org/namespaces/inkscape"
   id="Layer_1"
   data-name="Layer 1"
   viewBox="0 0 85.04 85.04"
   version="1.1"
   sodipodi:docname="SDG5_4.svg"
   inkscape:version="0.92.3 (2405546, 2018-03-11)">
  <metadata
     id="metadata23">
    <rdf:RDF>
      <cc:Work
         rdf:about="">
        <dc:format>image/svg+xml</dc:format>
        <dc:type
           rdf:resource="http://purl.org/dc/dcmitype/StillImage" />
        <dc:title>Artboard 33 copy 8</dc:title>
      </cc:Work>
    </rdf:RDF>
  </metadata>
  <sodipodi:namedview
     pagecolor="#ffffff"
     bordercolor="#666666"
     borderopacity="1"
     objecttolerance="10"
     gridtolerance="10"
     guidetolerance="10"
     inkscape:pageopacity="0"
     inkscape:pageshadow="2"
     inkscape:window-width="640"
     inkscape:window-height="480"
     id="namedview21"
     showgrid="false"
     inkscape:zoom="2.7751646"
     inkscape:cx="42.52"
     inkscape:cy="42.52"
     inkscape:window-x="0"
     inkscape:window-y="0"
     inkscape:window-maximized="0"
     inkscape:current-layer="Layer_1" />
  <defs
     id="defs4">
    <style
       id="style2">.cls-1{fill:#5a6176;}</style>
  </defs>
  <title
     id="title6">Artboard 33 copy 8</title>
  <rect
     class="cls-1"
     x="12.39"
     y="70.77"
     width="19.84"
     height="6"
     id="rect8" />
  <rect
     class="cls-1"
     x="19.31"
     y="63.84"
     width="6"
     height="19.84"
     id="rect10" />
  <polygon
     class="cls-1"
     points="81.41 22.87 75.41 22.87 75.41 10.03 62.57 10.03 62.57 4.03 81.41 4.03 81.41 22.87"
     id="polygon12" />
  <rect
     class="cls-1"
     x="61.46"
     y="11.06"
     width="19.84"
     height="6"
     transform="translate(10.97 54.59) rotate(-45)"
     id="rect14" />
  <path
     class="cls-1"
     d="M36.75,50.53A14.58,14.58,0,0,0,36.66,49L41,47l-1.5-4.6-4.67,1A14.46,14.46,0,0,0,33,40.86l2.35-4.15-3.92-2.85-3.22,3.52a14.3,14.3,0,0,0-3-1l-.54-4.73H19.89l-.54,4.73a14.3,14.3,0,0,0-3,1l-3.22-3.52L9.27,36.7l2.35,4.15a14.45,14.45,0,0,0-1.83,2.5l-4.67-1L3.63,47,8,49a14,14,0,0,0,0,3.11l-4.33,2,1.5,4.6,4.67-1a14.46,14.46,0,0,0,1.83,2.5L9.27,64.37l3.92,2.85,3.22-3.52a14.3,14.3,0,0,0,3,1l.54,4.73h4.84l.54-4.73a14.3,14.3,0,0,0,3-1l3.22,3.52,3.92-2.85L33,60.21a14.46,14.46,0,0,0,1.83-2.5l4.67,1,1.5-4.6-4.33-2A14.58,14.58,0,0,0,36.75,50.53ZM22.31,59a8.5,8.5,0,1,1,8.5-8.5A8.5,8.5,0,0,1,22.31,59Z"
     id="path16" />
  <path
     class="cls-1"
     d="M70.88,32.52A14.58,14.58,0,0,0,70.79,31l4.33-2-1.5-4.6-4.67,1a14.46,14.46,0,0,0-1.83-2.5l2.35-4.15-3.92-2.85-3.22,3.52a14.3,14.3,0,0,0-3-1l-.54-4.73H54l-.54,4.73a14.3,14.3,0,0,0-3,1l-3.22-3.52L43.4,18.68l2.35,4.15a14.45,14.45,0,0,0-1.83,2.5l-4.67-1L37.76,29l4.33,2a14,14,0,0,0,0,3.11l-4.33,2,1.5,4.6,4.67-1a14.46,14.46,0,0,0,1.83,2.5L43.4,46.35l3.92,2.85,3.22-3.52a14.3,14.3,0,0,0,3,1L54,51.37h4.84l.54-4.73a14.3,14.3,0,0,0,3-1l3.22,3.52,3.92-2.85-2.35-4.15A14.46,14.46,0,0,0,69,39.69l4.67,1,1.5-4.6-4.33-2A14.58,14.58,0,0,0,70.88,32.52ZM56.44,41a8.5,8.5,0,1,1,8.5-8.5A8.5,8.5,0,0,1,56.44,41Z"
     id="path18" />
</svg>
