<svg id="Layer_1" data-name="Layer 1" xmlns="http://www.w3.org/2000/svg" viewBox="0 0 85.04 85.04"><defs><style>.cls-1{fill:#5a6176;}</style></defs><title>Artboard 33 copy 24</title><path class="cls-1" d="M30.68,27.3A4.7,4.7,0,0,1,28.93,27l-.86,34,1.15.53L31,57.64a.51.51,0,0,1,.16-.36l1.85-4a.55.55,0,0,1,0-.2.53.53,0,0,1,.07-.09l-.68-26A4.7,4.7,0,0,1,30.68,27.3Z"/><path class="cls-1" d="M30.68,17.82a4.69,4.69,0,0,1,1.7.33,45.76,45.76,0,0,0,.59-8A25.42,25.42,0,0,0,31.9,2.42c-.26-.8-.59-1.57-.93-2.34a.15.15,0,0,0,0-.06.15.15,0,0,0-.09,0h-.42a.12.12,0,0,0,0,.06c-.33.77-.67,1.55-.93,2.35a25.42,25.42,0,0,0-1.06,7.74,45.78,45.78,0,0,0,.59,8A4.7,4.7,0,0,1,30.68,17.82Z"/><path class="cls-1" d="M47.5,33.69c.82.17,1.65.27,2.49.37h.07a.15.15,0,0,0,.06-.07l.18-.31a.09.09,0,0,0,0-.13c-.5-.67-1-1.35-1.57-2a25.42,25.42,0,0,0-6.17-4.79,45.76,45.76,0,0,0-7.22-3.48,4.71,4.71,0,0,1-1.7,2.93,45.77,45.77,0,0,0,6.63,4.52A25.42,25.42,0,0,0,47.5,33.69Z"/><path class="cls-1" d="M11.23,34a.12.12,0,0,0,0,.05h.07c.84-.1,1.67-.2,2.5-.37a25.42,25.42,0,0,0,7.23-2.95,45.77,45.77,0,0,0,6.63-4.52A4.71,4.71,0,0,1,26,23.3a45.79,45.79,0,0,0-7.22,3.48,25.42,25.42,0,0,0-6.17,4.79c-.56.63-1.06,1.3-1.56,2a.11.11,0,0,0,0,.16Z"/><circle class="cls-1" cx="30.68" cy="22.56" r="2.81"/><path class="cls-1" d="M56.29,36.18l-.18.33c-.63,1.15-1.33,2.26-2.07,3.33L53.71,51.1l3.77,1.72L57,36A3.84,3.84,0,0,1,56.29,36.18Z"/><path class="cls-1" d="M50.19,23.57a37.78,37.78,0,0,0,2.85,6,3.76,3.76,0,0,1,2.58-1,37.77,37.77,0,0,0-1.92-6.33,20.88,20.88,0,0,0-3.11-5.6c-.44-.53-.93-1-1.41-1.52l0,0h-.06l-.27.1a.09.09,0,0,0-.08.1c0,.69-.05,1.38,0,2.06A20.87,20.87,0,0,0,50.19,23.57Z"/><path class="cls-1" d="M52.3,34.32a37.78,37.78,0,0,0-4.51,4.82,20.87,20.87,0,0,0-3.3,5.5c-.24.65-.43,1.31-.61,2a.08.08,0,0,0,0,.1l.23.18a.12.12,0,0,0,.07,0h0l.06,0c.61-.32,1.22-.64,1.79-1a20.87,20.87,0,0,0,4.66-4.4,37.92,37.92,0,0,0,3.4-4.87l.34-.58-.33-.13A3.84,3.84,0,0,1,52.3,34.32Z"/><path class="cls-1" d="M65.41,35.8a20.87,20.87,0,0,0,6.41.11c.68-.11,1.35-.29,2-.46l.05,0a.1.1,0,0,0,0-.05l0-.29A.12.12,0,0,0,74,35l0,0c-.58-.37-1.17-.73-1.78-1A20.87,20.87,0,0,0,66,32.08a37.76,37.76,0,0,0-6.6-.51A3.83,3.83,0,0,1,59,34.29,37.76,37.76,0,0,0,65.41,35.8Z"/><path class="cls-1" d="M53.3,32.49a2.32,2.32,0,0,0,.15.74,2.34,2.34,0,0,0,2.11,1.49h0a2.35,2.35,0,1,0-2.27-2.24Z"/><polygon class="cls-1" points="47.28 58.81 52.76 61.31 53.51 59.68 54.31 57.91 53.56 57.57 48.83 55.41 47.28 58.81"/><rect class="cls-1" x="63.91" y="56.88" width="3.74" height="6.03" transform="translate(-16.04 94.81) rotate(-65.43)"/><rect class="cls-1" x="64.36" y="73.05" width="3.74" height="6.03" transform="translate(-30.49 104.67) rotate(-65.43)"/><rect class="cls-1" x="70.4" y="59.84" width="3.74" height="6.03" transform="translate(-14.95 102.45) rotate(-65.43)"/><rect class="cls-1" x="66.38" y="68.65" width="3.74" height="6.03" transform="translate(-25.31 103.93) rotate(-65.43)"/><polygon class="cls-1" points="57.88 70.19 57.83 70.17 56.55 72.97 56.28 73.57 61.71 76.05 63.27 72.65 57.88 70.19"/><rect class="cls-1" x="68.39" y="64.24" width="3.74" height="6.03" transform="translate(-20.13 103.19) rotate(-65.43)"/><polygon class="cls-1" points="62.82 56.48 57.5 54.05 57.33 53.97 55.78 57.37 57.6 58.2 61.26 59.88 62.82 56.48"/><rect class="cls-1" x="61.9" y="61.28" width="3.74" height="6.03" transform="translate(-21.22 95.56) rotate(-65.43)"/><rect class="cls-1" x="59.92" y="65.72" width="3.74" height="5.97" transform="translate(-26.39 96.33) rotate(-65.43)"/><polygon class="cls-1" points="59.25 64.28 60.8 60.88 57.63 59.43 55.32 58.37 53.76 61.77 57.73 63.59 59.25 64.28"/><polygon class="cls-1" points="54.77 56.91 56.33 53.51 53.68 52.3 50.84 51 49.29 54.41 53.59 56.37 54.77 56.91"/><rect class="cls-1" x="42.91" y="68.73" width="3.74" height="5.97" transform="translate(-39.06 82.62) rotate(-65.43)"/><rect class="cls-1" x="49.38" y="71.66" width="3.74" height="6.03" transform="translate(-37.98 90.22) rotate(-65.43)"/><polygon class="cls-1" points="38.78 60.38 44.21 62.87 44.26 62.89 45.81 59.49 45.76 59.47 40.33 56.98 38.78 60.38"/><rect class="cls-1" x="40.9" y="73.13" width="3.74" height="5.97" transform="translate(-44.24 83.37) rotate(-65.43)"/><polygon class="cls-1" points="33.16 55.51 32.29 57.41 33.21 57.84 37.77 59.92 39.33 56.52 33.84 54.02 33.16 55.51"/><rect class="cls-1" x="47.36" y="76.06" width="3.74" height="6.03" transform="translate(-43.15 90.97) rotate(-65.43)"/><polygon class="cls-1" points="31.83 58.42 30.27 61.82 33.34 63.22 35.76 64.33 37.31 60.92 33.24 59.06 31.83 58.42"/><polygon class="cls-1" points="57.18 68.8 57.24 68.82 57.29 68.71 57.82 67.55 58.79 65.42 58.74 65.4 57.76 64.95 53.43 62.97 53.31 62.91 51.8 66.2 51.75 66.31 53.34 67.04 57.18 68.8"/><polygon class="cls-1" points="56.73 69.8 53.31 68.24 51.29 67.32 49.79 70.6 49.74 70.72 53.22 72.31 54.67 72.97 55.17 73.2 55.22 73.22 55.28 73.11 55.34 72.97 56.78 69.83 56.73 69.8"/><polygon class="cls-1" points="50.75 65.86 50.8 65.74 52.3 62.46 52.25 62.43 46.82 59.95 45.32 63.23 45.26 63.35 50.7 65.83 50.75 65.86"/><polygon class="cls-1" points="48.74 70.26 48.79 70.14 50.29 66.86 50.24 66.83 44.8 64.35 43.3 67.64 43.25 67.75 48.68 70.23 48.74 70.26"/><polygon class="cls-1" points="42.25 67.29 43.8 63.89 43.75 63.87 38.32 61.38 36.76 64.78 42.2 67.27 42.25 67.29"/><rect class="cls-1" x="16.94" y="56.96" width="3.74" height="6.03" transform="translate(-43.56 52.14) rotate(-65.43)"/><rect class="cls-1" x="30.36" y="79.07" width="3.74" height="6.03" transform="translate(-55.82 77.26) rotate(-65.43)"/><rect class="cls-1" x="14.93" y="61.37" width="3.74" height="6.03" transform="matrix(0.42, -0.91, 0.91, 0.42, -48.74, 52.88)"/><polygon class="cls-1" points="23.33 59.99 21.77 63.39 27.21 65.88 27.26 65.9 27.99 64.3 28.82 62.5 28.76 62.48 28.04 62.15 23.33 59.99"/><rect class="cls-1" x="17.39" y="73.14" width="3.74" height="6.03" transform="translate(-58.01 62) rotate(-65.43)"/><rect class="cls-1" x="19.4" y="68.74" width="3.74" height="6.03" transform="translate(-52.83 61.26) rotate(-65.43)"/><polygon class="cls-1" points="19.76 67.79 25.19 70.28 25.25 70.3 26.8 66.9 26.75 66.88 21.32 64.39 19.76 67.79"/><rect class="cls-1" x="32.38" y="74.67" width="3.74" height="6.03" transform="translate(-50.64 76.52) rotate(-65.43)"/><rect class="cls-1" x="23.87" y="76.1" width="3.74" height="6.03" transform="translate(-56.92 69.63) rotate(-65.43)"/><rect class="cls-1" x="10.9" y="70.17" width="3.74" height="6.03" transform="translate(-59.1 54.37) rotate(-65.43)"/><polygon class="cls-1" points="31.28 74.27 28.43 72.97 27.8 72.68 25.79 71.76 24.24 75.16 29.72 77.67 31.28 74.27"/><rect class="cls-1" x="12.91" y="65.77" width="3.74" height="6.03" transform="translate(-53.92 53.62) rotate(-65.43)"/><polygon class="cls-1" points="33.7 68.84 33.75 68.87 33.8 68.75 35.3 65.47 35.25 65.44 33.37 64.58 29.82 62.96 28.32 66.24 28.26 66.36 33.47 68.74 33.7 68.84"/><polygon class="cls-1" points="39.72 72.81 34.29 70.33 33.54 71.97 33.08 72.97 32.79 73.61 32.74 73.73 38.17 76.21 38.22 76.23 38.27 76.12 39.78 72.84 39.72 72.81"/><polygon class="cls-1" points="40.24 71.83 40.29 71.72 41.79 68.43 41.74 68.41 36.3 65.92 34.8 69.21 34.75 69.33 40.18 71.81 40.24 71.83"/><polygon class="cls-1" points="31.73 73.27 31.79 73.15 31.87 72.97 33.29 69.87 33.24 69.84 27.92 67.41 27.8 67.36 26.3 70.65 26.25 70.76 27.82 71.48 31.08 72.97 31.68 73.24 31.73 73.27"/></svg>