<?xml version="1.0" encoding="UTF-8" standalone="no"?>
<svg
   xmlns:dc="http://purl.org/dc/elements/1.1/"
   xmlns:cc="http://creativecommons.org/ns#"
   xmlns:rdf="http://www.w3.org/1999/02/22-rdf-syntax-ns#"
   xmlns:svg="http://www.w3.org/2000/svg"
   xmlns="http://www.w3.org/2000/svg"
   xmlns:sodipodi="http://sodipodi.sourceforge.net/DTD/sodipodi-0.dtd"
   xmlns:inkscape="http://www.inkscape.org/namespaces/inkscape"
   id="Calque_1"
   data-name="Calque 1"
   viewBox="0 0 85.04 85.04"
   version="1.1"
   sodipodi:docname="SDG11_5.svg"
   inkscape:version="0.92.3 (2405546, 2018-03-11)">
  <metadata
     id="metadata30">
    <rdf:RDF>
      <cc:Work
         rdf:about="">
        <dc:format>image/svg+xml</dc:format>
        <dc:type
           rdf:resource="http://purl.org/dc/dcmitype/StillImage" />
        <dc:title>Soil_Sealing</dc:title>
      </cc:Work>
    </rdf:RDF>
  </metadata>
  <sodipodi:namedview
     pagecolor="#ffffff"
     bordercolor="#666666"
     borderopacity="1"
     objecttolerance="10"
     gridtolerance="10"
     guidetolerance="10"
     inkscape:pageopacity="0"
     inkscape:pageshadow="2"
     inkscape:window-width="640"
     inkscape:window-height="480"
     id="namedview28"
     showgrid="false"
     inkscape:zoom="2.7751646"
     inkscape:cx="42.52"
     inkscape:cy="42.52"
     inkscape:window-x="0"
     inkscape:window-y="0"
     inkscape:window-maximized="0"
     inkscape:current-layer="Calque_1" />
  <defs
     id="defs4">
    <style
       id="style2">.cls-1{fill:#5a6176;}</style>
  </defs>
  <title
     id="title6">Soil_Sealing</title>
  <g
     id="Calque_2"
     data-name="Calque 2">
    <path
       class="cls-1"
       d="M73.12,42.28,69.23,40l7.86-18.61A12.87,12.87,0,0,0,74.33,7.25h0a12.86,12.86,0,0,0-18.2,0h0a12.87,12.87,0,0,0-2.76,14.12l5.23,12.28-.44-.26-3.39,1.94a12.88,12.88,0,1,0-25.32-.52L27,33.39l-2.25,1.33,5.64-13.35A12.88,12.88,0,0,0,27.59,7.25h0a12.89,12.89,0,0,0-18.22,0h0A12.89,12.89,0,0,0,6.59,21.37l8.13,19.25-2.8,1.66L0,81.57,20.29,67.73l1.62.31L42.52,81.57,64.19,67.34,85,81.57ZM65.8,9.05l4.9,1.63V25.23H65.8Zm-6,5,4.89-1.63V25.23H59.76ZM11.49,23.82V15.93H8.64l9.81-9.25,9.82,9.25H25.41v7.89H20.59V18H16.32v5.84Zm21.77,7.79a8.85,8.85,0,1,1,9.68,8.82v4H41.11l.07-2.86v-1.1A8.85,8.85,0,0,1,33.26,31.61ZM7.12,71.87l8.17-26.94,1-.59,2.16,5.13,3.61-8.55,3.43-2L21,62.64l-.17-.11L18.59,64Zm15.67-8,4.8-25.48,3.82,2.18L41.76,65V76.28L23.05,64ZM62,64,43.76,76V62l8.76-20.75,4.29-2.45,5.43,25.1Zm2.24-1.47-.2.13L58.79,38.44l2.37,1.41,4.07,9.62,2.43-5.77,2.09,1.23,8.17,26.94L66.44,64Z"
       id="path8" />
    <path
       class="cls-1"
       d="M41.3,36.24l-5-3.13.4-.76,4.7,2.07,0-2.3-3.88-2.71.43-.74,3.49,1.68.1-3.85h1.05l.09,3.88,3.57-1.71.43.74-4,2.8,0,2.28,4.86-2.1.4.76-5.13,3.13.07,2.62a7.34,7.34,0,1,0-1.67,0Z"
       id="path10" />
    <rect
       class="cls-1"
       x="60.72"
       y="18.46"
       width="2.97"
       height="1.45"
       id="rect12" />
    <rect
       class="cls-1"
       x="60.72"
       y="15.1"
       width="2.97"
       height="1.45"
       id="rect14" />
    <rect
       class="cls-1"
       x="66.76"
       y="21.82"
       width="2.97"
       height="1.45"
       id="rect16" />
    <rect
       class="cls-1"
       x="60.72"
       y="21.82"
       width="2.97"
       height="1.45"
       id="rect18" />
    <rect
       class="cls-1"
       x="66.76"
       y="15.1"
       width="2.97"
       height="1.45"
       id="rect20" />
    <rect
       class="cls-1"
       x="66.76"
       y="18.46"
       width="2.97"
       height="1.45"
       id="rect22" />
    <rect
       class="cls-1"
       x="66.76"
       y="11.93"
       width="2.97"
       height="1.45"
       id="rect24" />
  </g>
</svg>
