<svg id="Layer_1" data-name="Layer 1" xmlns="http://www.w3.org/2000/svg" viewBox="0 0 86 86"><defs><style>.cls-1{fill:#5a6176;}</style></defs><path class="cls-1" d="M11.27,58.54a1.46,1.46,0,0,0-1.61,1.28l-.53,4.64a1.46,1.46,0,0,0,1.29,1.61h.16A1.46,1.46,0,0,0,12,64.78l.52-4.63A1.45,1.45,0,0,0,11.27,58.54Z"/><path class="cls-1" d="M12.45,48.11a1.46,1.46,0,0,0-1.61,1.28L10.31,54a1.46,1.46,0,0,0,1.29,1.61h.16a1.45,1.45,0,0,0,1.45-1.3l.53-4.63A1.46,1.46,0,0,0,12.45,48.11Z"/><path class="cls-1" d="M10.09,69a1.47,1.47,0,0,0-1.61,1.29L8,74.89A1.47,1.47,0,0,0,9.24,76.5H9.4a1.47,1.47,0,0,0,1.45-1.3l.52-4.63A1.47,1.47,0,0,0,10.09,69Z"/><path class="cls-1" d="M17.05,71.37a1.43,1.43,0,0,0-1.56,1.34l-.35,4.65a1.46,1.46,0,0,0,1.34,1.57h.11a1.46,1.46,0,0,0,1.46-1.35l.35-4.65A1.46,1.46,0,0,0,17.05,71.37Z"/><path class="cls-1" d="M18.63,50.43a1.46,1.46,0,0,0-1.56,1.35l-.35,4.65A1.46,1.46,0,0,0,18.06,58h.11a1.47,1.47,0,0,0,1.46-1.35L20,52A1.46,1.46,0,0,0,18.63,50.43Z"/><path class="cls-1" d="M17.84,60.9a1.44,1.44,0,0,0-1.56,1.35l-.35,4.65a1.46,1.46,0,0,0,1.34,1.56h.11a1.46,1.46,0,0,0,1.46-1.34l.35-4.66A1.46,1.46,0,0,0,17.84,60.9Z"/><path class="cls-1" d="M24.42,58.59A1.43,1.43,0,0,0,22.91,60l-.18,4.66a1.46,1.46,0,0,0,1.4,1.51h.06a1.46,1.46,0,0,0,1.46-1.4l.17-4.66A1.45,1.45,0,0,0,24.42,58.59Z"/><path class="cls-1" d="M24.82,48.1a1.47,1.47,0,0,0-1.52,1.4l-.17,4.66a1.45,1.45,0,0,0,1.4,1.51h.06A1.45,1.45,0,0,0,26,54.27l.18-4.66A1.45,1.45,0,0,0,24.82,48.1Z"/><path class="cls-1" d="M24,69.08a1.46,1.46,0,0,0-1.51,1.4l-.17,4.66a1.45,1.45,0,0,0,1.4,1.51h.05a1.46,1.46,0,0,0,1.46-1.4l.18-4.66A1.46,1.46,0,0,0,24,69.08Z"/><path class="cls-1" d="M31,60.93a1.45,1.45,0,0,0-1.46,1.45v4.67a1.46,1.46,0,1,0,2.91,0V62.38A1.45,1.45,0,0,0,31,60.93Z"/><path class="cls-1" d="M31,71.42a1.46,1.46,0,0,0-1.46,1.46v4.67a1.46,1.46,0,0,0,2.91,0V72.88A1.46,1.46,0,0,0,31,71.42Z"/><path class="cls-1" d="M31,50.43a1.46,1.46,0,0,0-1.46,1.46v4.66a1.46,1.46,0,1,0,2.91,0V51.89A1.45,1.45,0,0,0,31,50.43Z"/><path class="cls-1" d="M38,69.08a1.45,1.45,0,0,0-1.4,1.51l.18,4.66a1.45,1.45,0,0,0,1.45,1.4h.06a1.46,1.46,0,0,0,1.4-1.51l-.18-4.66A1.44,1.44,0,0,0,38,69.08Z"/><path class="cls-1" d="M37.41,55.67h.06a1.45,1.45,0,0,0,1.4-1.51l-.18-4.66a1.46,1.46,0,0,0-2.91.11L36,54.27A1.46,1.46,0,0,0,37.41,55.67Z"/><path class="cls-1" d="M37.8,66.16h.06a1.45,1.45,0,0,0,1.4-1.51L39.09,60a1.43,1.43,0,0,0-1.51-1.4,1.46,1.46,0,0,0-1.41,1.51l.18,4.66A1.45,1.45,0,0,0,37.8,66.16Z"/><path class="cls-1" d="M44.61,68.46h.11a1.46,1.46,0,0,0,1.35-1.56l-.36-4.65a1.45,1.45,0,1,0-2.9.21l.35,4.66A1.45,1.45,0,0,0,44.61,68.46Z"/><path class="cls-1" d="M43.82,58h.11a1.45,1.45,0,0,0,1.34-1.56l-.35-4.65A1.45,1.45,0,1,0,42,52l.35,4.65A1.46,1.46,0,0,0,43.82,58Z"/><path class="cls-1" d="M44.94,71.37a1.46,1.46,0,0,0-1.34,1.56L44,77.58a1.45,1.45,0,0,0,1.45,1.35h.11a1.47,1.47,0,0,0,1.35-1.57l-.36-4.65A1.44,1.44,0,0,0,44.94,71.37Z"/><path class="cls-1" d="M51.91,69a1.47,1.47,0,0,0-1.29,1.62l.53,4.63a1.45,1.45,0,0,0,1.44,1.3h.17A1.46,1.46,0,0,0,54,74.89l-.52-4.64A1.48,1.48,0,0,0,51.91,69Z"/><path class="cls-1" d="M50.4,55.64A1.45,1.45,0,0,0,51.68,54l-.52-4.64a1.46,1.46,0,0,0-2.9.33l.52,4.63a1.47,1.47,0,0,0,1.45,1.3Z"/><path class="cls-1" d="M51.58,66.07a1.45,1.45,0,0,0,1.28-1.61l-.52-4.64a1.46,1.46,0,0,0-2.9.33L50,64.78a1.47,1.47,0,0,0,1.45,1.3Z"/><path class="cls-1" d="M60.67,6.31H45.44a18,18,0,0,0-18,18v4.54H23.89A16.06,16.06,0,0,0,7.83,44.9H54.07A16.06,16.06,0,0,0,38,28.84H34.45V24.3a11,11,0,0,1,11-11H60.67a11,11,0,0,1,11,11V78.62h7V24.3A18,18,0,0,0,60.67,6.31Z"/></svg>