<svg id="Layer_1" data-name="Layer 1" xmlns="http://www.w3.org/2000/svg" viewBox="0 0 85.04 85.04"><defs><style>.cls-1{fill:#5a6176;}</style></defs><title>Artboard 33 copy 23</title><path class="cls-1" d="M9.12,66.93l-2.4-.07a5.59,5.59,0,0,0-1.5.16l-.11,4h4Z"/><path class="cls-1" d="M16.68,71H21L16.6,68.19l-.2-.13-.19-.1A6.67,6.67,0,0,0,13,67L10.17,67v4h6.5Z"/><path class="cls-1" d="M53.59,51.22V48.74H48.33v4.77L45.16,54.9V48.74l-14,6.16V48.74l-14.9,6.55L15.5,28.44H6.28l-1,36.44h7.57a11.45,11.45,0,0,1,3.37.52l.32.11a11.44,11.44,0,0,1,2.23,1l5.62,3.38,5.85,1.56.92.24.29.08a4.75,4.75,0,0,1,3.51,4.13l.3,3.07-4.09-.06H30a3.78,3.78,0,0,1-7.48-.11l-5.62-.08h-.68L4.9,78.55,4.72,85H79.3V57.49l-20-8.75ZM74.94,80.69H43.05V60.57l16.21-7.08,15.68,6.85Z"/><path class="cls-1" d="M26.26,80.16a1.89,1.89,0,1,0-1.77-1.32A1.85,1.85,0,0,0,26.26,80.16Z"/><rect class="cls-1" x="48.33" y="64.84" width="7.54" height="7.54"/><rect class="cls-1" x="62.35" y="64.84" width="7.54" height="7.54"/><path class="cls-1" d="M8.23,25.7c2.09,0,.58,0,1,0h0v-.08l0-.11,0-.22a4,4,0,0,1,.07-.43A7.88,7.88,0,0,1,9.66,24a7.2,7.2,0,0,1,3.07-3.81,6.66,6.66,0,0,1,2.95-.95,7.35,7.35,0,0,1,.76,0l.83.06,2,.19,1.84.18-.72.11L18,20.13a8.19,8.19,0,0,0-2.68.95A6.26,6.26,0,0,0,13.24,23a4.37,4.37,0,0,0-.58,1.32,3.77,3.77,0,0,0-.1.71,2,2,0,0,0,0,.35l0,.17v.15h0c.24,0-.54,0,.54,0s.3,0,.54,0h0v0l0-.06,0-.11a1.08,1.08,0,0,1,.09-.22,2.38,2.38,0,0,1,.23-.39,3,3,0,0,1,.64-.62,4,4,0,0,1,1.66-.67,5.16,5.16,0,0,1,1.79,0l2.23.35,2.3.34,1.15.17a12.55,12.55,0,0,0,7.31-1.24c.24-.13.49-.27.72-.43l.36-.24a2.69,2.69,0,0,1,.28-.19,4.37,4.37,0,0,1,.56-.24,5.69,5.69,0,0,1,1.31-.28,17.9,17.9,0,0,1,3.43.24l4.6.48A8.52,8.52,0,0,0,47,21.8a4.64,4.64,0,0,0,0-8.29,7.12,7.12,0,0,0-2-.64l.22,0a8.53,8.53,0,0,1,1.21.09l2,.19c5.33.54,10.66.9,16,1.89a7.7,7.7,0,0,0,2.76,0A7.57,7.57,0,1,0,64.42.13c-5.33,1-10.66,1.34-16,1.89l-2,.2a19.12,19.12,0,0,0-2.77.43A18.1,18.1,0,0,0,38.5,4.69a17.7,17.7,0,0,0-4.16,3.42c-.29.34-.58.67-.85,1l-.2.26-.15.21-.19.29A8.83,8.83,0,0,1,32.08,11a9.4,9.4,0,0,1-5,2.75c-.26.05-.47.08-.78.12l-1,.1-2,.19-4,.38-2,.19c-.3,0-.76.08-1.17.13a11.69,11.69,0,0,0-1.22.25,10.54,10.54,0,0,0-4.28,2.3,10,10,0,0,0-2.71,3.83,9.46,9.46,0,0,0-.61,2.22,10.27,10.27,0,0,0-.11,1.13c0,.19,0,.38,0,.56v.54C7.65,25.69,6.14,25.69,8.23,25.7Z"/><path class="cls-1" d="M67.93,36.29a7.79,7.79,0,0,0-1.29.23,7.94,7.94,0,0,0-4.15,2.69c-.13.16-.25.32-.36.48s-.13.2-.2.31a4.45,4.45,0,0,1-.38.5,4,4,0,0,1-2.21,1.26c-.18,0-.52.07-.82.1l-.91.09-1.82.18-.91.09a5,5,0,0,0-1.13.22,4.76,4.76,0,0,0-1.9,1.16A4.92,4.92,0,0,0,50.5,46.4c0,.17,0,.34,0,.51v.49h0c.22,0-.48,0,.48,0s.27,0,.48,0h0v-.08l0-.1,0-.2c0-.13.06-.26.1-.39a3.65,3.65,0,0,1,.32-.71,3.41,3.41,0,0,1,1-1.1,3,3,0,0,1,1.29-.49,3,3,0,0,1,.67,0l.91.09,1.82.18.91.09c.31,0,.58.06,1,.08a7.4,7.4,0,0,0,4.41-1.4,8.23,8.23,0,0,0,.92-.77c.13-.12.31-.33.38-.39l.23-.2a3.7,3.7,0,0,1,1-.58,3.28,3.28,0,0,1,1.07-.2,2.9,2.9,0,0,1,.52,0l.84.09c2.42.25,4.84.41,7.26.87a3.56,3.56,0,0,0,1.3,0,3.5,3.5,0,1,0-1.3-6.88c-2.42.46-4.84.62-7.26.87Z"/></svg>