<svg id="Calque_1" data-name="Calque 1" xmlns="http://www.w3.org/2000/svg" viewBox="0 0 85.04 85.04"><defs><style>.cls-1{fill:#5a6176;}</style></defs><title>08_01_Grey</title><path class="cls-1" d="M60.29,30.92H24.75A10.77,10.77,0,0,0,14,41.68v37a4.82,4.82,0,0,0,4.39,4.9A4.64,4.64,0,0,0,23.27,79V51a1.54,1.54,0,0,1,1.54-1.54H25A1.54,1.54,0,0,1,26.54,51V76.44H58.68V51a1.54,1.54,0,0,1,3.09,0V78.72a4.82,4.82,0,0,0,4.39,4.9A4.64,4.64,0,0,0,71.06,79V41.68A10.77,10.77,0,0,0,60.29,30.92ZM52.22,45.53a41.57,41.57,0,0,1-10.71,8.76,41,41,0,0,1-12,4.51V51.43a34.79,34.79,0,0,0,10.22-1.66,37,37,0,0,0,11-5.78L47.4,40.49l8.1-.06L55.55,49Z"/><path class="cls-1" d="M42.52,1.42A13.25,13.25,0,1,0,55.77,14.67,13.25,13.25,0,0,0,42.52,1.42Zm1.14,22.2a8.32,8.32,0,0,1-6.64-3A7.68,7.68,0,0,1,35.34,17H33.54V15.28h1.59v-.42c0-.32,0-.64.05-1H33.56V12.22h1.89a8.39,8.39,0,0,1,8.32-6.51,10.25,10.25,0,0,1,4.28.9l-.72,2.5A7.79,7.79,0,0,0,44,8.34a5,5,0,0,0-3.8,1.57A5.23,5.23,0,0,0,39,12.22h7.89V13.9H38.58a5.3,5.3,0,0,0-.05.93v.45h8.32V17h-8a4.76,4.76,0,0,0,1.22,2.42,5.52,5.52,0,0,0,4,1.51A7.87,7.87,0,0,0,47.57,20l.61,2.39A8.57,8.57,0,0,1,43.66,23.62Z"/></svg>