<svg id="Calque_1" data-name="Calque 1" xmlns="http://www.w3.org/2000/svg" viewBox="0 0 85.04 85.04"><defs><style>.cls-1,.cls-2{fill:#5a6176;}.cls-1{stroke:#5a6176;stroke-miterlimit:10;stroke-width:4.97px;}.cls-3{fill:#fff;}</style></defs><title>communicable diseases</title><circle class="cls-1" cx="42.68" cy="45.5" r="19.84"/><path class="cls-2" d="M61.75,79.29a23,23,0,0,1-19.23-10.4A23,23,0,0,1,23.3,79.29a23.08,23.08,0,0,1-8-1.41l.45-1.61a17.48,17.48,0,0,0,3.26.31A17.32,17.32,0,1,0,1.93,56.47L.26,56.33a23,23,0,0,1,20.9-23,22.8,22.8,0,0,1-1.65-8.57A23,23,0,0,1,29.37,5.9l1.07,1.29a17.32,17.32,0,1,0,24.16,0L55.67,5.9a23,23,0,0,1,9.87,18.89,22.8,22.8,0,0,1-1.65,8.57,23,23,0,0,1,20.9,23l-1.67.13A17.31,17.31,0,1,0,66,76.57a17.48,17.48,0,0,0,3.26-.31l.45,1.61A23.08,23.08,0,0,1,61.75,79.29ZM42.52,43.15a3.41,3.41,0,1,0,3.41,3.41A3.42,3.42,0,0,0,42.52,43.15Z"/><path class="cls-3" d="M55.18,6.59a22.17,22.17,0,0,1,7.45,27.53A22.16,22.16,0,0,1,83.94,56.33,18.15,18.15,0,1,0,66,77.41a18.28,18.28,0,0,0,3.41-.32,22.32,22.32,0,0,1-7.68,1.36A22.18,22.18,0,0,1,42.52,67.28,22.18,22.18,0,0,1,23.29,78.45a22.32,22.32,0,0,1-7.68-1.36,18.28,18.28,0,0,0,3.41.32A18.16,18.16,0,1,0,1.1,56.33,22.16,22.16,0,0,1,22.41,34.12,22.17,22.17,0,0,1,29.86,6.59a18.16,18.16,0,1,0,25.33,0M42.52,50.82a4.25,4.25,0,1,0-4.25-4.25,4.25,4.25,0,0,0,4.25,4.25M56.15,5.21,54,7.8a16.47,16.47,0,1,1-23,0L28.89,5.21A23.86,23.86,0,0,0,20,32.65,23.84,23.84,0,0,0-.58,56.33l3.34.27a16.47,16.47,0,0,1,29.75-6.8A16.47,16.47,0,0,1,19,75.73a16.64,16.64,0,0,1-3.1-.29L15,78.66a23.85,23.85,0,0,0,21.9-2.84,23.67,23.67,0,0,0,5.58-5.45,23.88,23.88,0,0,0,19.23,9.76A23.91,23.91,0,0,0,70,78.66l-.89-3.23a16.64,16.64,0,0,1-3.1.29A16.48,16.48,0,1,1,82.28,56.6l3.34-.27A23.84,23.84,0,0,0,65,32.65a23.86,23.86,0,0,0-8.9-27.43ZM42.52,49.14a2.57,2.57,0,1,1,2.57-2.57,2.57,2.57,0,0,1-2.57,2.57Z"/></svg>