<svg id="Layer_1" data-name="Layer 1" xmlns="http://www.w3.org/2000/svg" viewBox="0 0 85.04 85.04"><defs><style>.cls-1{fill:#5a6176;}</style></defs><title>Artboard 33 copy 42</title><path class="cls-1" d="M49.64,2.58H35.7c-6.48,0-10.19,6.3-10.23,6.37L14.88,27.17l13.69,8.06C30.16,32.43,41.49,12.33,44.16,8A15.84,15.84,0,0,1,49.64,2.58Z"/><path class="cls-1" d="M44.23,14.09,51.75,26.5l-4.4,2.68L63.23,31l6.33-14.61-4.13,2.4-.19-.31c0-.07-4-6.81-6-10s-3-4-6.34-3.94S47.26,8.9,47.24,8.94Z"/><path class="cls-1" d="M2.54,59.87l7,12.07c3.24,5.61,10.56,5.68,10.63,5.68l21.08.06.14-15.89c-3.23,0-26.3.26-31.37.11A15.85,15.85,0,0,1,2.54,59.87Z"/><path class="cls-1" d="M9.25,58.78l6,0,7-12.71,4.52,2.47L20.37,33.89,4.56,35.71,8.7,38.08l-.18.32c0,.07-3.89,6.88-5.65,10.18s-2,4.61-.24,7.46S9.2,58.78,9.25,58.78Z"/><path class="cls-1" d="M81.87,48,71.38,29.73,57.55,37.55c1.64,2.78,13.38,22.64,15.78,27.11a15.84,15.84,0,0,1,2,7.47l7-12.07C85.51,54.44,81.91,48.07,81.87,48Z"/><path class="cls-1" d="M68,61.68l-14.5.3-.12-5.15L43.88,69.67l9.48,12.79V77.69h.36c.08,0,7.9-.08,11.64-.2s5-.57,6.58-3.52S71,66.9,71,66.86Z"/></svg>