<?xml version="1.0" encoding="UTF-8" standalone="no"?>
<svg
   xmlns:dc="http://purl.org/dc/elements/1.1/"
   xmlns:cc="http://creativecommons.org/ns#"
   xmlns:rdf="http://www.w3.org/1999/02/22-rdf-syntax-ns#"
   xmlns:svg="http://www.w3.org/2000/svg"
   xmlns="http://www.w3.org/2000/svg"
   xmlns:sodipodi="http://sodipodi.sourceforge.net/DTD/sodipodi-0.dtd"
   xmlns:inkscape="http://www.inkscape.org/namespaces/inkscape"
   id="Layer_1"
   data-name="Layer 1"
   viewBox="0 0 85.04 85.04"
   version="1.1"
   sodipodi:docname="SDG5_5.svg"
   inkscape:version="0.92.3 (2405546, 2018-03-11)">
  <metadata
     id="metadata33">
    <rdf:RDF>
      <cc:Work
         rdf:about="">
        <dc:format>image/svg+xml</dc:format>
        <dc:type
           rdf:resource="http://purl.org/dc/dcmitype/StillImage" />
        <dc:title>Artboard 33 copy 11</dc:title>
      </cc:Work>
    </rdf:RDF>
  </metadata>
  <sodipodi:namedview
     pagecolor="#ffffff"
     bordercolor="#666666"
     borderopacity="1"
     objecttolerance="10"
     gridtolerance="10"
     guidetolerance="10"
     inkscape:pageopacity="0"
     inkscape:pageshadow="2"
     inkscape:window-width="640"
     inkscape:window-height="480"
     id="namedview31"
     showgrid="false"
     inkscape:zoom="2.7751646"
     inkscape:cx="42.52"
     inkscape:cy="42.52"
     inkscape:window-x="0"
     inkscape:window-y="0"
     inkscape:window-maximized="0"
     inkscape:current-layer="Layer_1" />
  <defs
     id="defs4">
    <style
       id="style2">.cls-1{fill:#5a6176;}</style>
  </defs>
  <title
     id="title6">Artboard 33 copy 11</title>
  <path
     class="cls-1"
     d="M85,18.61A3.79,3.79,0,0,0,83.16,16l-7-4.08-7.9,6.78a1.45,1.45,0,0,0,1.89,2.21l3.93-3.37L74,17.7a4.07,4.07,0,0,1,6.12,5L79.6,23.8l-1.88,3.91,2.94,5.12a1.45,1.45,0,1,0,2.52-1.45l-2.83-4.93,3.85-4.78A3.79,3.79,0,0,0,85,18.61Z"
     id="path8" />
  <circle
     class="cls-1"
     cx="69.7"
     cy="11.13"
     r="3.94"
     transform="translate(24.93 65.7) rotate(-59.71)"
     id="circle10" />
  <path
     class="cls-1"
     d="M78.68,22a2.44,2.44,0,0,0-1.14-3.25l-.16-.06a2.33,2.33,0,0,0-2.43.37l-.08.06c-.06.05-.11.11-.16.17a2.41,2.41,0,0,0-.42.6L67.81,33.32H55a2.43,2.43,0,0,0-.4,0H53.43a5.53,5.53,0,0,0-5.53,5.53V81.17a3.87,3.87,0,0,0,7.75,0V58.1h1.62V81.17A5.48,5.48,0,0,1,55.7,85a3.89,3.89,0,0,0,.47,0h.54a3.87,3.87,0,0,0,3.87-3.87v-43H70.87l.66-1.37h0l6.81-14.16Z"
     id="path12" />
  <circle
     class="cls-1"
     cx="54.92"
     cy="25.53"
     r="5.61"
     id="circle14" />
  <path
     class="cls-1"
     d="M5,24.78a4.06,4.06,0,0,1,6-5.14l-.07-.13,3.93,3.37a1.45,1.45,0,0,0,1.89-2.21l-7.9-6.78L1.88,18a3.8,3.8,0,0,0-1,5.66l3.85,4.78L1.87,33.35A1.45,1.45,0,1,0,4.39,34.8l3.07-5.36-2-3.7Z"
     id="path16" />
  <circle
     class="cls-1"
     cx="15.34"
     cy="13.09"
     r="3.94"
     transform="translate(-4.51 9.52) rotate(-30.29)"
     id="circle18" />
  <circle
     class="cls-1"
     cx="29.48"
     cy="24.55"
     r="5.61"
     id="circle20" />
  <path
     class="cls-1"
     d="M27.1,81.16a3.14,3.14,0,0,0,1,2.38,2,2,0,0,0,1.32.51,2.66,2.66,0,0,0,2.32-2.9V65.75H27.1Z"
     id="path22" />
  <path
     class="cls-1"
     d="M34.85,37.55a5.56,5.56,0,0,0-5.54-5.17h-7.5v.06H16.27L10.59,21.79A2.3,2.3,0,0,0,6.53,24l.29.55,6,11.32h0L13.51,37H21L16.28,64.25H36.7Z"
     id="path24" />
  <path
     class="cls-1"
     d="M23.41,81.16a2.9,2.9,0,0,0,2.9,2.9h.22a4.5,4.5,0,0,1-1.05-2.9V65.75H23.41Z"
     id="path26" />
  <circle
     class="cls-1"
     cx="34.44"
     cy="27.89"
     r="2.27"
     id="circle28" />
</svg>
