<svg id="Layer_1" data-name="Layer 1" xmlns="http://www.w3.org/2000/svg" viewBox="0 0 85.04 85.04"><defs><style>.cls-1{fill:#5a6176;}</style></defs><title>Artboard 15</title><path class="cls-1" d="M42.52,83.62a12,12,0,0,1-12-12V24.79H24.3V21.94h9.08V71.63a9.14,9.14,0,1,0,18.29,0V21.94h9.08v2.85H54.51V71.63A12,12,0,0,1,42.52,83.62Z"/><path class="cls-1" d="M53.09,56V71.63A10.57,10.57,0,0,1,42.52,82.2h0A10.57,10.57,0,0,1,32,71.63V61.86"/><path class="cls-1" d="M34.9,46.09a7.7,7.7,0,0,0,7.7,7.7A7.7,7.7,0,0,0,34.9,46.09Z"/><path class="cls-1" d="M50.75,46.09A7.7,7.7,0,0,1,43,53.8,7.7,7.7,0,0,1,50.75,46.09Z"/><path class="cls-1" d="M42.82,38a7.7,7.7,0,0,1,0,10.89A7.7,7.7,0,0,1,42.82,38Z"/><polygon class="cls-1" points="41.94 67.5 42.52 45.4 43.12 45.4 43.71 67.5 41.94 67.5"/><path class="cls-1" d="M42.52,22.77A10.68,10.68,0,1,1,53.2,12.1,10.69,10.69,0,0,1,42.52,22.77Zm0-19.08a8.4,8.4,0,1,0,8.4,8.4A8.41,8.41,0,0,0,42.52,3.7Z"/><path class="cls-1" d="M46.31,16.89a5.17,5.17,0,0,1-2.73.72,5,5,0,0,1-4-1.83,4.63,4.63,0,0,1-1-2.2H37.48v-1h1v-.26c0-.19,0-.38,0-.58h-1v-1h1.14a5.06,5.06,0,0,1,5-3.93,6.18,6.18,0,0,1,2.58.55L45.8,8.86a4.69,4.69,0,0,0-2-.46,3,3,0,0,0-2.29.95,3.16,3.16,0,0,0-.74,1.39h4.76v1h-5a3.2,3.2,0,0,0,0,.56v.27h5v1H40.7A2.87,2.87,0,0,0,41.44,15a3.33,3.33,0,0,0,2.4.91,4.75,4.75,0,0,0,2.1-.51Z"/></svg>