<svg id="Layer_1" data-name="Layer 1" xmlns="http://www.w3.org/2000/svg" viewBox="0 0 85.04 85.04"><defs><style>.cls-1{fill:#5a6176;}</style></defs><title>Artboard 31</title><path class="cls-1" d="M35.72,20.7a12.34,12.34,0,0,1,2.5-1.32,30.32,30.32,0,0,0-27-16.54V5.65A27.49,27.49,0,0,1,35.72,20.7Z"/><path class="cls-1" d="M11.23,63.41a30.1,30.1,0,0,0,14.91-3.94v-3.3A27.3,27.3,0,0,1,11.23,60.6Z"/><path class="cls-1" d="M29.08,20.8A6.67,6.67,0,0,1,32,20.11,24.5,24.5,0,0,0,11.23,8.61v2.81A21.69,21.69,0,0,1,29.08,20.8Z"/><path class="cls-1" d="M11.23,57.64a24.35,24.35,0,0,0,14.51-4.8A3.58,3.58,0,0,0,23.5,51a21.58,21.58,0,0,1-12.27,3.81Z"/><path class="cls-1" d="M25.35,25.78l.16-.62a6.68,6.68,0,0,1,1.26-2.49,18.73,18.73,0,0,0-15.54-8.28V17.2A15.94,15.94,0,0,1,25.35,25.78Z"/><path class="cls-1" d="M11.23,49.05v2.81A18.59,18.59,0,0,0,19.42,50L14.54,48.7A15.92,15.92,0,0,1,11.23,49.05Z"/><path class="cls-1" d="M21.07,30.66l2.55-1.36a13,13,0,0,0-12.38-9.13V23A10.16,10.16,0,0,1,21.07,30.66Z"/><path class="cls-1" d="M15.61,33.12a4.27,4.27,0,0,1,0,.47l2.78-1.48a7.19,7.19,0,0,0-7.1-6.17v2.81A4.38,4.38,0,0,1,15.61,33.12Z"/><path class="cls-1" d="M59.2,60.23a30.1,30.1,0,0,0,13.49,3.18V60.6A27.29,27.29,0,0,1,59.2,57Z"/><path class="cls-1" d="M72.69,5.65V2.83A30.32,30.32,0,0,0,45.91,19,12.1,12.1,0,0,1,48.52,20,27.51,27.51,0,0,1,72.69,5.65Z"/><path class="cls-1" d="M59.29,53.63a24.36,24.36,0,0,0,13.4,4V54.83a21.56,21.56,0,0,1-11.76-3.49A3.58,3.58,0,0,0,59.29,53.63Z"/><path class="cls-1" d="M72.69,8.61A24.5,24.5,0,0,0,51.88,20.22a6.5,6.5,0,0,1,1.1-.11,6.6,6.6,0,0,1,2.11.36,21.67,21.67,0,0,1,17.6-9Z"/><path class="cls-1" d="M72.69,14.39A18.7,18.7,0,0,0,57.62,22a7,7,0,0,1,1.67,2.51A15.92,15.92,0,0,1,72.69,17.2Z"/><path class="cls-1" d="M64.9,50.15a18.6,18.6,0,0,0,7.79,1.72V49.05a15.9,15.9,0,0,1-2.63-.24Z"/><path class="cls-1" d="M72.69,20.17a13,13,0,0,0-12.2,8.63L63,30.13A10.17,10.17,0,0,1,72.69,23Z"/><path class="cls-1" d="M68.33,33a4.37,4.37,0,0,1,4.36-4.23V25.94a7.19,7.19,0,0,0-7,5.63Z"/><path class="cls-1" d="M72.69,39a3.71,3.71,0,0,0-.52-.34l-6.33-3.39-3.28-1.75L59.78,32,57.7,30.93l-.44-1.71-.79-3.07a3.83,3.83,0,0,0-.22-.63c0-.07-.07-.13-.1-.19a3.88,3.88,0,0,0-.22-.38l0-.06-.11-.14a3.88,3.88,0,0,0-.26-.3l-.19-.18L55,24l-.22-.15-.33-.19-.23-.11-.38-.12-.23-.06-.31,0h-.16l-.18,0h0a3.29,3.29,0,0,0-.65.06,3.5,3.5,0,0,0-2.47,1.93c-.08-.11-.18-.21-.27-.32a9.15,9.15,0,0,0-2.41-2A9,9,0,0,0,37,23.7a9.17,9.17,0,0,0-1.77,1.84,3.44,3.44,0,0,0-1.33-1.66,3.17,3.17,0,0,0-.37-.23,3.65,3.65,0,0,0-.78-.27l-.26,0a3.55,3.55,0,0,0-.5-.06h-.1a3.48,3.48,0,0,0-.61.07l-.2.05-.41.14-.07,0-.18.08a3.55,3.55,0,0,0-.58.36l0,0a3.53,3.53,0,0,0-.46.44l-.13.16a3.5,3.5,0,0,0-.28.42l-.1.18a3.51,3.51,0,0,0-.26.67l0,.11-1.25,4.87L27,31.1l-2.85,1.52-2.83,1.51L17.8,36l-4.93,2.64a3.45,3.45,0,0,0-1.55,1.64,3.59,3.59,0,0,0,0,3,3.43,3.43,0,0,0,2.3,1.9l1.36.35,4.53,1.17,3.57.92,1.14.29a7.13,7.13,0,0,1,5.09,6.57V82.21H56V54.4a6.83,6.83,0,0,1,5.09-6.57h0l3.61-.93,4.76-1.23,1.91-.49A3.52,3.52,0,0,0,72.69,39ZM40.5,40.93H30.3l-1.92-.28-2.91-.42-2-.29,2.66-1.2,3.39-1.52,3.26-1.46.67-.3.51-2a9.26,9.26,0,0,0,8.7,6.44c.18,0,.34,0,.52,0a9,9,0,0,0,5.45-2.23A9.1,9.1,0,0,0,51,34.26c0-.12.11-.23.16-.35l.4,1.57,2.7,1.21,3.29,1.48,4,1.79-3.05.44-2.91.42-.88.13H40.5Z"/></svg>