<svg id="Layer_1" data-name="Layer 1" xmlns="http://www.w3.org/2000/svg" viewBox="0 0 85.04 85.04"><defs><style>.cls-1{fill:#5a6176;}</style></defs><title>Artboard 33 copy 57</title><path class="cls-1" d="M13.77,56.38l1.69-.27,2.11-.34A28.3,28.3,0,0,1,47.76,9.46,27.77,27.77,0,0,1,65.64,31.11l1.75-.19,1.45-.16.31,0A31.23,31.23,0,0,0,49,6.16,31.82,31.82,0,0,0,13.42,56.44Z"/><path class="cls-1" d="M65.88,46.57l-1.65-.62a28.4,28.4,0,0,1-4.07,7.31,6.7,6.7,0,0,1,2.69-.76c.15,0,.3,0,.45,0a6.76,6.76,0,0,1,1.22.12l.33.06a32.16,32.16,0,0,0,2.68-5.46l-.29-.11Z"/><path class="cls-1" d="M63.3,55.28l-.26,0-.44.05a3.91,3.91,0,0,0-1.49.6l-2.35,1.5-9,5.75c0,.08.06.17.09.25a6.53,6.53,0,0,1,.41,1.41c0,.11,0,.21,0,.32a6.19,6.19,0,0,1-1.9,5.2,6,6,0,0,1-2.83,1.55,6.77,6.77,0,0,1-1.52.18,6.28,6.28,0,0,1-2.58-.55l-5.37-2.4a27.24,27.24,0,0,0-6.68-2V64.92c.36.06.71.13,1.06.2q.86.16,1.72.37A28.39,28.39,0,0,1,37,67.12l.77.34.69.31,2.45,1.1,1.47.66a4.1,4.1,0,0,0,5.44-2.1,3.87,3.87,0,0,0,.31-1.4c0-.11,0-.22,0-.32a4.18,4.18,0,0,0-.25-1.29s0-.09-.07-.14a4.31,4.31,0,0,0-1-1.49A4.2,4.2,0,0,0,45.64,62L34.33,56.92a6.76,6.76,0,0,0-2.76-.59L21.23,58.05l-1,.15L18,58.57l-1.83.29-.38.06L8.3,60.11V74.83L19.22,73a13,13,0,0,1,8.72,1.3l11.11,6a5.84,5.84,0,0,0,6.57-.7L65.87,62.21a3.94,3.94,0,0,0-2.56-6.93Z"/><path class="cls-1" d="M78.89,32.48,67.5,33.74l-19.94,2.2L66.33,43l10.72,4A29.4,29.4,0,0,0,78.89,32.48Z"/><path class="cls-1" d="M41.66,22.41a16.67,16.67,0,0,1,7.17,1.65l1.53-5.35a21.94,21.94,0,0,0-9.16-1.93A18,18,0,0,0,23.4,30.71h-4v3.58h3.47c-.06.68-.11,1.37-.11,2v.91H19.31v3.58h3.87a16.44,16.44,0,0,0,3.58,7.79A16.72,16.72,0,0,0,34,53.83c.45.17.9.33,1.36.46a19.92,19.92,0,0,0,5.63.81,18.33,18.33,0,0,0,9.67-2.56l-1.31-5.12a16.86,16.86,0,0,1-7.45,1.82A11.81,11.81,0,0,1,33.35,46a10.18,10.18,0,0,1-2.62-5.18H47.8V37.25H30v-1a11.34,11.34,0,0,1,.11-2H47.8V30.71H30.91a11.19,11.19,0,0,1,2.62-4.95A10.76,10.76,0,0,1,41.66,22.41Z"/></svg>