<svg id="Layer_1" data-name="Layer 1" xmlns="http://www.w3.org/2000/svg" viewBox="0 0 85.04 85.04"><defs><style>.cls-1{fill:#5a6176;}</style></defs><title>Artboard 33 copy 41</title><path class="cls-1" d="M68.67,16.19a6.73,6.73,0,0,0-3.82-2.27c-3.71-.53-7.36-.93-11-1.2L53,8.44a4.77,4.77,0,0,0-4.18-4,86.2,86.2,0,0,0-12,0,4.74,4.74,0,0,0-4.18,3.95l-.86,4.28c-3.82.27-7.67.69-11.58,1.25a6.73,6.73,0,0,0-3.82,2.27l-1.13,1.3v7.79a236.32,236.32,0,0,1,54.56,0V17.49ZM35.38,8.85a1.61,1.61,0,0,1,1.44-1.34,93.7,93.7,0,0,1,12,0,1.62,1.62,0,0,1,1.44,1.34L51,12.52a149.58,149.58,0,0,0-16.35,0Z"/><path class="cls-1" d="M59.13,71a2.38,2.38,0,0,1-2,2.26c-1.12.13-1.68.19-2.81.3a1.89,1.89,0,0,1-2-2.09q1-22.43,2-44.86c-3.21-.16-4.83-.21-8.06-.26V71.87a2.15,2.15,0,0,1-2,2.23c-1.13,0-1.7,0-2.83,0a2.13,2.13,0,0,1-2-2.22V26.34c-3.23,0-4.84.09-8.06.24q1,22.47,2,44.94a1.9,1.9,0,0,1-2,2.11c-1.12-.1-1.69-.15-2.81-.28a2.37,2.37,0,0,1-2-2.26q-1-22.05-2-44.11c-2.59.19-3.88.31-6.45.57Q20,53.28,21.65,79a122.09,122.09,0,0,0,43-.27Q66,53.18,67.43,27.62c-2.51-.27-3.77-.38-6.3-.58Q60.13,49,59.13,71Z"/></svg>