<svg id="Calque_1" data-name="Calque 1" xmlns="http://www.w3.org/2000/svg" viewBox="0 0 85.04 85.04"><defs><style>.cls-1{fill:#5a6176;}</style></defs><title>Surface_of_terrestrial_sites_designated_under_Natura_2000</title><path class="cls-1" d="M52.13,19.62a14.77,14.77,0,1,0-29.53,0c0,8.15,14.77,30.2,14.77,30.2S52.13,27.77,52.13,19.62Zm-24.5,0a9.74,9.74,0,1,1,9.74,9.72A9.74,9.74,0,0,1,27.63,19.62Z"/><polygon class="cls-1" points="33.1 20.48 35.93 20.48 35.93 18.95 33.1 18.95 33.1 17.09 36.09 17.09 36.09 15.53 31.23 15.53 31.23 24.2 36.27 24.2 36.27 22.64 33.1 22.64 33.1 20.48"/><path class="cls-1" d="M40.7,24.33c2.1,0,3.29-1.25,3.29-3.78v-5H42.11v5.18c0,1.47-.5,2.09-1.36,2.09s-1.35-.66-1.35-2.09V15.53H37.53v5C37.53,23.1,38.63,24.33,40.7,24.33Z"/><path class="cls-1" d="M21.85,78.74a1.76,1.76,0,0,1-.1-.3L3.31,77.9V75.58L14,62.68,26.27,45.19l9.57,13.64,1.21-1.57L27.82,44.1a1.89,1.89,0,0,0-3.1,0l-23,32.72a1.89,1.89,0,0,0,1.55,3H23.55A1.9,1.9,0,0,1,21.85,78.74Z"/><polygon class="cls-1" points="16.81 61.96 26.27 48.49 34.45 60.14 34.75 60.25 35.84 58.83 26.27 45.19 14 62.68 14 62.68 16.81 61.96"/><path class="cls-1" d="M49.22,79.8H68.33l-17.82-.52A1.91,1.91,0,0,1,49.22,79.8Z"/><path class="cls-1" d="M83.23,76.75,54.14,39a2,2,0,0,0-3,0L37.05,57.26l1.15,1.63L52.64,40.14,70.52,63.35l1.22.32,3.56,5.89,6.43,8.34H80.34l1.15,1.9h.24a1.89,1.89,0,0,0,1.5-3Z"/><polygon class="cls-1" points="35.77 62.03 35.27 61.31 31.73 67.28 35.77 62.03"/><path class="cls-1" d="M21.75,78.44a1.76,1.76,0,0,0,.1.3,1.9,1.9,0,0,0,1.7,1.06H49.22a1.91,1.91,0,0,0,1.29-.52Z"/><polygon class="cls-1" points="36.98 60.46 38.2 58.89 37.05 57.26 35.84 58.83 36.98 60.46"/><polygon class="cls-1" points="35.69 60.6 35.27 61.31 35.77 62.03 36.98 60.46 35.84 58.83 34.75 60.25 35.69 60.6"/><polygon class="cls-1" points="81.73 77.9 75.3 69.56 80.34 77.9 81.73 77.9"/><polygon class="cls-1" points="52.64 43.24 67.53 62.58 70.52 63.35 52.64 40.14 38.2 58.89 39.34 60.51 52.64 43.24"/><polygon class="cls-1" points="27.19 74.94 31.06 71.26 36.91 63.66 35.77 62.03 31.73 67.28 27.19 74.94"/><polygon class="cls-1" points="38.12 62.09 39.34 60.51 38.2 58.89 36.98 60.46 38.12 62.09"/><polygon class="cls-1" points="36.91 63.66 38.12 62.09 36.98 60.46 35.77 62.03 36.91 63.66"/><polygon class="cls-1" points="81.73 80.19 81.49 79.8 68.33 79.8 81.73 80.19"/><polygon class="cls-1" points="34.45 60.14 26.27 57.18 24.35 64.18 22.2 60.6 16.81 61.96 6.96 76.01 22.61 76.01 34.63 60.41 34.45 60.14"/><polygon class="cls-1" points="3.31 75.58 3.31 77.9 14 62.68 3.31 75.58"/><path class="cls-1" d="M3.31,77.9l18.44.54a2,2,0,0,1-.08-.54Z"/><path class="cls-1" d="M22.05,76.75l.56-.74H7L16.81,62,14,62.68h0L3.31,77.9H21.67A1.87,1.87,0,0,1,22.05,76.75Z"/><polygon class="cls-1" points="34.75 60.25 34.45 60.14 34.63 60.41 34.75 60.25"/><polygon class="cls-1" points="56.7 70.29 49.39 53.81 40.54 62.23 50.21 76.01 77.88 76.01 67.53 62.58 59.91 60.6 56.7 70.29"/><polygon class="cls-1" points="27.4 76.01 45.58 76.01 37.77 64.87 31.06 71.26 27.4 76.01"/><polygon class="cls-1" points="39.15 63.55 47.9 76.01 50.21 76.01 40.54 62.23 39.15 63.55"/><polygon class="cls-1" points="37.77 64.87 45.58 76.01 47.9 76.01 39.15 63.55 37.77 64.87"/><path class="cls-1" d="M51.11,77.9a2,2,0,0,1-.2.88,1.76,1.76,0,0,1-.4.5l17.82.52H81.49l-1.15-1.9Z"/><polygon class="cls-1" points="71.74 63.67 70.52 63.35 75.3 69.56 71.74 63.67"/><polygon class="cls-1" points="31.73 67.28 35.27 61.31 34.63 60.41 22.61 76.01 25.01 76.01 31.73 67.28"/><path class="cls-1" d="M23.55,77.9H21.67a2,2,0,0,0,.08.54l28.76.84a1.76,1.76,0,0,0,.4-.5,2,2,0,0,0,.2-.88H23.55Z"/><path class="cls-1" d="M22.61,76l-.56.74a1.87,1.87,0,0,0-.38,1.15h1.88L25,76Z"/><polygon class="cls-1" points="35.27 61.31 35.69 60.6 34.75 60.25 34.63 60.41 35.27 61.31"/><path class="cls-1" d="M77.87,76H50.21l.57.81a1.91,1.91,0,0,1,.33,1.08H80.34l-5-8.34-4.78-6.21-3-.77Z"/><polygon class="cls-1" points="27.19 74.94 31.73 67.28 25.01 76.01 27.4 76.01 31.06 71.26 27.19 74.94"/><path class="cls-1" d="M50.78,76.82,50.21,76H47.89l1.33,1.89h1.89A1.91,1.91,0,0,0,50.78,76.82Z"/><polygon class="cls-1" points="27.4 76.01 25.01 76.01 23.55 77.9 49.23 77.9 47.9 76.01 45.58 76.01 27.4 76.01"/></svg>