<svg id="Layer_1" data-name="Layer 1" xmlns="http://www.w3.org/2000/svg" viewBox="0 0 85.04 85.04"><defs><style>.cls-1{fill:#5a6176;}</style></defs><title>Artboard 33 copy 33</title><path class="cls-1" d="M75.52,40.5l8.1-3.24-2.47-9.44L80.93,27l-8.65,1.15a32.79,32.79,0,0,0-2.19-3.84l5.4-6.86L68,9.85l-6.92,5.32a33.26,33.26,0,0,0-3.81-2.23L58.52,4.3,48.25,1.48,44.92,9.55a32.91,32.91,0,0,0-4,0h-.4l-3.24-8.1L27,4.11l1.15,8.65A32.8,32.8,0,0,0,24.27,15l-6.86-5.4L9.85,17,15.17,24a33.26,33.26,0,0,0-2.23,3.81L4.3,26.52,1.48,36.79l8.06,3.33a32.79,32.79,0,0,0,0,4.42l-8.1,3.24,2.69,10.3,8.65-1.15A32.79,32.79,0,0,0,15,60.77l-5.4,6.86L17,75.19,24,69.87a33.25,33.25,0,0,0,3.81,2.23l-1.25,8.64,10.27,2.81,3.33-8.06a32.81,32.81,0,0,0,4.42,0l3.24,8.1,10.3-2.69-1.15-8.65a32.8,32.8,0,0,0,3.84-2.19l6.86,5.4L75.19,68l-5.32-6.92a33.24,33.24,0,0,0,2.23-3.81l8.64,1.25,2.81-10.27-8.06-3.33A32.81,32.81,0,0,0,75.52,40.5ZM30.67,21.77A3.71,3.71,0,1,1,27,25.48,3.71,3.71,0,0,1,30.67,21.77Zm-.55,42a1.93,1.93,0,0,1-3.87,0V54.32h3.87Zm5,0a1.93,1.93,0,0,1-3.87,0V54.32h3.87Zm5.13-17.56c-1.55.46-2-1.34-2-1.34L35.7,36.51s-.13-.64-.62-.51-.3.83-.3.83l4.33,15.71H22.22l4.33-15.71s.18-.69-.3-.83-.62.51-.62.51l-2.49,8.38s-.47,1.8-2,1.34-1-2.3-1-2.3l3.08-10s1.1-2.9,3.54-2.9h1.44l.35-.93h.83l.08.93.08.92,1.16,14,1.16-14L31.9,31l.08-.93h.83l.35.93H34.6c2.44,0,3.54,2.9,3.54,2.9l3.08,10S41.78,45.77,40.21,46.23ZM53.73,19.39a3.88,3.88,0,1,1-3.88,3.88A3.88,3.88,0,0,1,53.73,19.39ZM53.2,63.51a2.21,2.21,0,0,1-2.28,2.21,2.28,2.28,0,0,1-2.15-2.31V54.32H53.2Zm5.49,0a2.21,2.21,0,0,1-2.28,2.21,2.28,2.28,0,0,1-2.15-2.31V54.32h4.43Zm3.95-17h-.12A1.5,1.5,0,0,1,61,45.15l-.69-9a.72.72,0,0,0-1.44.11L60,52.55H47.42l1.14-16.29a.72.72,0,0,0-1.44-.11l-.69,9a1.5,1.5,0,0,1-1.75,1.36,1.55,1.55,0,0,1-1.23-1.66l.76-9.93a5.86,5.86,0,0,1,5.85-5.42h1l.46-1.23h.84l.1,1.23.05.67,1.21,15.14,1.21-15.14.05-.67.1-1.23h.84l.46,1.23h1a5.86,5.86,0,0,1,5.85,5.42l.76,10A1.5,1.5,0,0,1,62.64,46.53Z"/><polygon class="cls-1" points="48.43 46.95 49.38 47.45 51.34 43.76 50.75 43.61 48.43 46.95"/><polygon class="cls-1" points="30.67 52.54 30.11 52.54 30.11 52.55 31.21 52.55 31.21 52.54 30.67 52.54"/><polygon class="cls-1" points="32.99 44.4 34.9 47.99 35.81 47.5 33.55 44.27 32.99 44.4"/><polygon class="cls-1" points="25.52 47.5 26.44 47.99 28.34 44.4 27.78 44.27 25.52 47.5"/><polygon class="cls-1" points="56.13 43.76 58.09 47.45 59.04 46.95 56.72 43.61 56.13 43.76"/></svg>