<?xml version="1.0" encoding="UTF-8" standalone="no"?>
<svg
   xmlns:dc="http://purl.org/dc/elements/1.1/"
   xmlns:cc="http://creativecommons.org/ns#"
   xmlns:rdf="http://www.w3.org/1999/02/22-rdf-syntax-ns#"
   xmlns:svg="http://www.w3.org/2000/svg"
   xmlns="http://www.w3.org/2000/svg"
   xmlns:sodipodi="http://sodipodi.sourceforge.net/DTD/sodipodi-0.dtd"
   xmlns:inkscape="http://www.inkscape.org/namespaces/inkscape"
   id="Layer_1"
   data-name="Layer 1"
   viewBox="0 0 85.04 85.04"
   version="1.1"
   sodipodi:docname="SDG5_3.svg"
   inkscape:version="0.92.3 (2405546, 2018-03-11)">
  <metadata
     id="metadata67">
    <rdf:RDF>
      <cc:Work
         rdf:about="">
        <dc:format>image/svg+xml</dc:format>
        <dc:type
           rdf:resource="http://purl.org/dc/dcmitype/StillImage" />
        <dc:title>Artboard 33 copy 13</dc:title>
      </cc:Work>
    </rdf:RDF>
  </metadata>
  <sodipodi:namedview
     pagecolor="#ffffff"
     bordercolor="#666666"
     borderopacity="1"
     objecttolerance="10"
     gridtolerance="10"
     guidetolerance="10"
     inkscape:pageopacity="0"
     inkscape:pageshadow="2"
     inkscape:window-width="640"
     inkscape:window-height="480"
     id="namedview65"
     showgrid="false"
     inkscape:zoom="2.7751646"
     inkscape:cx="42.52"
     inkscape:cy="42.52"
     inkscape:window-x="0"
     inkscape:window-y="0"
     inkscape:window-maximized="0"
     inkscape:current-layer="Layer_1" />
  <defs
     id="defs4">
    <style
       id="style2">.cls-1{fill:#5a6176;}</style>
  </defs>
  <title
     id="title6">Artboard 33 copy 13</title>
  <path
     class="cls-1"
     d="M36.93,60c-.13-.26-1-1-3.68-1.7a39.84,39.84,0,0,0-9.42-1,39.84,39.84,0,0,0-9.42,1c-2.68.68-3.55,1.44-3.68,1.7.13.26,1,1,3.68,1.7a39.84,39.84,0,0,0,9.42,1,39.84,39.84,0,0,0,9.42-1C35.93,61.07,36.8,60.31,36.93,60Z"
     id="path8" />
  <path
     class="cls-1"
     d="M9.45,60c0,2.2,6.44,4,14.37,4S38.2,62.25,38.2,60v2.89c0,2.2-6.44,4-14.37,4s-14.37-1.78-14.37-4"
     id="path10" />
  <path
     class="cls-1"
     d="M9.45,65c0,2.2,6.44,4,14.37,4S38.2,67.23,38.2,65v2.89c0,2.2-6.44,4-14.37,4s-14.37-1.78-14.37-4"
     id="path12" />
  <path
     class="cls-1"
     d="M9.45,70c0,2.2,6.44,4,14.37,4S38.2,72.22,38.2,70v2.89c0,2.2-6.44,4-14.37,4s-14.37-1.78-14.37-4"
     id="path14" />
  <path
     class="cls-1"
     d="M9.45,75c0,2.2,6.44,4,14.37,4S38.2,77.2,38.2,75V77.9c0,2.2-6.44,4-14.37,4S9.45,80.1,9.45,77.9"
     id="path16" />
  <path
     class="cls-1"
     d="M49.14,47.8l.76.21Z"
     id="path18" />
  <path
     class="cls-1"
     d="M45.94,46.27l0,0Z"
     id="path20" />
  <path
     class="cls-1"
     d="M47,47a10.26,10.26,0,0,0,1,.42A10.26,10.26,0,0,1,47,47Z"
     id="path22" />
  <path
     class="cls-1"
     d="M47,47l-.43-.24Z"
     id="path24" />
  <path
     class="cls-1"
     d="M50.25,46.79a39.84,39.84,0,0,0,9.42,1,39.84,39.84,0,0,0,9.42-1c2.68-.68,3.55-1.44,3.68-1.7-.13-.26-1-1-3.68-1.7a39.84,39.84,0,0,0-9.42-1,39.84,39.84,0,0,0-9.42,1c-2.68.68-3.55,1.44-3.68,1.7C46.7,45.35,47.57,46.11,50.25,46.79Z"
     id="path26" />
  <path
     class="cls-1"
     d="M56.78,49c.94.05,1.9.08,2.9.08h0C58.68,49.07,57.71,49,56.78,49Z"
     id="path28" />
  <path
     class="cls-1"
     d="M72.2,47a10.77,10.77,0,0,1-1,.43A10.77,10.77,0,0,0,72.2,47Z"
     id="path30" />
  <path
     class="cls-1"
     d="M73.59,46.09a3.23,3.23,0,0,1-.42.37A3.23,3.23,0,0,0,73.59,46.09Z"
     id="path32" />
  <path
     class="cls-1"
     d="M73.59,46.09a1.47,1.47,0,0,0,.45-1h0A1.47,1.47,0,0,1,73.59,46.09Z"
     id="path34" />
  <path
     class="cls-1"
     d="M72.92,46.64c-.15.1-.32.19-.49.29C72.6,46.83,72.77,46.74,72.92,46.64Z"
     id="path36" />
  <path
     class="cls-1"
     d="M70.31,47.77l-1,.27Z"
     id="path38" />
  <path
     class="cls-1"
     d="M56.08,48.94l-1.35-.12Z"
     id="path40" />
  <path
     class="cls-1"
     d="M45.3,45.09c0,2.2,6.44,4,14.37,4S74,47.29,74,45.09V48c0,2.2-6.44,4-14.37,4S45.3,50.18,45.3,48"
     id="path42" />
  <path
     class="cls-1"
     d="M45.3,50.08c0,2.2,6.44,4,14.37,4S74,52.27,74,50.08V53c0,2.2-6.44,4-14.37,4S45.3,55.17,45.3,53"
     id="path44" />
  <path
     class="cls-1"
     d="M45.3,55.06c0,2.2,6.44,4,14.37,4S74,57.26,74,55.06V58c0,2.2-6.44,4-14.37,4S45.3,60.15,45.3,58"
     id="path46" />
  <path
     class="cls-1"
     d="M45.3,60c0,2.2,6.44,4,14.37,4S74,62.25,74,60v2.89c0,2.2-6.44,4-14.37,4s-14.37-1.78-14.37-4"
     id="path48" />
  <path
     class="cls-1"
     d="M45.3,65c0,2.2,6.44,4,14.37,4S74,67.23,74,65v2.89c0,2.2-6.44,4-14.37,4s-14.37-1.78-14.37-4"
     id="path50" />
  <path
     class="cls-1"
     d="M45.3,70c0,2.2,6.44,4,14.37,4S74,72.22,74,70v2.89c0,2.2-6.44,4-14.37,4s-14.37-1.78-14.37-4"
     id="path52" />
  <path
     class="cls-1"
     d="M45.3,75c0,2.2,6.44,4,14.37,4S74,77.2,74,75V77.9c0,2.2-6.44,4-14.37,4S45.3,80.1,45.3,77.9"
     id="path54" />
  <path
     class="cls-1"
     d="M27.26,23.69a3.43,3.43,0,1,0-3.43,3.43,3.43,3.43,0,0,0,3.43-3.43"
     id="path56" />
  <path
     class="cls-1"
     d="M16.91,31.46l-2.85,9.29s-.51,1.7.93,2.13,1.87-1.24,1.87-1.24l2.3-7.75s.12-.6.57-.47.28.77.28.77L16,48.71h3.72v10.4a1.79,1.79,0,0,0,3.58,0V48.71h1v10.4a1.79,1.79,0,0,0,3.58,0V48.71h3.72l-4-14.53s-.17-.64.28-.77.57.47.57.47l2.3,7.75s.44,1.66,1.87,1.24.94-2.13.94-2.13l-2.85-9.29s-1-2.68-3.28-2.68H20.19c-2.26,0-3.28,2.68-3.28,2.68"
     id="path58" />
  <path
     class="cls-1"
     d="M56,6.13a3.62,3.62,0,1,1,3.63,3.62A3.63,3.63,0,0,1,56,6.13"
     id="path60" />
  <path
     class="cls-1"
     d="M63.91,11.16A4.83,4.83,0,0,1,68.29,16V26a1.4,1.4,0,0,1-2.81,0V17.39c0-.32-.09-.76-.69-.76-.41,0-.49.43-.51.71V43.2a2,2,0,0,1-4,0V28.29a.55.55,0,0,0-.57-.59h0a.56.56,0,0,0-.58.59V43.2a2,2,0,1,1-4,0V17.34c0-.28-.1-.71-.51-.71-.59,0-.68.44-.68.76V26a1.4,1.4,0,0,1-2.81,0V16a4.83,4.83,0,0,1,4.39-4.81l.27,0h7.92l.28,0"
     id="path62" />
</svg>
