<svg id="Layer_1" data-name="Layer 1" xmlns="http://www.w3.org/2000/svg" viewBox="0 0 85.04 85.04"><defs><style>.cls-1{fill:#5a6176;}</style></defs><title>Artboard 16</title><path class="cls-1" d="M73.81,37.67h0a.05.05,0,0,0,0,.07.06.06,0,0,0,.07,0,.05.05,0,0,0,0-.1Z"/><path class="cls-1" d="M66.06,41.47h0a.05.05,0,0,0,0,.07.06.06,0,0,0,.07,0,.06.06,0,0,0,0-.07A.05.05,0,0,0,66.06,41.47Z"/><path class="cls-1" d="M72.58,33.23a.13.13,0,0,0,0,.1.14.14,0,0,0,.18.06.14.14,0,0,0,.06-.18.14.14,0,0,0-.12-.08h-.06a.13.13,0,0,0-.07.08Z"/><path class="cls-1" d="M63.27,37.89l0,0a.14.14,0,0,0,.15,0,.13.13,0,0,0,.07-.08h0a.14.14,0,0,0-.08-.17h-.11l0,0h0l0,0a.14.14,0,0,0,0,0,.13.13,0,0,0,0,0v.05Z"/><path class="cls-1" d="M75.58,46.09,75.41,46l0,0-.13.11A45.31,45.31,0,0,1,66,63.5a46.1,46.1,0,0,1-5.66-6.43,45.41,45.41,0,0,1-8.7-25.83l8.24,2.1h0l.25-1.12-9.63-2.45a1.54,1.54,0,0,0-1.46.39,46.9,46.9,0,0,0-13.58,27.6l-.85-29.6A26.77,26.77,0,0,0,59.67,1.42,26.77,26.77,0,0,0,32.9,28h0l-.42,14.7A26.78,26.78,0,0,0,6.15,20.87,26.77,26.77,0,0,0,32.32,47.63l-1,36h4.85l-.51-17.57a46.73,46.73,0,0,0,23.74-8.3,46.62,46.62,0,0,1-5.49-9.89,46.63,46.63,0,0,0,5.49,9.89A47.14,47.14,0,0,0,66,65.15,46.75,46.75,0,0,0,76.26,46.57l-.54-.37Z"/><path class="cls-1" d="M71.66,46.19a7.33,7.33,0,0,0,1.36-.5,7.2,7.2,0,0,0,1.23-.77,7.66,7.66,0,0,0,.91-.82,24.67,24.67,0,0,1-3-2.44,29.83,29.83,0,0,1-2.48-2.71,29.87,29.87,0,0,1,.62,3.62,24.75,24.75,0,0,1,.12,3.84A7.49,7.49,0,0,0,71.66,46.19Z"/><path class="cls-1" d="M77.92,41.83a1.48,1.48,0,1,1,1-2.76A10.18,10.18,0,0,0,77,33.47a10.37,10.37,0,0,0-1.76-1.94,9.61,9.61,0,0,0-1.92-1.28A8.91,8.91,0,0,0,72,29.69a8.4,8.4,0,0,0-.91-.23l-.08.13h0a10.25,10.25,0,0,1-4.14,3.57,11.49,11.49,0,0,1-1.15.48,10.54,10.54,0,0,1-2.28.56h-.15a8.84,8.84,0,0,1-1.78,0h-.16a8.47,8.47,0,0,0-.37.86,8.94,8.94,0,0,0-.38,1.37,9.58,9.58,0,0,0-.17,2.32,10.32,10.32,0,0,0,.46,2.57,10.18,10.18,0,0,0,3.29,4.91h0a1.48,1.48,0,1,1,2.4,1.41,7.27,7.27,0,0,0,3.69.41s0-.1,0-.15,0-.07,0-.1q0-.7-.09-1.39-.15-1.91-.47-3.78T68.93,39c-.14-.54-.28-1.09-.44-1.63l-.57-1.93-.09-.29.24.33L69.19,37c.33.46.67.9,1,1.35q1.16,1.49,2.43,2.89t2.69,2.68l.36.32.69.61.07.05.13.09.14-.14a7.3,7.3,0,0,0,1.79-3A1.47,1.47,0,0,1,77.92,41.83ZM66.73,42.9a1.54,1.54,0,0,1-1.35-2.76l.15-.06a1.53,1.53,0,0,1,1.2,2.82Zm-4-6.53a1.62,1.62,0,0,1,1.43,2.91l-.14.05a1.62,1.62,0,0,1-1.28-3Zm9.76,2a1.56,1.56,0,0,1,.7-2.05h0a1.54,1.54,0,1,1-.7,2.06Zm1.73-5.84a1.62,1.62,0,0,1-.74,2.17h0a1.62,1.62,0,1,1,.75-2.17Z"/><path class="cls-1" d="M59.21,28a.39.39,0,0,0-.18.53L59.77,30l1.46.71.21.1.27.13.26.13a3.45,3.45,0,0,0-.43,1.21v0l-.05.21h0c0,.06,0,.11,0,.17a3.86,3.86,0,0,0,.07.9h.18a8.38,8.38,0,0,0,1.62,0,9.75,9.75,0,0,0,1.26-.25l.1,0a10.59,10.59,0,0,0,3.61-1.77,9,9,0,0,0,2.07-2.16l0-.06,0-.07h0a3.85,3.85,0,0,0-.67-.61l-.14-.1v0l-.19-.09h0A3.5,3.5,0,0,0,68.07,28l.06-.29.06-.29,0-.22.31-1.46-.74-1.52a.39.39,0,0,0-.71.35l.63,1.28-.28,1.37,0,.21-.06.3-.06.3h-.13a6.75,6.75,0,0,0-1.52.4c-.29.11-.58.23-.87.37s-.56.3-.83.46a6.37,6.37,0,0,0-1.48,1.21l-.27-.13-.28-.14-.19-.09-1.35-.66-.63-1.28A.4.4,0,0,0,59.21,28Zm6.72,1.09a6.3,6.3,0,0,1,1.54-.38l.05,0h.13l.13,0a3.54,3.54,0,0,1,1.31.19,1.9,1.9,0,0,1-.13.34l-.08.13a1.88,1.88,0,0,1-2.24.83l-.24-.11-.22-.14a1.93,1.93,0,0,1-.62-.7Zm-1.68.82.34-.2a1.92,1.92,0,0,1,.17.93,1.85,1.85,0,0,1,0,.26,1.87,1.87,0,0,1-2.08,1.51l-.16,0a1.9,1.9,0,0,1-.36-.11A4.61,4.61,0,0,1,64.25,29.91Z"/></svg>