<svg id="Layer_1" data-name="Layer 1" xmlns="http://www.w3.org/2000/svg" viewBox="0 0 86 86"><defs><style>.cls-1{fill:#5a6176;}</style></defs><circle class="cls-1" cx="43.22" cy="18.19" r="12.27" transform="translate(-3.02 10.42) rotate(-13.28)"/><path class="cls-1" d="M81.54,66.49h0a2.81,2.81,0,0,0-2.62.3l-7.19,5L55.49,60.3V41l7.39-4.11A35.88,35.88,0,0,0,76.05,24.3L80.51,17a4.18,4.18,0,0,0-1-5.62,4,4,0,0,0-5.73,1.21l-5,8.18a24.64,24.64,0,0,1-9,8.63,24.55,24.55,0,0,1-11.93,3.09h-9.1a24.56,24.56,0,0,1-21-11.72l-4.93-8a4.16,4.16,0,0,0-5.3-1.67,4,4,0,0,0-1.68,5.74l4.58,7.45A35.85,35.85,0,0,0,23.55,36.91L31,41V60.3L14.71,71.79,8.87,67.74a8.11,8.11,0,0,0-4-1.25h0A2.18,2.18,0,0,0,3.14,70L10,79.37a4.24,4.24,0,0,0,5.1,1.4l23.45-10.1a11.84,11.84,0,0,1,9.34,0l23.44,10.1a4.26,4.26,0,0,0,5.11-1.4l6.31-8.66A2.78,2.78,0,0,0,81.54,66.49ZM52,44.88l-8.65,8.66-8.66-8.66a4.71,4.71,0,1,1,6.67-6.66l2,2,2-2A4.71,4.71,0,1,1,52,44.88Z"/><path class="cls-1" d="M44.9,47.61a2.25,2.25,0,0,1-3.2,0l-2.06-2.06a1.41,1.41,0,0,1,2-2l1.67,1.67,4.32-4.33a1.41,1.41,0,0,1,2,2Z"/></svg>