<?xml version="1.0" encoding="utf-8"?>
<!-- Generator: Adobe Illustrator 16.0.5, SVG Export Plug-In . SVG Version: 6.00 Build 0)  -->
<!DOCTYPE svg PUBLIC "-//W3C//DTD SVG 1.1//EN" "http://www.w3.org/Graphics/SVG/1.1/DTD/svg11.dtd">
<svg version="1.1" id="Layer_1" xmlns="http://www.w3.org/2000/svg" xmlns:xlink="http://www.w3.org/1999/xlink" x="0px" y="0px"
	 width="85.04px" height="85.04px" viewBox="0 0 85.04 85.04" enable-background="new 0 0 85.04 85.04" xml:space="preserve">
<g>
	<defs>
		<rect id="SVGID_1_" width="85.04" height="85.04"/>
	</defs>
	<clipPath id="SVGID_2_">
		<use xlink:href="#SVGID_1_"  overflow="visible"/>
	</clipPath>
	<path clip-path="url(#SVGID_2_)" fill="#566177" d="M71.722,17.812l-0.949-3.474v-1.309c0-0.155-0.126-0.282-0.282-0.282
		c-0.155,0-0.283,0.127-0.283,0.282v4.189v0.603l0.317-0.002L71.722,17.812z"/>
	<path clip-path="url(#SVGID_2_)" fill="#566177" d="M66.705,52.106c-4.742,0-8.985,2.104-11.874,5.42L33.606,46.377
		c0.307-1.226,0.486-2.502,0.486-3.822c0-1.321-0.18-2.597-0.486-3.823L54.874,27.56c2.888,3.287,7.111,5.373,11.831,5.373
		c8.703,0,15.758-7.055,15.758-15.758S75.408,1.417,66.705,1.417S50.947,8.472,50.947,17.175c0,1.312,0.178,2.579,0.479,3.797
		L30.148,32.15c-2.888-3.276-7.103-5.353-11.813-5.353c-8.704,0-15.758,7.055-15.758,15.758c0,8.702,7.054,15.757,15.758,15.757
		c4.71,0,8.925-2.077,11.813-5.354l21.263,11.169c-0.292,1.2-0.464,2.447-0.464,3.736c0,8.703,7.055,15.758,15.758,15.758
		s15.758-7.055,15.758-15.758S75.408,52.106,66.705,52.106 M62.128,14.122l0.015-1.901c0.013-1.62,1.301-2.937,2.872-2.937H66.7
		c-0.84-0.242-1.459-1.008-1.459-1.926c0-1.111,0.901-2.012,2.013-2.012s2.013,0.901,2.013,2.012c0,0.918-0.619,1.684-1.459,1.926
		h1.803c1.584,0,2.872,1.328,2.872,2.96v1.864l1.076,3.938c0.122,0.448-0.112,0.936-0.557,1.076
		c-0.086,0.028-0.173,0.041-0.259,0.041c-0.33,0-0.636-0.193-0.776-0.498l-1.759,0.902v9.495c0,0.741-0.624,1.336-1.375,1.287
		c-0.685-0.044-1.203-0.644-1.203-1.331V20.86v-1.078c0-0.17-0.139-0.309-0.31-0.309s-0.31,0.139-0.31,0.309v1.403v7.877
		c0,0.741-0.624,1.336-1.375,1.287c-0.685-0.044-1.203-0.644-1.203-1.331v-6.479v-2.972l-1.76-0.902
		c-0.182,0.396-0.644,0.604-1.075,0.443c-0.42-0.156-0.632-0.625-0.517-1.056l0.666-2.5L62.128,14.122z M25.465,52.809
		c-1.264,0.819-3.348,1.538-5.808,1.538c-3.519,0-6.594-1.436-8.541-3.896c-1.093-1.264-1.81-2.87-2.151-4.681H6.641v-2.152h2.05
		v-0.546c0-0.41,0.034-0.821,0.068-1.231H6.675v-2.152H9.1c0.479-1.947,1.402-3.69,2.734-5.056c1.981-2.05,4.714-3.314,7.961-3.314
		c2.253,0,4.201,0.547,5.5,1.162l-0.751,2.613l-0.171,0.598c-0.158-0.079-0.351-0.153-0.533-0.228
		c-1.001-0.416-2.328-0.763-3.773-0.763c-1.947,0-3.655,0.684-4.885,2.016c-0.752,0.752-1.264,1.845-1.571,2.972h2.185h7.96v2.152
		H13.132c-0.069,0.377-0.069,0.786-0.069,1.196v0.581h10.693v2.152h-7.293h-2.956c0.274,1.298,0.821,2.357,1.573,3.108
		c1.298,1.3,3.108,1.947,5.124,1.947c1.677,0,3.222-0.499,4.131-0.92c0.128-0.06,0.244-0.118,0.344-0.173l0.105,0.408L25.465,52.809
		z M67.315,54.645c1.247,0,2.257,1.01,2.257,2.257c0,1.246-1.01,2.257-2.257,2.257c-1.246,0-2.257-1.011-2.257-2.257
		C65.059,55.654,66.069,54.645,67.315,54.645 M72.694,64.473v1.978v2.593c0,0.514-0.442,0.923-0.967,0.869
		c-0.456-0.047-0.785-0.466-0.785-0.925v-2.493v-0.347c-0.002-0.026,0-0.049,0-0.075v-0.083v-2.14c0-0.2-0.167-0.362-0.367-0.365
		c-0.2,0.003-0.362,0.165-0.362,0.365v1.757v2.275v11.916c0,0.59-0.397,1.08-0.937,1.234c-0.023,0.007-0.047,0.013-0.071,0.018
		c-0.05,0.013-0.103,0.021-0.156,0.026c-0.016,0.002-0.031,0.007-0.049,0.009c-0.027,0.001-0.054-0.004-0.081-0.004
		s-0.054,0.005-0.081,0.004c-0.017-0.002-0.034-0.007-0.05-0.009c-0.053-0.005-0.105-0.014-0.156-0.026
		c-0.023-0.005-0.047-0.011-0.07-0.018c-0.539-0.154-0.937-0.645-0.937-1.234v-7.152v-2.132c0-0.168-0.137-0.305-0.305-0.305
		s-0.304,0.137-0.304,0.305v1.813v7.472c0,0.59-0.397,1.08-0.937,1.234c-0.023,0.007-0.048,0.013-0.072,0.018
		c-0.05,0.013-0.102,0.021-0.154,0.026c-0.018,0.002-0.033,0.007-0.052,0.009c-0.026,0.001-0.052-0.004-0.079-0.004
		s-0.054,0.005-0.081,0.004c-0.018-0.002-0.033-0.007-0.052-0.009c-0.052-0.005-0.104-0.014-0.154-0.026
		c-0.023-0.005-0.047-0.011-0.07-0.018c-0.54-0.154-0.938-0.645-0.938-1.234v-8.832V63.85c0-0.2-0.16-0.362-0.36-0.365
		c-0.201,0.003-0.367,0.165-0.367,0.365v2.223c0,0.026,0.002,0.049,0,0.075v2.84c0,0.459-0.329,0.878-0.786,0.925
		c-0.523,0.054-0.966-0.355-0.966-0.869V66.45v-1.978v-1.275c0-0.618,0.183-1.189,0.486-1.678c0.563-0.908,1.562-1.519,2.709-1.519
		h0.011h4.335h0.01c1.766,0,3.196,1.431,3.196,3.196V64.473z"/>
	<path clip-path="url(#SVGID_2_)" fill="#566177" d="M64.433,14.141v-1.1c0-0.162-0.131-0.294-0.293-0.294
		c-0.161,0-0.293,0.131-0.294,0.292l-0.01,1.314l-0.032,0.119l-0.891,3.34l1.52,0.009V14.141z"/>
</g>
</svg>
