<svg id="Layer_1" data-name="Layer 1" xmlns="http://www.w3.org/2000/svg" viewBox="0 0 85.04 85.04"><defs><style>.cls-1{fill:#5a6176;}</style></defs><title>Artboard 17</title><polygon class="cls-1" points="49.55 81.48 54.24 81.48 54.24 63.92 55.74 61.2 49.55 64.74 49.55 81.48"/><path class="cls-1" d="M19.6,64.09a6.63,6.63,0,0,0,1.09-1.92L19,61.93l-.51-.07a6.61,6.61,0,0,0-.92-.07,6.49,6.49,0,0,0-6.46,6.48v7.91l.35,5.3H15.8V68.27A7.91,7.91,0,0,1,16,66.33l.09,0,.47,1.57A.75.75,0,1,0,18,67.45l-.5-1.68a6.62,6.62,0,0,0,1-.63l.91,1.38a.75.75,0,0,0,1.25-.83Z"/><path class="cls-1" d="M60.42,50.12a3.85,3.85,0,0,1-.71-3.32l.64-2.59-2.62-7.46-.58,0a9.39,9.39,0,0,1-8.43-5.3H14.35a11.62,11.62,0,0,0-1.83.14,11.44,11.44,0,0,0-4.37,1.66l-.48.32a11.58,11.58,0,0,0-1.73,1.51l-.38.43a11.46,11.46,0,0,0-2.72,7,11.7,11.7,0,0,0,0,1.23L5.35,81.48H9.7V68.27c0-.26,0-.51,0-.77v-.07c0-.24.06-.47.11-.71l0-.1c0-.23.11-.45.17-.66l0-.11q.1-.32.23-.63l0-.1v0h0c.09-.2.18-.39.28-.58l0-.07c.12-.21.24-.41.37-.6h0c.13-.2.28-.39.43-.57l0,0c.15-.18.3-.35.47-.51l.06-.06c.16-.16.33-.31.5-.45l.08-.06q.26-.21.53-.39l.09-.06c.19-.12.38-.24.57-.35l.08,0c.2-.11.41-.21.63-.3h0q.33-.14.67-.24h0c.22-.07.45-.13.69-.18l.08,0c.22,0,.45-.08.68-.1h.11q.34,0,.69,0h.66l.51.05L21,60.8h.1L36.34,63l.58.11a7.78,7.78,0,0,1,3.27,1.57q.27.22.52.46t.48.5a7.87,7.87,0,0,1,1.93,5.17V81.48h5V63.92l8.28-4.73,1.33-1.66,4.82-6A3.83,3.83,0,0,1,61.36,51,3.89,3.89,0,0,1,60.42,50.12Z"/><path class="cls-1" d="M82,30.12,81.71,30l-.57-.24-.13,0-.57-.18-.08,0-.52-.12-.12,0-.57-.08H79l-.51,0h-.15l-.53,0h-.14l-.48.05-.12,0-.56.11-.12,0-.46.13-.13,0-.53.2-.1,0-.44.21-.12.06-.5.29-.07,0-.42.29-.12.09c-.15.12-.3.24-.45.37l0,0-.39.37-.11.11c-.13.14-.27.29-.39.44h0l-.28-.43-.2-.31-1-1.52a5.33,5.33,0,0,0-4.49-2.46h-.52a5.33,5.33,0,0,0-4.49,2.46l-.08.12-.9,1.4-.48.75c-.12-.15-.26-.3-.39-.45l-.11-.11-.19-.19h0l-.19-.18,0,0c-.15-.13-.3-.25-.45-.37l-.12-.09-.41-.28-.07,0-.5-.28-.13-.07-.11,0h0l-.34-.16-.1,0-.53-.2-.13,0-.46-.13-.12,0-.56-.11-.12,0-.48-.05h-.14l-.53,0h-.15l-.51,0h-.11l-.57.08-.12,0-.52.12-.08,0-.57.18-.13,0-.57.24-.14.07-.35.19c.07.17.13.35.21.52h0c.09.2.19.39.3.57l.08.13,0,.05.23.36.14.2.24.31.16.19.26.29.16.17.31.29.15.13c.16.13.31.26.48.38l0,0,.46.3.18.1.35.19.21.1.34.15.22.09.36.13.22.07.41.11.18,0,.6.11h.08l.53.05h.59l.48,0,.23,0c.24,0,.48-.06.72-.1l3.14,8.93-.75,3a2.46,2.46,0,0,0,.83,2.51l.13.09a2.44,2.44,0,0,0,.33.21l.26.11a2.44,2.44,0,0,0,.41.11,2.5,2.5,0,0,0,.44,0h5l.3,0a2.44,2.44,0,0,0,.81-.24l.24-.14a2.49,2.49,0,0,0,1.07-1.53,2.44,2.44,0,0,0,0-.85,2.52,2.52,0,0,0-.05-.29l-.75-3,3.14-8.93c.24,0,.48.08.72.1l.23,0,.48,0h.59l.53-.05h.08l.6-.11.18,0,.41-.11.21-.07.36-.13.22-.09.35-.16.21-.1.36-.2.17-.1.47-.31,0,0c.16-.12.32-.25.48-.38l.14-.13L80.4,33l.16-.17.26-.29.16-.19.24-.32.14-.2.23-.37.11-.18c.11-.19.21-.38.3-.58s.14-.34.21-.52Z"/><path class="cls-1" d="M11,27.48h3.05c1.74-3.53.26-6.61-1-9.17-1.5-3.11-2.69-5.57.07-9H10c-2.24,4-.62,7.38.72,10.15S13.24,24.56,11,27.48Z"/><path class="cls-1" d="M20.54,27.48h3.05c1.74-3.53.26-6.61-1-9.17-1.5-3.11-2.69-5.57.07-9H19.55c-2.24,4-.62,7.38.72,10.15S22.74,24.56,20.54,27.48Z"/><path class="cls-1" d="M30,27.48H33.1c1.74-3.53.26-6.61-1-9.17-1.5-3.11-2.69-5.57.07-9H29.05c-2.24,4-.62,7.38.72,10.15S32.24,24.56,30,27.48Z"/><path class="cls-1" d="M39.55,27.48H42.6c1.74-3.53.26-6.61-1-9.17-1.5-3.11-2.69-5.57.07-9H38.56c-2.24,4-.62,7.38.72,10.15S41.75,24.56,39.55,27.48Z"/><path class="cls-1" d="M50.07,17.49c0-1.32,0-2.47-.08-3.65H50A31.57,31.57,0,0,0,51.83,17l2.58,3.93h1.8V12.05H54.64v3.28a30.87,30.87,0,0,0,.14,3.53h0a21.1,21.1,0,0,0-1.67-3l-2.56-3.8h-2v8.84h1.57Z"/><polygon class="cls-1" points="59.86 17 64.13 17 64.13 20.89 65.82 20.89 65.82 12.05 64.13 12.05 64.13 15.55 59.86 15.55 59.86 12.05 58.16 12.05 58.16 20.89 59.86 20.89 59.86 17"/><path class="cls-1" d="M68.21,21.46a2.44,2.44,0,0,1-1.08-.3l-.22.68a2.89,2.89,0,0,0,1.42.32c1.14,0,1.82-.52,1.82-1.19a1,1,0,0,0-1-1v0c.52-.15.88-.49.88-.92s-.47-1-1.46-1a2.85,2.85,0,0,0-1.44.35l.21.64a2.15,2.15,0,0,1,1-.29c.45,0,.61.21.61.42,0,.39-.5.51-.88.51h-.36v.61H68c.49,0,1,.17,1,.58S68.77,21.46,68.21,21.46Z"/></svg>