<?xml version="1.0" encoding="UTF-8" standalone="no"?>
<svg
   xmlns:dc="http://purl.org/dc/elements/1.1/"
   xmlns:cc="http://creativecommons.org/ns#"
   xmlns:rdf="http://www.w3.org/1999/02/22-rdf-syntax-ns#"
   xmlns:svg="http://www.w3.org/2000/svg"
   xmlns="http://www.w3.org/2000/svg"
   xmlns:sodipodi="http://sodipodi.sourceforge.net/DTD/sodipodi-0.dtd"
   xmlns:inkscape="http://www.inkscape.org/namespaces/inkscape"
   id="Calque_1"
   data-name="Calque 1"
   viewBox="0 0 85.04 85.04"
   version="1.1"
   sodipodi:docname="SDG16_4.svg"
   inkscape:version="0.92.3 (2405546, 2018-03-11)">
  <metadata
     id="metadata15">
    <rdf:RDF>
      <cc:Work
         rdf:about="">
        <dc:format>image/svg+xml</dc:format>
        <dc:type
           rdf:resource="http://purl.org/dc/dcmitype/StillImage" />
        <dc:title>Perceived_independence_of_judiciary</dc:title>
      </cc:Work>
    </rdf:RDF>
  </metadata>
  <sodipodi:namedview
     pagecolor="#ffffff"
     bordercolor="#666666"
     borderopacity="1"
     objecttolerance="10"
     gridtolerance="10"
     guidetolerance="10"
     inkscape:pageopacity="0"
     inkscape:pageshadow="2"
     inkscape:window-width="640"
     inkscape:window-height="480"
     id="namedview13"
     showgrid="false"
     inkscape:zoom="2.7751646"
     inkscape:cx="42.52"
     inkscape:cy="42.52"
     inkscape:window-x="0"
     inkscape:window-y="0"
     inkscape:window-maximized="0"
     inkscape:current-layer="Calque_1" />
  <defs
     id="defs4">
    <style
       id="style2">.cls-1{fill:#5a6176;}</style>
  </defs>
  <title
     id="title6">Perceived_independence_of_judiciary</title>
  <path
     class="cls-1"
     d="M20.81,9.18a6.71,6.71,0,0,0,12.49,0h1.54a8.38,8.38,0,0,0,.32-2.25,8,8,0,0,0-.93-3.76H32.75a6.7,6.7,0,0,0-11.39,0H19.88a8,8,0,0,0-.6,6ZM33.66,6.93a6.28,6.28,0,0,1,0,.75H20.5a6.3,6.3,0,0,1-.05-.75,6.64,6.64,0,0,1,.4-2.26H33.26A6.41,6.41,0,0,1,33.66,6.93Z"
     id="path8" />
  <path
     class="cls-1"
     d="M79.21,34.57H78.4a.58.58,0,0,0,0-.23L74.16,21a1.19,1.19,0,0,0,.13-.89,1.24,1.24,0,0,0-1.5-.92l-9.68,2.3V11.35a3.14,3.14,0,0,0,.17-4.28,3.26,3.26,0,0,0-4.44-.32L56.48,8.58a1,1,0,0,0-1.4-.18l-7.83,6.07H30.93a1,1,0,0,0-1,.7c0,.11-.07.2-.1.3h-6a2.65,2.65,0,0,1-.11-.3,1,1,0,0,0-1-.7H20.54A7,7,0,0,0,14,18.9L6.32,38.51a1,1,0,0,0,0,.77,1.05,1.05,0,0,0,.55.53l-1.1,2.81A3.26,3.26,0,0,0,7.33,46.8a3.15,3.15,0,0,0,4.24-1.71l1.18-3h0a1,1,0,0,0,1.29-.57l2.39-6.06L9.69,78a1,1,0,0,0,.29.86,1,1,0,0,0,.7.3l.16,0,8-1.27v3.2a3.93,3.93,0,1,0,7.86,0V76.67l1.88-.3v4.74a3.94,3.94,0,0,0,7.87,0v-6l8.13-1.28a1,1,0,0,0,.66-.41,1,1,0,0,0,.17-.75L36.83,22.77H47.69A7,7,0,0,0,52,21.3L60,15.05a1,1,0,0,0,.2-1.38l0,0,.9-.7v9L51,24.33a1.24,1.24,0,0,0-.92,1.5,1.14,1.14,0,0,0,.35.6l-4.19,13.3a.73.73,0,0,0,0,.44h-.8a.29.29,0,0,0-.28.37,6.71,6.71,0,0,0,12.74,0,.29.29,0,0,0-.28-.37H56.8a.73.73,0,0,0,0-.44L52.65,26.51,71.71,22,67.82,34.34a.58.58,0,0,0,0,.23H67a.29.29,0,0,0-.28.37,6.71,6.71,0,0,0,12.74,0A.29.29,0,0,0,79.21,34.57ZM35.64,20.77a1,1,0,0,0-1,1.17L43.3,72l-6.82,1.08-7.87,1.24-1.88.3-7.86,1.24-7,1.1,8-50.25a1,1,0,0,0-.72-1.12.84.84,0,0,0-.27,0,1,1,0,0,0-.93.63L12.55,39.86l-4-1.55L15.9,19.64a5,5,0,0,1,4.64-3.17H22.1c1,2.55,2.78,4.11,4.77,4.11s3.77-1.56,4.77-4.11h16a1,1,0,0,0,.61-.21l7.3-5.65L58,14.07l-7.29,5.65a5,5,0,0,1-3.06,1.05Zm19.74,19.4H47.69L51.54,28Zm13.94-5.6,3.78-12,3.77,12Z"
     id="path10" />
</svg>
