<svg id="Calque_1" data-name="Calque 1" xmlns="http://www.w3.org/2000/svg" viewBox="0 0 85.04 85.04"><defs><style>.cls-1{fill:#5a6176;}</style></defs><title>Death_due_to_chronic_diseases</title><circle class="cls-1" cx="42.52" cy="15.55" r="11.3"/><path class="cls-1" d="M59.26,29.68H25.78A10.14,10.14,0,0,0,15.64,39.82V74.7a4.54,4.54,0,0,0,4.14,4.62A4.38,4.38,0,0,0,24.39,75V48.57a1.45,1.45,0,0,1,1.45-1.46H26a1.46,1.46,0,0,1,1.46,1.46v7.34h2l2.84-17.35H34l2.38,21.55,2.62-13L39,47h1.67l0,.08,1.84,8.83H51a2.28,2.28,0,1,1,0,1.71H41.2l-1.37-6.56L37.06,64.83H35.28L33,44.41,30.86,57.62H27.47V80.79H57.74V48.57a1.46,1.46,0,1,1,2.91,0V74.7a4.55,4.55,0,0,0,4.14,4.62A4.38,4.38,0,0,0,69.4,75V39.82A10.14,10.14,0,0,0,59.26,29.68Z"/></svg>