<svg id="Layer_1" data-name="Layer 1" xmlns="http://www.w3.org/2000/svg" viewBox="0 0 85.04 85.04"><defs><style>.cls-1{fill:#5a6176;}</style></defs><title>Artboard 33 copy 29</title><path class="cls-1" d="M29.11,73.05a1,1,0,0,1-1,1H25a1,1,0,0,1-1-1v-1.3A55.18,55.18,0,0,1,11.9,70v9.39A2.11,2.11,0,0,0,14,81.53h25a2.11,2.11,0,0,0,2.11-2.11V70a55.18,55.18,0,0,1-12.06,1.72Z"/><path class="cls-1" d="M35.66,62.28A7.28,7.28,0,0,1,31.59,61h0l-.19-.12V61H21.68v-1.1a.77.77,0,0,1,.77-.77h7.24a7.27,7.27,0,0,1-.83-1.6h-6.4a2.38,2.38,0,0,0-2.37,2.37V61H14a2.11,2.11,0,0,0-2.11,2.11v4.59a57.24,57.24,0,0,0,14.63,1.77,57.24,57.24,0,0,0,14.63-1.77V63.13a2.09,2.09,0,0,0-.18-.85Z"/><path class="cls-1" d="M60.82,58.1l-.47-.23c0,.26,0,.51,0,.78V78.78a6.24,6.24,0,0,1-.2,1.54,4.83,4.83,0,0,0,5.75-4.75V57.45a4.66,4.66,0,0,1-5.13.65Z"/><path class="cls-1" d="M71.31,47.13,55.92,39.49l-4-12.35-1.3-4-.07-.23v0a2.35,2.35,0,0,0-.26-.56,4.83,4.83,0,0,0-3.5-2.51l-5.19.37-4.06.29-.27,0h0A4.84,4.84,0,0,0,33,24.81L30.07,52.05l-.25,2.33a5.89,5.89,0,0,0,5.84,6.49H49.31V78.78a4.84,4.84,0,0,0,9.68,0V58.65a7.45,7.45,0,0,0-.16-1.53l-10.2-5.06-1.74-.86L42.47,49,39.3,39.86,37.86,35.7l-.4-1.15.78-1.21.19-.29L39,34.8,43.61,48l6.44,3.19,1.74.86,6.35,3.15,1.88.93,1.42.71a3.28,3.28,0,0,0,4.39-1.48c0-.08.06-.17.09-.25a3.26,3.26,0,0,0-1.34-4l-.07,0L64.35,51l-6-3L55.5,46.57l-5-2.47-1.27-.63-.32-.16L48.2,41.2,42.94,26.07l.93-1.43a4.7,4.7,0,0,1,.28.64L48.2,36.94l.47,1.34,1,2.8.43,1.23,8.61,4.27L65,49.71a4.74,4.74,0,0,1,2.38,2.78l1,.52a3.28,3.28,0,0,0,2.92-5.87Z"/><circle class="cls-1" cx="42.89" cy="9.89" r="8.47"/></svg>