<svg id="Layer_1" data-name="Layer 1" xmlns="http://www.w3.org/2000/svg" viewBox="0 0 85.04 85.04"><defs><style>.cls-1{fill:#5a6176;}</style></defs><title>Artboard 12</title><path class="cls-1" d="M41.62,44.12l-2-19.2A9.79,9.79,0,0,0,29.9,16.1H28.34a8.61,8.61,0,0,1-12.2,0H14.57A9.79,9.79,0,0,0,4.8,24.92l-2,19.2a2.73,2.73,0,0,0,5.39.77,11,11,0,0,1-.65-1.21,11.58,11.58,0,0,1-1-5.84,14,14,0,0,1,.23-1.48c.11-.48.22-.89.33-1.34.24-.88.49-1.76.78-2.63A32.94,32.94,0,0,1,9.75,28L8.13,36.23a13,13,0,0,0,2.69,10.9l.21.26.55.67,1.74,30.13a4.15,4.15,0,0,0,4.14,3.91h0a4.15,4.15,0,0,0,4.15-4.15V49.45h1.93V77.94a4.15,4.15,0,0,0,8.29.24L33.59,48l.08-.11.66-.86a13,13,0,0,0,2.41-10.62l-1.91-9a31.41,31.41,0,0,1,2,4.9c.29.87.54,1.75.78,2.63.12.45.22.87.33,1.34a14,14,0,0,1,.23,1.48,11.58,11.58,0,0,1-1,5.84,10.88,10.88,0,0,1-.91,1.59,2.73,2.73,0,0,0,2.58,1.85h.28A2.73,2.73,0,0,0,41.62,44.12Z"/><path class="cls-1" d="M18.67,16.1a7.06,7.06,0,0,0,9-10.58,7.06,7.06,0,1,0-9,10.58Z"/><path class="cls-1" d="M82.06,41.63l-5.89-17.7a8,8,0,0,0-7.59-5.48H67.8a7.93,7.93,0,0,1-9.72,0H57.3a8,8,0,0,0-7.59,5.48l-5.89,17.7a2.79,2.79,0,0,0,3.52,3.54c0-.81.08-1.61.14-2.42.05-.65.09-1.28.16-1.94a19.24,19.24,0,0,1,1.54-5.9A16.66,16.66,0,0,1,54,28.59a21.5,21.5,0,0,0-5.15,12.55l-.22,3.16-1,14h4.61l2.24,20.63A3.54,3.54,0,0,0,58,82.09h0a3.54,3.54,0,0,0,3.54-3.54V58.3h2.76V78.55a3.54,3.54,0,0,0,3.54,3.54h0a3.54,3.54,0,0,0,3.52-3.16L73.6,58.3h4.61l-1-14L77,41.13a21.52,21.52,0,0,0-5.15-12.55,16.66,16.66,0,0,1,4.82,6.32,19.24,19.24,0,0,1,1.54,5.9c.07.67.1,1.3.16,1.94.06.81.1,1.62.14,2.42a2.79,2.79,0,0,0,3.52-3.54Z"/><path class="cls-1" d="M57.23,15.22a6.51,6.51,0,0,0,3.18,2.89,6.44,6.44,0,0,0,1.11.35l.11,0a6.55,6.55,0,0,0,2.61,0l.11,0a6.32,6.32,0,0,0,2.21-.95,6.52,6.52,0,0,0,2.08-2.29,6.49,6.49,0,0,0-.32-6.72,6.52,6.52,0,0,0-1.75-1.75q-.26-.17-.53-.32a6.48,6.48,0,0,0-6.18,0q-.28.15-.53.32A6.52,6.52,0,0,0,57.56,8.5a6.48,6.48,0,0,0-.32,6.72Z"/></svg>