<svg id="Layer_1" data-name="Layer 1" xmlns="http://www.w3.org/2000/svg" viewBox="0 0 85.04 85.04"><defs><style>.cls-1{fill:#5a6176;}</style></defs><title>Artboard 6</title><path class="cls-1" d="M82.06,51.81a10.58,10.58,0,0,0-5.21-7.42l1.6-7.64a13.33,13.33,0,0,0-26.1-5.47l-7,33a10.25,10.25,0,0,1-9.58,7.87A9.78,9.78,0,0,1,26,62.38v-5.8a16.71,16.71,0,0,0,4.45-1,18.61,18.61,0,0,0,9.86-13.27l3.55-17.39A9.86,9.86,0,0,0,38.67,14l-1.47-.69a2.56,2.56,0,0,0-1.05-2.59L31.23,8c-1.1-.6-2.48.23-3,1.79L27,13.72c-.5,1.56.11,3.16,1.31,3.44l5.37,1.26A1.84,1.84,0,0,0,35.24,18l1.26.59a4.8,4.8,0,0,1,2.36,5.28L35.31,41.27A13.52,13.52,0,0,1,28.26,51a20.09,20.09,0,0,1-4.82.74A20.08,20.08,0,0,1,18.62,51a13.52,13.52,0,0,1-7.05-9.69L8,23.87a4.8,4.8,0,0,1,2.36-5.28L11.64,18a1.84,1.84,0,0,0,1.57.42l5.37-1.26c1.2-.28,1.81-1.88,1.31-3.44L18.64,9.8c-.5-1.56-1.88-2.39-3-1.79l-4.91,2.7A2.56,2.56,0,0,0,9.7,13.3L8.22,14A9.85,9.85,0,0,0,3,24.89L6.59,42.29a18.61,18.61,0,0,0,9.86,13.27,16.71,16.71,0,0,0,4.45,1v5.8A14.86,14.86,0,0,0,35.75,77.23a15.22,15.22,0,0,0,14.53-11.8l7-33.1a8.25,8.25,0,1,1,16.15,3.38L71.94,43a10.6,10.6,0,1,0,10.12,8.79ZM78.54,55a7.07,7.07,0,1,1-8.31-8.32A7,7,0,0,1,78.54,55Z"/><path class="cls-1" d="M70.92,50.14a3.53,3.53,0,1,0,4.16,4.16A3.53,3.53,0,0,0,70.92,50.14Z"/></svg>