<svg id="Calque_1" data-name="Calque 1" xmlns="http://www.w3.org/2000/svg" viewBox="0 0 85.04 85.04"><defs><style>.cls-1{fill:#5a6176;}</style></defs><title>Circular_material_use</title><path class="cls-1" d="M42,14.43s0,0,.07,0l.09,0a.86.86,0,0,1,.68,0l.09,0s0,0,.07,0L66.31,27.87l11-6.32L42.52,1.44,7.7,21.55l11,6.32Z"/><path class="cls-1" d="M67.3,29.61V56.5a1,1,0,0,1-.5.87L43.52,70.8V83.6L78.34,63.49V23.28Z"/><path class="cls-1" d="M17.74,56.5V29.61l-11-6.33V63.49L41.52,83.6V70.8L18.24,57.37A1,1,0,0,1,17.74,56.5Z"/><path class="cls-1" d="M65.3,54.77V29.6L43.52,17v25.2ZM60.79,39.61c-.68,1.26-2.17,3.87-2.18,3.9l-.07.12,1.58.92-6.07.67-2.42-5.64,1.74,1,2.7-4.87,2.29,0s1.87,0,2.53,1.07S61.48,38.34,60.79,39.61ZM46.11,28.38l8.09.05s2.84,0,4.08,2.2l2.65,4.64a6.05,6.05,0,0,0-2.85-.79c-1.95-.07-10.81,0-12,0Z"/><path class="cls-1" d="M41.52,42.23V17L19.74,29.6V54.77ZM28.2,29.64c.62-1.13,1.09-1.3,2.53-1.34s4.44-.06,4.47-.06h.14V26.41L39,31.33l-3.68,4.91,0-2-5.57.09-1.13-2S27.6,30.76,28.2,29.64Zm-4,5.33,2.7-4.63a6,6,0,0,0,.74,2.87c.91,1.72,5.39,9.37,6,10.43l-5.32,3-4-7A5,5,0,0,1,24.21,35Z"/><path class="cls-1" d="M42.52,44,20.74,56.51,42.52,69.06,64.3,56.51ZM36.13,59.75c-.76-1.23-2.27-3.82-2.29-3.84l-.07-.12-1.59.91,2.46-5.6,6.09.73-1.69,1,2.86,4.77-1.16,2s-.92,1.63-2.19,1.67S36.88,61,36.13,59.75Zm9,2.31-5.35,0A6,6,0,0,0,41.92,60c1-1.65,5.41-9.35,6-10.43l5.24,3.12-4.09,7S47.65,62.07,45.16,62.06Z"/></svg>