<svg id="Layer_1" data-name="Layer 1" xmlns="http://www.w3.org/2000/svg" viewBox="0 0 85.04 85.04"><defs><style>.cls-1{fill:#5a6176;}</style></defs><title>Artboard 33 copy 18</title><path class="cls-1" d="M12.72,68.87c3,0,4.42,1.13,6.19,2.56,2,1.62,4.27,3.45,8.7,3.45s6.7-1.83,8.7-3.45c1.77-1.43,3.17-2.56,6.19-2.56S46.93,70,48.7,71.43c2,1.62,4.27,3.45,8.71,3.45s6.7-1.83,8.71-3.45c1.77-1.43,3.17-2.56,6.19-2.56s4.42,1.13,6.2,2.56a19.28,19.28,0,0,0,3,2.09V68.71L81,68.32c-2-1.62-4.28-3.45-8.71-3.45s-6.7,1.83-8.71,3.45c-1.77,1.43-3.17,2.56-6.19,2.56S53,69.75,51.22,68.32c-2-1.62-4.27-3.45-8.71-3.45s-6.7,1.83-8.7,3.45c-1.77,1.43-3.17,2.56-6.19,2.56s-4.42-1.13-6.19-2.56c-2-1.62-4.27-3.45-8.7-3.45S6,66.7,4,68.32l-.48.39v4.81a19.3,19.3,0,0,0,3-2.09C8.3,70,9.7,68.87,12.72,68.87Z"/><path class="cls-1" d="M12.72,59.85c3,0,4.42,1.13,6.19,2.56,2,1.62,4.27,3.45,8.7,3.45s6.7-1.83,8.7-3.45c1.77-1.43,3.17-2.56,6.19-2.56S46.93,61,48.7,62.41c2,1.62,4.27,3.45,8.71,3.45s6.7-1.83,8.71-3.45c1.77-1.43,3.17-2.56,6.19-2.56s4.42,1.13,6.2,2.56a19.28,19.28,0,0,0,3,2.09V59.7L81,59.3c-2-1.62-4.28-3.45-8.71-3.45s-6.7,1.83-8.71,3.45c-1.77,1.43-3.17,2.56-6.19,2.56S53,60.73,51.22,59.3c-2-1.62-4.27-3.45-8.71-3.45s-6.7,1.83-8.7,3.45c-1.77,1.43-3.17,2.56-6.19,2.56s-4.42-1.13-6.19-2.56c-2-1.62-4.27-3.45-8.7-3.45S6,57.69,4,59.3l-.48.39V64.5a19.3,19.3,0,0,0,3-2.09C8.3,61,9.7,59.85,12.72,59.85Z"/><path class="cls-1" d="M12.72,77.89c3,0,4.42,1.13,6.19,2.56,2,1.62,4.27,3.45,8.7,3.45s6.7-1.83,8.7-3.45c1.77-1.43,3.17-2.56,6.19-2.56S46.93,79,48.7,80.45c2,1.62,4.27,3.45,8.71,3.45s6.7-1.83,8.71-3.45c1.77-1.43,3.17-2.56,6.19-2.56s4.42,1.13,6.2,2.56a19.27,19.27,0,0,0,3,2.09V77.73L81,77.34c-2-1.62-4.28-3.45-8.71-3.45s-6.7,1.83-8.71,3.45c-1.77,1.43-3.17,2.56-6.19,2.56S53,78.77,51.22,77.34c-2-1.62-4.27-3.45-8.71-3.45s-6.7,1.83-8.7,3.45C32,78.77,30.63,79.9,27.62,79.9s-4.42-1.13-6.19-2.56c-2-1.62-4.27-3.45-8.7-3.45S6,75.72,4,77.34l-.48.39v4.81a19.31,19.31,0,0,0,3-2.09C8.3,79,9.7,77.89,12.72,77.89Z"/><path class="cls-1" d="M28.51,19.7v5.59a.79.79,0,0,1-.06.29l2.72,1.85V25.27l13.4,6.22a2.42,2.42,0,0,0,2-4.39L31.69,20.17a5.1,5.1,0,0,0-2.13-.47Z"/><circle class="cls-1" cx="23.77" cy="11.1" r="6.26"/><path class="cls-1" d="M22.9,58.29V48.9l-6.54-3.44v8.61A14.8,14.8,0,0,1,21,56.89,19.42,19.42,0,0,0,22.9,58.29Z"/><path class="cls-1" d="M4.73,42.32A2.42,2.42,0,0,0,8,41.45l.16-.28.88-1.51L14.74,30l1.59-2.72,0,0L19,25.69a.78.78,0,0,1-.12-.4V19.7H18a5.08,5.08,0,0,0-4.37,2.51L8.49,31.09l-1.58,2.7L4.79,37.41l-.88,1.51L3.86,39A2.42,2.42,0,0,0,4.73,42.32Z"/><path class="cls-1" d="M31.18,58.48V45.25l-6.54,3.62V59.09a8.51,8.51,0,0,0,2.56.36A7.64,7.64,0,0,0,31.18,58.48Z"/><polygon class="cls-1" points="19.88 27.18 17.08 28.84 17.02 28.88 16.95 28.91 16.36 29.2 16.36 43.49 20.02 45.41 22.9 46.93 23.3 47.14 23.75 47.38 24.18 47.14 24.64 46.88 26.42 45.9 31.18 43.26 31.18 29.4 30.45 29.02 30.35 28.98 30.26 28.91 27.75 27.21 26.42 28.2 24.79 29.41 24.64 29.52 23.72 30.2 22.9 29.56 22.67 29.38 20.02 27.29 19.88 27.18"/><path class="cls-1" d="M26.91,21.88V19.7H20.46v5.59a.75.75,0,0,1,0,.11l2.47,1.94.85.67.89-.66L26.42,26l.56-.42a.79.79,0,0,1-.07-.33V21.88Z"/><path class="cls-1" d="M52.58,43.5a2.42,2.42,0,0,0,2.55-2.42V26.77a1.11,1.11,0,0,1,2.22,0v9.08h16V26.58a.93.93,0,0,1,1.85,0V40.94a2.51,2.51,0,0,0,2.29,2.56,2.42,2.42,0,0,0,2.55-2.42V23.46A7.46,7.46,0,0,0,72.61,16H57.75a7.46,7.46,0,0,0-7.46,7.46V40.94A2.51,2.51,0,0,0,52.58,43.5Z"/><path class="cls-1" d="M64.51,55.86v-4.5l-7.15-1.89v10c2.76-.09,4.13-1.17,5.83-2.54C63.61,56.55,64,56.2,64.51,55.86Z"/><polygon class="cls-1" points="69.06 37.59 66.22 37.59 64.51 37.59 61.39 37.59 57.36 37.59 57.33 37.59 56.46 47.73 57.36 47.73 64.51 49.62 65.36 44.39 65.35 44.31 65.38 44.31 65.36 44.39 66.22 49.62 74.17 47.73 73.3 37.59 69.06 37.59"/><polygon class="cls-1" points="65.35 44.31 65.36 44.39 65.38 44.31 65.35 44.31"/><path class="cls-1" d="M73.37,53.52v-4l-7.15,1.89v3.42a11.6,11.6,0,0,1,5.67-1.34A14.41,14.41,0,0,1,73.37,53.52Z"/><circle class="cls-1" cx="65.18" cy="7.4" r="6.26"/></svg>