<svg id="Layer_1" data-name="Layer 1" xmlns="http://www.w3.org/2000/svg" viewBox="0 0 85.04 85.04"><defs><style>.cls-1{fill:#5a6176;}</style></defs><title>Artboard 24</title><path class="cls-1" d="M23.52,51.65v6.11a49.51,49.51,0,0,1,8.32-3.38l-.08-7A42.42,42.42,0,0,0,23.52,51.65Z"/><path class="cls-1" d="M43.36,44.28a42.37,42.37,0,0,0-8.82,2.12l.09,7.16a51.43,51.43,0,0,1,8.79-1.69Z"/><path class="cls-1" d="M46.26,43.94l0,7.65a52.2,52.2,0,0,1,8.94,0l0-7.65A42.48,42.48,0,0,0,46.26,43.94Z"/><path class="cls-1" d="M58.12,51.86a51.43,51.43,0,0,1,8.79,1.69L67,46.39a42.37,42.37,0,0,0-8.82-2.12Z"/><path class="cls-1" d="M69.77,47.42l-.08,7A49.51,49.51,0,0,1,78,57.76V51.65A42.42,42.42,0,0,0,69.77,47.42Z"/><path class="cls-1" d="M23.52,65.91A70.29,70.29,0,0,1,32,63.65l-.08-7a53,53,0,0,0-8.35,3.1Z"/><path class="cls-1" d="M43.43,54.39a55.63,55.63,0,0,0-8.78,1.55l.09,7.16A74.89,74.89,0,0,1,43.49,62Z"/><path class="cls-1" d="M46.31,54.14l0,7.65a76.6,76.6,0,0,1,8.85,0l0-7.65A56.63,56.63,0,0,0,46.31,54.14Z"/><path class="cls-1" d="M58,62a74.89,74.89,0,0,1,8.74,1.13l.09-7.16a55.63,55.63,0,0,0-8.78-1.55Z"/><path class="cls-1" d="M69.58,63.65A70.29,70.29,0,0,1,78,65.91c0-2.44,0-3.67,0-6.11a53.05,53.05,0,0,0-8.35-3.1Z"/><path class="cls-1" d="M23.52,74.06c3.38-.54,5.1-.76,8.55-1.13L32,66a79.83,79.83,0,0,0-8.46,2Z"/><path class="cls-1" d="M43.51,64.51a85.11,85.11,0,0,0-8.73,1l.09,7.16c3.46-.31,5.21-.42,8.7-.56Z"/><path class="cls-1" d="M46.36,64.35l0,7.65c3.5-.09,5.25-.09,8.75,0l0-7.65A87,87,0,0,0,46.36,64.35Z"/><path class="cls-1" d="M58,72.09c3.49.14,5.24.25,8.7.56l.09-7.16a85.1,85.1,0,0,0-8.73-1Z"/><path class="cls-1" d="M69.55,66l-.08,7c3.45.37,5.16.59,8.55,1.13,0-2.44,0-3.67,0-6.11A79.83,79.83,0,0,0,69.55,66Z"/><path class="cls-1" d="M23.52,76.09v6.11h8.66l-.08-7C28.65,75.52,26.93,75.69,23.52,76.09Z"/><path class="cls-1" d="M34.89,75,35,82.21h8.66l-.06-7.59C40.1,74.72,38.36,74.81,34.89,75Z"/><path class="cls-1" d="M46.4,74.55l0,7.65H55.1l0-7.65C51.64,74.49,49.89,74.49,46.4,74.55Z"/><path class="cls-1" d="M57.9,82.21h8.66L66.64,75c-3.46-.23-5.2-.32-8.69-.42Z"/><path class="cls-1" d="M69.36,82.21H78V76.09c-3.4-.4-5.12-.57-8.57-.85Z"/><polygon class="cls-1" points="8.94 82.2 13.47 82.2 13.47 38.88 8.94 38.58 8.94 82.2"/><path class="cls-1" d="M13.47,5.1A2.26,2.26,0,0,0,11.2,2.83h0A2.26,2.26,0,0,0,8.94,5.1V6.78l4.53-.29Z"/><path class="cls-1" d="M8.94,8.88,7,9V36.35l1.91.12,4.53.29,42,2.73V5.86l-42,2.73ZM22.58,28.76l-1.21.89.47-1.44-1.22-.91h1.5l.45-1.4L23,27.3h1.5l-1.21.91.47,1.44Zm18.49.88-1.21-.89-1.2.89.48-1.44-1.22-.91h1.5l.45-1.41.44,1.41h1.5l-1.21.91Zm1.38-5.1-1.21-.89L40,24.54l.48-1.44-1.22-.91h1.5l.46-1.4.44,1.4h1.5L42,23.1Zm-2.58-8.7.44,1.4h1.5l-1.21.91.47,1.44-1.21-.89-1.2.89.47-1.44-1.22-.91h1.5Zm-4.12-2.27.45-1.41.44,1.41h1.5l-1.21.91.47,1.44L36.19,15,35,15.92l.48-1.44-1.22-.91Zm0,17.34.45-1.4.44,1.4h1.5l-1.21.91.47,1.44-1.21-.89L35,33.26l.48-1.44-1.22-.91Zm-3.29,3.67-1.2-.89L30,34.58l.47-1.44-1.22-.91h1.5l.46-1.4.44,1.4h1.51L32,33.14ZM30.74,12.24l.45-1.46.44,1.46h1.5l-1.21.95.47,1.5-1.21-.92L30,14.68l.48-1.5-1.22-.95Zm-3.33,21-1.21-.89L25,33.27l.48-1.44-1.22-.91h1.5l.45-1.4.45,1.4h1.5l-1.21.91ZM25.69,13.59l.45-1.41.45,1.41h1.5l-1.21.91.47,1.44L26.15,15l-1.21.89.47-1.44-1.22-.91Zm-3.57,3.67.45-1.4.44,1.4h1.5l-1.21.91.47,1.44-1.2-.89-1.21.89.47-1.44-1.22-.91ZM20.8,22.2l.45-1.4.44,1.4H23.2L22,23.11l.47,1.44-1.21-.89L20,24.55l.48-1.44L19.3,22.2Z"/></svg>