<svg id="Calque_1" data-name="Calque 1" xmlns="http://www.w3.org/2000/svg" viewBox="0 0 85.04 85.04"><defs><style>.cls-1{fill:#5a6176;}</style></defs><title>Adult_learning</title><polygon class="cls-1" points="75.92 49.79 69.66 49.79 70.37 51.83 74.47 51.83 82.17 73.81 2.87 73.81 10.56 51.83 13.68 51.83 14.39 49.79 9.12 49.79 0 75.84 85.04 75.84 75.92 49.79"/><circle class="cls-1" cx="42.7" cy="18.4" r="9.2"/><rect class="cls-1" x="24.95" y="67.49" width="45.4" height="3.85" rx="1.82" ry="1.82"/><rect class="cls-1" x="14.68" y="67.49" width="7.29" height="3.85" rx="1.82" ry="1.82"/><path class="cls-1" d="M17.38,61.07h16.7a3.62,3.62,0,0,0,3.54-3.92,3.66,3.66,0,0,0-3.7-3.21H21.56l.74-2.11.72-2,1.52-4.34a2,2,0,0,1,1.54-1.3v5.64h-2l-.71,2h2.7v1.1h1.36V36.43l11.85,3.63V62.49l-3.07-1a4.24,4.24,0,0,1-1,.4,4.71,4.71,0,0,1-1.12.14h-.72l5.93,1.83v.34l.34.2a4.25,4.25,0,0,0,4.79,0l.34-.2v-.34l5.93-1.83h-.57a5,5,0,0,1-2.24-.55l-3.12,1V40.06L56.6,36.43v16.5H58v-1.1h2.7l-.71-2H58V44.14a1.72,1.72,0,0,1,1.49,1.15L61,49.79l.71,2,.74,2.11H50a3.56,3.56,0,0,0-3.55,3.91A3.64,3.64,0,0,0,49.55,61a5.25,5.25,0,0,0,.57,0H66.67a4.16,4.16,0,0,0,3.92-5.53h0l-1.3-3.71-.71-2-4.77-13.6A9.34,9.34,0,0,0,55,29.93H29.05a9.34,9.34,0,0,0-8.82,6.26l-4.76,13.6-.71,2-1.3,3.71A4.15,4.15,0,0,0,17.38,61.07Zm23.33,2.41-.06,0V41.09l.06,0a3.84,3.84,0,0,0,2.63,0l.06,0V63.46l-.06,0A2.63,2.63,0,0,1,40.71,63.48Z"/></svg>