<svg id="Layer_1" data-name="Layer 1" xmlns="http://www.w3.org/2000/svg" viewBox="0 0 85.04 85.04"><defs><style>.cls-1{fill:#5a6176;}</style></defs><title>Artboard 33 copy 38</title><path class="cls-1" d="M25.64,47.91h35A3.37,3.37,0,0,0,64,44.53V4.32A4.32,4.32,0,0,0,59.69,0H26.58a4.32,4.32,0,0,0-4.32,4.32V44.53A3.37,3.37,0,0,0,25.64,47.91Zm32.28-2.8H55.17a2.29,2.29,0,0,1,0-4.59h2.75a2.29,2.29,0,1,1,0,4.59ZM36.94,2.6H49.33a2.06,2.06,0,0,1,0,4.13H36.94a2.06,2.06,0,1,1,0-4.13ZM26.7,13.54A4.5,4.5,0,0,1,31.2,9h24a4.5,4.5,0,0,1,4.5,4.5v8.69a3,3,0,0,1-3,3H29.66a3,3,0,0,1-3-3Zm1.53,27H31a2.29,2.29,0,0,1,0,4.59H28.23a2.29,2.29,0,1,1,0-4.59Z"/><polygon class="cls-1" points="31.95 50.66 28.25 50.66 27.77 52.97 23.37 52.97 22.41 56.52 27.03 56.52 25.89 62.05 20.9 62.05 19.66 66.64 24.94 66.64 23.43 73.93 17.68 73.93 16 80.11 22.15 80.11 21.13 85.04 26.76 85.04 27.5 80.11 40.18 80.11 40.29 73.93 28.43 73.93 29.53 66.64 40.41 66.64 40.49 62.05 30.23 62.05 31.06 56.52 40.59 56.52 40.66 52.97 31.6 52.97 31.95 50.66"/><polygon class="cls-1" points="59.7 50.66 56 50.66 58.46 62.05 62.8 62.05 59.7 50.66"/><polygon class="cls-1" points="64.04 66.64 59.45 66.64 63.41 85.04 69.04 85.04 64.04 66.64"/></svg>